<svg xmlns="http://www.w3.org/2000/svg" width="218" height="160" viewBox="0 0 218 160">
  <g id="_12" data-name="12" transform="translate(-375 -4000)">
    <rect id="Rectangle_186" data-name="Rectangle 186" width="218" height="160" rx="6" transform="translate(375 4000)" fill="#fff"/>
    <g id="Group_75" data-name="Group 75" transform="translate(-87 -2885)">
      <g id="docker-vector-logo" transform="translate(501.113 6707.1)">
        <path id="Path_302" data-name="Path 302" d="M254.75,290a.934.934,0,0,0-.967.9v4.719a5.228,5.228,0,0,0-7.34.8A5.281,5.281,0,0,0,245.3,299.7a5.219,5.219,0,0,0,10.437.18v-8.913a.966.966,0,0,0-.279-.688,1.034,1.034,0,0,0-.7-.279m-1.229,10.961a3.263,3.263,0,0,1-4.293,1.753,3.275,3.275,0,0,1,0-6.013,3.263,3.263,0,0,1,4.293,1.753,3.173,3.173,0,0,1,0,2.507" transform="translate(-187.641 -37.708)" fill="#0091e2"/>
        <path id="Path_303" data-name="Path 303" d="M324.093,318.924a5.27,5.27,0,1,0,1.54,3.867v-.18a5.237,5.237,0,0,0-.393-2,4.976,4.976,0,0,0-1.147-1.688m-.672,4.932a3.212,3.212,0,0,1-.7,1.032,3.4,3.4,0,0,1-1.032.7,3.274,3.274,0,0,1-4.293-1.737,3.264,3.264,0,0,1,1.737-4.276,3.293,3.293,0,0,1,2.556,0,3.21,3.21,0,0,1,1.032.7,3.4,3.4,0,0,1,.7,1.032,3.253,3.253,0,0,1,0,2.54" transform="translate(-246.088 -60.622)" fill="#0091e2"/>
        <path id="Path_304" data-name="Path 304" d="M455.128,295.44a.972.972,0,0,0-.082-.377,1.313,1.313,0,0,0-.213-.311,1.048,1.048,0,0,0-.311-.213.972.972,0,0,0-.377-.082,1.017,1.017,0,0,0-.524.147l-5.571,3.621v-7.242a.966.966,0,0,0-.279-.688.973.973,0,0,0-1.671.672v12.96a.966.966,0,0,0,.279.688.95.95,0,0,0,1.376,0,.9.9,0,0,0,.279-.688v-3.359l1.13-.737,4.309,4.833a.888.888,0,0,0,.655.246.747.747,0,0,0,.377-.082.961.961,0,0,0,.311-.213,1.314,1.314,0,0,0,.213-.311.972.972,0,0,0,.082-.377,1.015,1.015,0,0,0-.262-.672l-4-4.506,3.9-2.54a.837.837,0,0,0,.377-.77" transform="translate(-355.545 -37.711)" fill="#0091e2"/>
        <path id="Path_305" data-name="Path 305" d="M387.7,320.024a3.282,3.282,0,0,1,1.049-.7,3.427,3.427,0,0,1,1.278-.262,3.282,3.282,0,0,1,1.13.2,3.474,3.474,0,0,1,1,.606,1,1,0,0,0,.639.213.881.881,0,0,0,.7-.279,1,1,0,0,0,.279-.7.931.931,0,0,0-.344-.737,4.917,4.917,0,0,0-3.408-1.262,5.227,5.227,0,1,0,3.392,9.192.978.978,0,0,0,.311-.721.935.935,0,0,0-.9-.967h-.066a1.042,1.042,0,0,0-.623.2,3.392,3.392,0,0,1-.983.606,3.351,3.351,0,0,1-1.131.2,3.132,3.132,0,0,1-1.278-.262,3.473,3.473,0,0,1-1.049-.7,3.278,3.278,0,0,1-.016-4.62c.016.033.016.033.016.016" transform="translate(-304.289 -60.362)" fill="#0091e2"/>
        <path id="Path_306" data-name="Path 306" d="M580.335,318.039a1.8,1.8,0,0,0-.655-.393,3.927,3.927,0,0,0-.868-.2,8,8,0,0,0-.885-.049,4.945,4.945,0,0,0-1.753.311,5.355,5.355,0,0,0-1.524.852v-.2a.976.976,0,0,0-1.95,0v8.5a.976.976,0,0,0,1.95,0v-4.243a3.132,3.132,0,0,1,.262-1.278,2.971,2.971,0,0,1,.7-1.032,3.242,3.242,0,0,1,2.31-.967,3.751,3.751,0,0,1,1.278.229.888.888,0,0,0,.41.1.747.747,0,0,0,.377-.082.962.962,0,0,0,.311-.213,1.05,1.05,0,0,0,.213-.311.971.971,0,0,0,.082-.377.841.841,0,0,0-.262-.655" transform="translate(-461.403 -60.621)" fill="#0091e2"/>
        <path id="Path_307" data-name="Path 307" d="M512.76,320.611a5.322,5.322,0,0,0-4.833-3.211,5.227,5.227,0,0,0-5.227,5.21h0a5.228,5.228,0,0,0,8.634,3.965l.033-.033a.77.77,0,0,0,.213-.246.992.992,0,0,0-.246-1.376.965.965,0,0,0-1.2.115c-.033.033-.131.115-.131.131l-.016.016a2.965,2.965,0,0,1-.934.541,2.925,2.925,0,0,1-1.131.18,3.258,3.258,0,0,1-1.966-.639,3.013,3.013,0,0,1-.721-.721,2.92,2.92,0,0,1-.459-.934h7.373a.966.966,0,0,0,.688-.279.848.848,0,0,0,.279-.688,5.316,5.316,0,0,0-.36-2.032m-7.979,1.049a2.762,2.762,0,0,1,.459-.934,3.011,3.011,0,0,1,.721-.721,3.75,3.75,0,0,1,.917-.475,3.333,3.333,0,0,1,2.064,0,3.316,3.316,0,0,1,2.114,2.13Z" transform="translate(-402.872 -60.621)" fill="#0091e2"/>
        <path id="Path_308" data-name="Path 308" d="M595.572,372.4a.68.68,0,1,0,.688.688.678.678,0,0,0-.688-.688h0m0,1.212a.533.533,0,1,1,.508-.557v.033a.5.5,0,0,1-.492.524h-.016" transform="translate(-479.966 -106.61)" fill="#0091e2"/>
        <path id="Path_309" data-name="Path 309" d="M597.826,374.76h0a.179.179,0,0,0,.065-.311.523.523,0,0,0-.229-.049,1.409,1.409,0,0,0-.262.016v.672h.147v-.262h.066a.132.132,0,0,1,.147.1c.016.049.033.115.049.164h.164a.316.316,0,0,1-.049-.164.156.156,0,0,0-.1-.164m-.2-.049h-.082v-.2h.082c.1,0,.147.049.147.1.016.066-.066.115-.147.1" transform="translate(-482.056 -108.282)" fill="#0091e2"/>
        <path id="Path_310" data-name="Path 310" d="M55.869,279.4a4.64,4.64,0,0,0-2.884-.754,9.167,9.167,0,0,0-1.491.131,5.617,5.617,0,0,0-2.523-3.785l-.508-.295-.328.475a7.006,7.006,0,0,0-.9,2.1,4.979,4.979,0,0,0,.59,3.916,6.95,6.95,0,0,1-2.572.623H21.987a1.1,1.1,0,0,0-1.1,1.1,16.579,16.579,0,0,0,1.016,5.98,8.969,8.969,0,0,0,3.539,4.6,15.664,15.664,0,0,0,7.766,1.671,23.817,23.817,0,0,0,4.309-.393,17.783,17.783,0,0,0,5.636-2.048,15.427,15.427,0,0,0,3.834-3.146,20.86,20.86,0,0,0,3.752-6.472h.328a5.391,5.391,0,0,0,3.949-1.491,4.364,4.364,0,0,0,1.049-1.54l.147-.426Z" transform="translate(0 -24.918)" fill="#0091e2"/>
        <path id="Path_311" data-name="Path 311" d="M39.379,296.942h3.113a.276.276,0,0,0,.279-.279h0v-2.785a.276.276,0,0,0-.279-.279H39.379a.276.276,0,0,0-.279.279h0v2.785a.287.287,0,0,0,.279.279h0" transform="translate(-15.229 -40.721)" fill="#0091e2"/>
        <path id="Path_312" data-name="Path 312" d="M65.579,296.942h3.113a.276.276,0,0,0,.279-.279h0v-2.785a.276.276,0,0,0-.279-.279H65.579a.276.276,0,0,0-.279.279v2.785a.287.287,0,0,0,.279.279" transform="translate(-37.136 -40.721)" fill="#0091e2"/>
        <path id="Path_313" data-name="Path 313" d="M92.279,296.942h3.113a.276.276,0,0,0,.279-.279h0v-2.785a.276.276,0,0,0-.279-.279H92.279a.276.276,0,0,0-.279.279h0v2.785a.267.267,0,0,0,.279.279h0" transform="translate(-59.462 -40.721)" fill="#0091e2"/>
        <path id="Path_314" data-name="Path 314" d="M118.579,296.942h3.113a.276.276,0,0,0,.279-.279v-2.785a.276.276,0,0,0-.279-.279h-3.113a.276.276,0,0,0-.279.279h0v2.785a.276.276,0,0,0,.279.279h0" transform="translate(-81.453 -40.721)" fill="#0091e2"/>
        <path id="Path_315" data-name="Path 315" d="M65.579,272.642h3.113a.287.287,0,0,0,.279-.279v-2.785a.276.276,0,0,0-.279-.279H65.579a.276.276,0,0,0-.279.279v2.785a.3.3,0,0,0,.279.279" transform="translate(-37.136 -20.402)" fill="#0091e2"/>
        <path id="Path_316" data-name="Path 316" d="M92.279,272.642h3.113a.287.287,0,0,0,.279-.279v-2.785a.276.276,0,0,0-.279-.279H92.279a.276.276,0,0,0-.279.279h0v2.785a.276.276,0,0,0,.279.279" transform="translate(-59.462 -20.402)" fill="#0091e2"/>
        <path id="Path_317" data-name="Path 317" d="M118.579,272.642h3.113a.287.287,0,0,0,.279-.279v-2.785a.287.287,0,0,0-.279-.279h-3.113a.276.276,0,0,0-.279.279h0v2.785a.287.287,0,0,0,.279.279" transform="translate(-81.453 -20.402)" fill="#0091e2"/>
        <path id="Path_318" data-name="Path 318" d="M118.579,248.242h3.113a.276.276,0,0,0,.279-.279v-2.785a.287.287,0,0,0-.279-.279h-3.113a.276.276,0,0,0-.279.279h0v2.785a.287.287,0,0,0,.279.279" transform="translate(-81.453)" fill="#0091e2"/>
        <path id="Path_319" data-name="Path 319" d="M145.079,296.942h3.113a.276.276,0,0,0,.279-.279v-2.785a.276.276,0,0,0-.279-.279h-3.113a.276.276,0,0,0-.279.279h0v2.785a.287.287,0,0,0,.279.279" transform="translate(-103.611 -40.721)" fill="#0091e2"/>
      </g>
      <rect id="Rectangle_143" data-name="Rectangle 143" width="102" height="102" transform="translate(520 6914)" fill="none"/>
    </g>
  </g>
</svg>
