<svg xmlns="http://www.w3.org/2000/svg" xmlns:xlink="http://www.w3.org/1999/xlink" width="218" height="160" viewBox="0 0 218 160">
  <defs>
    <clipPath id="clip-path">
      <rect id="Rectangle_103" data-name="Rectangle 103" width="102" height="102" transform="translate(1332 6597)" fill="#fff" stroke="#707070" stroke-width="1"/>
    </clipPath>
  </defs>
  <g id="_13" data-name="13" transform="translate(-375 -4000)">
    <rect id="Rectangle_186" data-name="Rectangle 186" width="218" height="160" rx="6" transform="translate(375 4000)" fill="#fff"/>
    <g id="Mask_Group_26" data-name="Mask Group 26" transform="translate(-899 -2568)" clip-path="url(#clip-path)">
      <g id="Layer_x0020_3" transform="translate(1342.648 6606.15)">
        <path id="Path_181" data-name="Path 181" d="M60.421,60.586c.522-4.349.366-4.987,3.605-4.283l.822.072a18.741,18.741,0,0,0,7.664-1.29c4.121-1.912,6.565-5.1,2.5-4.266-9.269,1.912-9.906-1.226-9.906-1.226,9.788-14.522,13.879-32.957,10.348-37.47C65.822-.184,49.148,5.636,48.869,5.787L48.78,5.8A33.041,33.041,0,0,0,42.6,5.159,15.275,15.275,0,0,0,32.8,8.09S3.059-4.164,4.443,23.5c.294,5.885,8.436,44.534,18.147,32.86,3.549-4.269,6.979-7.878,6.979-7.878a9,9,0,0,0,5.881,1.5l.165-.141a6.447,6.447,0,0,0,.066,1.662c-2.5,2.8-1.766,3.286-6.768,4.315-5.06,1.043-2.087,2.9-.147,3.385,2.353.588,7.8,1.422,11.475-3.727l-.147.587c.981.785.915,5.643,1.054,9.113s.372,6.71,1.079,8.619,1.542,6.828,8.115,5.419c5.493-1.177,9.693-2.872,10.076-18.633" transform="translate(-0.858 -0.028)"/>
        <path id="Path_181_-_Outline" data-name="Path 181 - Outline" d="M48.174,83.749c-3.758,0-7.752-1.713-9.8-7.977-1.042-2.856-1.335-6.172-1.506-10.42l-.062-1.958-.006-.209a16.089,16.089,0,0,1-9.075.175,9.563,9.563,0,0,1-4.122-2.107,7.727,7.727,0,0,1-7.145,1.173C4.79,58.533.184,24.054.167,23.716-.284,14.7,2.191,8.217,7.523,4.451c8.109-5.728,19.815-2.771,24.744-1.118A20.18,20.18,0,0,1,42.667.879a38.534,38.534,0,0,1,5.82.514c5.348-1.645,20.828-4.061,30.34,8.093,5.047,6.448.589,23.87-7.118,37.547.687-.082,1.5-.21,2.44-.405,5.18-1.069,6.66,2.109,6.99,3.109,1.612,4.882-4.816,8.3-6.825,9.234a22.9,22.9,0,0,1-9.661,1.683l-1-.084-.05-.206-3.179.224,4.278.1c-.4,16.673-5.242,20.954-13.459,22.715A14.71,14.71,0,0,1,48.174,83.749Zm-5.4-31.025c2.361,1.889,2.455,5.287,2.6,10.432l.059,1.854c.063,1.564.23,5.721.816,7.3.977,2.957,1.05,3.182,3.2,2.72,3.7-.793,6.373-1.366,6.693-14.55l4.28.1h0l-4.158-1.3c.31-2.664.578-4.965,2.712-6.49a5.432,5.432,0,0,1,2.448-.965,5.216,5.216,0,0,1-.511-1.39l-.357-1.758,1-1.487C71.2,32.894,73.608,17.412,72.043,14.707c-7.617-9.728-21.459-4.992-21.6-4.941l-.825.152L47.91,10a28.793,28.793,0,0,0-5.383-.556A11.058,11.058,0,0,0,35.392,11.5l-1.945,1.475-2.267-.925c-3.456-1.41-13.557-4.265-18.728-.6C9.681,13.418,8.425,17.4,8.719,23.288c.312,6.239,6,28.031,10.147,30.841.074-.106.235-.267.432-.5,3.644-4.383,7.167-8.089,7.167-8.089l2.477-2.606,3,1.99a4.933,4.933,0,0,0,1.95.773l6.855-5.846-.866,10.416.31,2-1.122,1.792,1.929.89Z" transform="translate(-0.858 -0.028)"/>
        <path id="Path_182" data-name="Path 182" d="M75.014,50.82c-9.27,1.912-9.907-1.226-9.907-1.226,9.788-14.523,13.879-32.958,10.348-37.47C65.822-.185,49.148,5.636,48.869,5.787l-.09.016A33.058,33.058,0,0,0,42.6,5.159,15.275,15.275,0,0,0,32.8,8.09S3.059-4.165,4.442,23.5c.294,5.886,8.436,44.534,18.147,32.861,3.549-4.269,6.979-7.878,6.979-7.878a9,9,0,0,0,5.88,1.5l.166-.141a6.481,6.481,0,0,0,.067,1.662c-2.5,2.8-1.767,3.286-6.768,4.315-5.06,1.043-2.088,2.9-.147,3.385,2.353.588,7.8,1.422,11.475-3.727l-.147.587c.98.785,1.669,5.107,1.553,9.024s-.192,6.607.58,8.708,1.542,6.828,8.116,5.419c5.493-1.177,8.34-4.228,8.736-9.317.281-3.618.917-3.083.957-6.317l.51-1.531c.588-4.9.093-6.486,3.478-5.75l.822.072a18.741,18.741,0,0,0,7.665-1.29c4.12-1.912,6.564-5.1,2.5-4.266Z" transform="translate(-0.858 -0.028)" fill="#336791"/>
        <path id="Path_183" data-name="Path 183" d="M57.326,93.018a8,8,0,0,1-5.32-1.83,11.117,11.117,0,0,1-2.965-4.511C47.824,83.634,47.8,71.971,47.982,65.56a1.427,1.427,0,0,1,2.853.08c-.292,10.435.206,18.352.856,19.977,1.063,2.658,2.627,5.4,7.756,4.3,4.764-1.021,6.458-2.735,7.251-7.334.624-3.618,1.859-13.915,2.011-15.949a1.427,1.427,0,0,1,2.846.213C71.4,68.977,70.162,79.3,69.511,83.071a11.6,11.6,0,0,1-2.823,6.435c-1.472,1.53-3.583,2.549-6.643,3.2A13.006,13.006,0,0,1,57.326,93.018Z" transform="translate(-9.628 -11.997)" fill="#fff"/>
        <path id="Path_184" data-name="Path 184" d="M18.816,60.087a4.84,4.84,0,0,1-1.533-.254c-2.114-.705-4.083-2.831-6.019-6.5A64.226,64.226,0,0,1,6.972,42.361c-2.389-7.828-3.9-16.012-4.037-18.676-.4-7.977,1.673-13.633,6.158-16.811a16.139,16.139,0,0,1,7.735-2.719,29.852,29.852,0,0,1,7.835.311,43.224,43.224,0,0,1,8.619,2.326A1.427,1.427,0,0,1,32.2,9.435h0c-.138-.056-13.927-5.576-21.465-.229-3.633,2.577-5.3,7.4-4.953,14.336A102.729,102.729,0,0,0,9.7,41.528c3.916,12.829,7.238,15.181,8.484,15.6.412.137,1.507.5,3.225-1.562C24.95,51.3,28.2,47.9,28.235,47.87A1.427,1.427,0,0,1,30.3,49.845c-.032.033-3.218,3.365-6.691,7.542C21.871,59.472,20.192,60.086,18.816,60.087Z" transform="translate(-0.842 -0.256)" fill="#fff"/>
        <path id="Path_185" data-name="Path 185" d="M75.809,50.878a1.427,1.427,0,0,1-1.182-2.225A74.391,74.391,0,0,0,84.6,26.6a39.576,39.576,0,0,0,1.384-8.93c.048-3.076-.572-4.337-.946-4.814C81.371,8.179,76.195,5.727,69.65,5.574a28.934,28.934,0,0,0-9.42,1.347,1.432,1.432,0,0,1-1.4-2.5,16.908,16.908,0,0,1,3.326-.973,33.186,33.186,0,0,1,7.185-.739,25.1,25.1,0,0,1,9.159,1.732A21.049,21.049,0,0,1,87.282,11.1c1.076,1.376,1.6,3.6,1.552,6.618a42.414,42.414,0,0,1-1.474,9.6,74.5,74.5,0,0,1-4,11.364,75.654,75.654,0,0,1-6.363,11.566A1.426,1.426,0,0,1,75.809,50.878Z" transform="translate(-11.626)" fill="#fff"/>
        <path id="Path_186" data-name="Path 186" d="M70.546,57.886a8.9,8.9,0,0,1-4.259-.833,2.483,2.483,0,0,1-1.31-2.013c-.239-4.2,1.873-5.36,3.236-5.82-.119-.155-.248-.316-.371-.47a16.157,16.157,0,0,1-2.563-4.135c-.113-.273-.506-.978-.922-1.724a58.315,58.315,0,0,1-4.095-8.513,18.5,18.5,0,0,1-1.135-4.965,7.118,7.118,0,0,1,1.095-4.624,6.35,6.35,0,0,1,3.957-2.47,14.744,14.744,0,0,1,4.537-.215,26.17,26.17,0,0,0-4.492-7.518,21.9,21.9,0,0,0-16.68-7.931,13.535,13.535,0,0,0-10.268,3.84c-5.856,5.915-5.643,16.659-5.64,16.766a1.427,1.427,0,0,1-2.853.075,34.073,34.073,0,0,1,.671-6.811,29.375,29.375,0,0,1,1.876-6.119,19.464,19.464,0,0,1,3.918-5.92A16.281,16.281,0,0,1,47.591,3.8,24.716,24.716,0,0,1,58.833,6.6a25.69,25.69,0,0,1,7.491,6.045c3.7,4.308,5.518,9.091,5.669,10.694a1.552,1.552,0,0,1-1.182,1.821l-.515.012c-2.815-.451-6.441-.6-7.735,1.25-.913,1.306-.779,3.724.39,6.993a55.948,55.948,0,0,0,3.9,8.083c.536.962.891,1.6,1.068,2.026a13.488,13.488,0,0,0,2.153,3.44,6.4,6.4,0,0,1,1.376,2.273,2.135,2.135,0,0,0,1.227.619c1.078.271,3.173.427,7.026-.368a5.735,5.735,0,0,1,1.968-.129A2.013,2.013,0,0,1,83.4,50.7c.332,1-.183,2.125-1.531,3.332a15.763,15.763,0,0,1-3.783,2.419,18.633,18.633,0,0,1-6.08,1.382C71.6,57.862,71.093,57.886,70.546,57.886Zm-2.729-3.243A8.5,8.5,0,0,0,71.5,55a16.369,16.369,0,0,0,5.382-1.143,13.939,13.939,0,0,0,2.353-1.375c-4.251.761-7.312.548-9.107-.637q-.117-.077-.222-.157c-.119.038-.239.071-.357.1a2.488,2.488,0,0,0-1.226.588A3.447,3.447,0,0,0,67.816,54.643Z" transform="translate(-5.896 -0.212)" fill="#fff"/>
        <path id="Path_187" data-name="Path 187" d="M42.733,60.115h0a4.346,4.346,0,0,1,1.695.4,4.94,4.94,0,0,1,2.687,3.21,4.227,4.227,0,0,1-.527,3.646,10.956,10.956,0,0,1-9.247,4.767,15.445,15.445,0,0,1-3.736-.484c-.387-.1-3.778-1.01-3.731-3.271a2.359,2.359,0,0,1,1.332-2.008,8.6,8.6,0,0,1,2.6-.888c3.434-.707,3.627-.952,4.7-2.311.328-.416.736-.935,1.295-1.559A3.923,3.923,0,0,1,42.733,60.115Zm-5.391,9.168a8.1,8.1,0,0,0,6.924-3.571,1.446,1.446,0,0,0,.105-1.2,2.159,2.159,0,0,0-1.036-1.359,1.9,1.9,0,0,0-.6-.182c-.27,0-.618.345-.8.55-.5.558-.861,1.017-1.18,1.422-1.45,1.841-2.111,2.465-6.364,3.34a10.388,10.388,0,0,0-1.033.262,5.183,5.183,0,0,0,.944.34A12.6,12.6,0,0,0,37.342,69.283Z" transform="translate(-6.11 -11.205)" fill="#fff"/>
        <path id="Path_188" data-name="Path 188" d="M40.414,57.47A1.427,1.427,0,0,1,39,56.259q-.018-.117-.031-.234a10.773,10.773,0,0,1-7.222-3.38,12.1,12.1,0,0,1-2.734-4.57,12.475,12.475,0,0,1-.492-5.67,46.567,46.567,0,0,0,.236-9.4c-.032-.537-.055-.924-.053-1.2a2.5,2.5,0,0,1,1.235-1.875A13.283,13.283,0,0,1,31.9,28.744a16.977,16.977,0,0,1,5.633-1.753,7.586,7.586,0,0,1,4.573.775A6.193,6.193,0,0,1,45.064,32.1c2.073,9.588.159,13.841-1.238,16.946-.254.564-.494,1.1-.683,1.606l-.171.461c-.71,1.9-1.323,3.547-1.144,4.712a1.428,1.428,0,0,1-1.412,1.644Zm-8.835-25.2c.009.166.02.359.032.565a49.167,49.167,0,0,1-.258,9.964,9.4,9.4,0,0,0,2.46,7.869,7.924,7.924,0,0,0,5.449,2.51c.254-.969.631-1.981,1.035-3.064l.17-.457c.223-.6.482-1.175.756-1.784,1.3-2.9,2.926-6.5,1.051-15.172a3.2,3.2,0,0,0-2.4-2.775,9.131,9.131,0,0,0-5.149.682A13.031,13.031,0,0,0,31.578,32.272Z" transform="translate(-5.822 -4.728)" fill="#fff"/>
        <path id="Path_189" data-name="Path 189" d="M39.5,32.331c-.053.376.688,1.378,1.654,1.512A1.781,1.781,0,0,0,43,32.819c.052-.376-.688-.79-1.654-.924s-1.791.061-1.842.436Z" transform="translate(-7.71 -5.409)" fill="#fff"/>
        <path id="Path_189_-_Outline" data-name="Path 189 - Outline" d="M40.75,31.376a4.8,4.8,0,0,1,.66.047,4.043,4.043,0,0,1,1.376.428c.668.374.716.808.684,1.033a2.2,2.2,0,0,1-2.092,1.45,2.089,2.089,0,0,1-.288-.02,2.675,2.675,0,0,1-1.7-1.058,1.493,1.493,0,0,1-.359-.992l.058-.409h.133A2.037,2.037,0,0,1,40.75,31.376ZM42.5,32.8a2.534,2.534,0,0,0-1.219-.435,3.843,3.843,0,0,0-.529-.038,1.923,1.923,0,0,0-.749.118,1.821,1.821,0,0,0,1.22.926,1.135,1.135,0,0,0,.156.011A1.483,1.483,0,0,0,42.5,32.8Z" transform="translate(-7.71 -5.409)" fill="#fff"/>
        <path id="Path_190" data-name="Path 190" d="M75.16,31.379c.052.376-.688,1.378-1.654,1.512a1.783,1.783,0,0,1-1.844-1.024c-.051-.376.689-.79,1.655-.924s1.791.061,1.843.436Z" transform="translate(-13.987 -5.224)" fill="#fff"/>
        <path id="Path_190_-_Outline" data-name="Path 190 - Outline" d="M73.911,30.662c.87,0,1.424.256,1.484.684h0a1.521,1.521,0,0,1-.508,1.044,2.387,2.387,0,0,1-1.349.737,1.851,1.851,0,0,1-.255.018A1.978,1.978,0,0,1,71.426,31.9c-.082-.6.873-1.056,1.857-1.193A4.566,4.566,0,0,1,73.911,30.662Zm1.013.75c-.011-.081-.319-.274-1.013-.274a4.088,4.088,0,0,0-.562.04c-.982.137-1.469.527-1.452.657a1.572,1.572,0,0,0,1.386.834,1.374,1.374,0,0,0,.189-.013,1.9,1.9,0,0,0,1.07-.594,1.218,1.218,0,0,0,.382-.65Z" transform="translate(-13.987 -5.224)" fill="#fff"/>
        <path id="Path_191" data-name="Path 191" d="M77.738,52.791a1.427,1.427,0,0,1-1.185-2.221c2.187-3.266,1.8-6.492,1.388-9.908a29.056,29.056,0,0,1-.3-4.352,30.231,30.231,0,0,1,.412-3.844,18.829,18.829,0,0,0,.324-4.125,1.427,1.427,0,1,1,2.85-.154,21.668,21.668,0,0,1-.353,4.713,27.92,27.92,0,0,0-.381,3.5,26.573,26.573,0,0,0,.285,3.919c.433,3.606.924,7.693-1.851,11.837A1.426,1.426,0,0,1,77.738,52.791Z" transform="translate(-15.174 -4.709)" fill="#fff"/>
        <path id="Path_192" data-name="Path 192" transform="translate(0 -1.884)" fill="#fff"/>
      </g>
    </g>
  </g>
</svg>
