<svg xmlns="http://www.w3.org/2000/svg" width="218" height="160" viewBox="0 0 218 160">
  <g id="_15" data-name="15" transform="translate(-375 -4000)">
    <rect id="Rectangle_186" data-name="Rectangle 186" width="218" height="160" rx="6" transform="translate(375 4000)" fill="#fff"/>
    <g id="Group_71" data-name="Group 71" transform="translate(-552 -3038)">
      <rect id="Rectangle_157" data-name="Rectangle 157" width="102" height="102" transform="translate(986 7067)" fill="none"/>
      <g id="g10" transform="translate(853.714 7801.95)">
        <g id="g16" transform="translate(137.286 -703.95)">
          <g id="g18" transform="translate(0 0)">
            <g id="g24">
              <path id="path26" d="M-117.4-47.764a4.059,4.059,0,0,1,2.717,3.661c0,2.068-1.59,3.3-4.257,3.3-2.83,0-4.144-2.491-4.48-3.253l-.414-.942h-5.3l-.009-.007h-4.911a8.736,8.736,0,0,1-7.181,4.3c-5.668,0-8.5-4.429-8.859-8.8h23.166v-.957a23.517,23.517,0,0,0-.541-5.1,9.443,9.443,0,0,0,5.344,5.632c1.157.552,2.9,1.375,4.725,2.171m-24.168-13.9c4.741,0,7.065,3.272,7.737,6.6h-15.779a8.435,8.435,0,0,1,8.042-6.6m46.488.1v-5.981h-4.925v-7.071h-6.045v7.071h-12.178c-5.625,0-9.706,3.784-9.706,9a10.193,10.193,0,0,0,.163,1.789c-1.916-6.64-6.967-10.786-13.75-10.786-8.3,0-14.64,6.46-15.172,15.212v-1.859a13.367,13.367,0,0,0-13.354-13.352,13.367,13.367,0,0,0-13.353,13.352V-35.05h6.12V-54.192a7.242,7.242,0,0,1,7.233-7.233,7.244,7.244,0,0,1,7.234,7.233V-35.05h6.12V-49.944c.536,8.784,6.96,15.266,15.365,15.266a15.737,15.737,0,0,0,12.221-6.431,10.9,10.9,0,0,0,10.265,6.431c5.351,0,10.767-3.417,10.767-9.95,0-3.912-2.272-7.108-6.4-9-.528-.24-.953-.442-1.361-.636l-.056-.028c-.461-.218-.908-.427-1.459-.678-2.7-1.21-3.979-2.1-3.979-3.864a2.9,2.9,0,0,1,3.108-2.726h12.171v17.048a9.847,9.847,0,0,0,9.838,9.838v-6.044a3.8,3.8,0,0,1-3.793-3.793V-61.564c2.418,0,4.282,0,4.925,0" transform="translate(183.406 74.616)" fill="#768693"/>
            </g>
            <g id="g86" transform="translate(89.207 36.236)">
              <path id="path88" d="M-3.415-2.346h-.266v.4h.266a.2.2,0,0,0,.221-.21c0-.13-.1-.186-.221-.186m.221,1.415-.25-.6h-.233v.6h-.469V-2.765h.731a.617.617,0,0,1,.69.623.566.566,0,0,1-.282.522l.3.69h-.486Zm-.279-2.3A1.35,1.35,0,0,0-4.86-1.814,1.345,1.345,0,0,0-3.473-.392,1.357,1.357,0,0,0-2.085-1.814a1.349,1.349,0,0,0-1.388-1.42m0,3.273A1.791,1.791,0,0,1-5.335-1.814,1.8,1.8,0,0,1-3.473-3.665,1.8,1.8,0,0,1-1.61-1.814,1.794,1.794,0,0,1-3.473.038" transform="translate(5.335 3.665)" fill="#768693"/>
            </g>
          </g>
        </g>
      </g>
    </g>
  </g>
</svg>
