<svg xmlns="http://www.w3.org/2000/svg" width="218" height="160" viewBox="0 0 218 160">
  <g id="_17" data-name="17" transform="translate(-375 -4000)">
    <rect id="Rectangle_186" data-name="Rectangle 186" width="218" height="160" rx="6" transform="translate(375 4000)" fill="#fff"/>
    <g id="Group_67" data-name="Group 67" transform="translate(68 -3037)">
      <g id="MongoDB_Logo" transform="translate(361.679 7101.31)">
        <path id="Path_368" data-name="Path 368" d="M17.162,14.476c-1.3-5.715-4-7.236-4.684-8.312a12.233,12.233,0,0,1-.753-1.474A1.5,1.5,0,0,1,11.189,5.9,13.7,13.7,0,0,0,6.333,16.167c-.289,6.054,4.451,9.788,5.077,10.173a1.391,1.391,0,0,0,1.354-.212,11.79,11.79,0,0,0,4.4-11.653" transform="translate(0)" fill="#10aa50"/>
        <path id="Path_369" data-name="Path 369" d="M67.008,222.46a12.447,12.447,0,0,1-.508,3.226s.2,1.427.338,2.938h.494a27.478,27.478,0,0,1,.539-3.164C67.232,225.145,67.032,223.775,67.008,222.46Z" transform="translate(-55.087 -199.343)" fill="#b8c4c2"/>
        <path id="Path_370" data-name="Path 370" d="M71.871,27.509h0c-.646-.3-.833-1.7-.862-3a61.421,61.421,0,0,0,.14-6.46c-.034-1.13.016-10.47-.278-11.838a11.363,11.363,0,0,0,.695,1.345c.689,1.076,3.39,2.6,4.684,8.313A11.784,11.784,0,0,1,71.871,27.509Z" transform="translate(-59.087 -1.391)" fill="#12924f"/>
        <path id="Path_371" data-name="Path 371" d="M1074.515,203.128a1.4,1.4,0,1,1,1.4-1.423,1.386,1.386,0,0,1-1.4,1.423m0-2.681a1.278,1.278,0,1,0,1.269,1.281,1.257,1.257,0,0,0-1.269-1.281m.339,2.165-.362-.781h-.292v.781h-.212v-1.777h.524c.39,0,.552.169.552.5a.432.432,0,0,1-.351.473l.374.8Zm-.646-.965h.307c.249,0,.344-.085.344-.311s-.091-.3-.371-.3h-.28Z" transform="translate(-976.523 -179.076)" fill="#21313c"/>
        <path id="Path_372" data-name="Path 372" d="M800.044,110.868a3.223,3.223,0,0,0,1.808.429,3.52,3.52,0,0,0,2.549-.911,4.848,4.848,0,0,0,1.428-3.826,4.552,4.552,0,0,0-2.1-4.129,5.609,5.609,0,0,0-3-.7,2.492,2.492,0,0,0-.885.107.464.464,0,0,0-.163.254c-.036.322-.036,2.77-.036,4.218,0,1.484,0,3.554.036,3.808a1.1,1.1,0,0,0,.361.751m-3.608-9.942c.307,0,1.475.053,2.018.053,1.015,0,1.717-.053,3.615-.053a5.852,5.852,0,0,1,3.886,1.251,5.2,5.2,0,0,1,1.777,4.094,5.312,5.312,0,0,1-2.206,4.594,7.3,7.3,0,0,1-4.569,1.287c-1.085,0-2.947-.036-4.5-.053h-.032c-.073-.143.133-.7.26-.715a2.3,2.3,0,0,0,.729-.145c.328-.135.405-.3.442-.892.054-1.108.036-2.431.036-3.933,0-1.072.018-3.164-.018-3.826-.055-.553-.289-.7-.762-.8a9.838,9.838,0,0,0-1.015-.161c-.036-.107.242-.592.333-.7" transform="translate(-722.944 -88.096)" fill="#21313c"/>
        <path id="Path_373" data-name="Path 373" d="M947.959,102.176c-.072.018-.163.2-.163.286-.019.644-.036,2.324-.036,3.485a.115.115,0,0,0,.091.09c.234.018.813.036,1.3.036a3.091,3.091,0,0,0,1.3-.2,1.685,1.685,0,0,0,.846-1.591c0-1.555-1.085-2.145-2.693-2.145a4.852,4.852,0,0,0-.651.036m4.1,7.15c0-1.573-1.158-2.467-3.273-2.467a8.264,8.264,0,0,0-.922.018c-.054.018-.108.053-.108.09,0,1.126-.019,2.931.036,3.646a1.206,1.206,0,0,0,.524.858,3.636,3.636,0,0,0,1.392.2,2.173,2.173,0,0,0,2.351-2.341m-7.367-8.026c.163,0,.644.053,1.873.053,1.157,0,2.1-.036,3.215-.036,1.392,0,3.308.5,3.308,2.574a2.508,2.508,0,0,1-1.663,2.235c-.054.018-.054.053,0,.071a2.867,2.867,0,0,1,2.512,2.735,3.344,3.344,0,0,1-2.35,3.111,7.46,7.46,0,0,1-2.962.5c-.813,0-2.993-.085-4.2-.071-.127-.053.116-.626.224-.715a3.332,3.332,0,0,0,.82-.129c.433-.107.485-.246.539-.89.036-.554.036-2.539.036-3.951,0-1.931.019-3.235,0-3.879-.018-.5-.2-.662-.542-.751-.271-.054-.723-.107-1.084-.161-.091-.09.188-.626.278-.7" transform="translate(-858.69 -88.435)" fill="#21313c"/>
        <path id="Path_374" data-name="Path 374" d="M179.918,152.882a.784.784,0,0,1-.055-.361.459.459,0,0,1,.055-.241,6.142,6.142,0,0,0,.694-.141c.32-.08.44-.254.459-.662.052-.964.056-2.772.037-4.043V147.4a.515.515,0,0,0-.169-.454,3.633,3.633,0,0,0-.959-.423c-.151-.045-.235-.124-.231-.217s.1-.2.3-.242a11.4,11.4,0,0,0,2.435-.63.357.357,0,0,1,.072.254c0,.056-.008.115-.014.176-.015.179-.032.383-.032.586a.134.134,0,0,0,.227.077,4.49,4.49,0,0,1,2.418-1.092A2.079,2.079,0,0,1,187,146.566a.124.124,0,0,0,.1.062.12.12,0,0,0,.1-.052,4.842,4.842,0,0,1,2.5-1.143c1.479,0,2.363,1.108,2.363,2.962,0,.533-.005,1.209-.01,1.84,0,.553-.008,1.072-.008,1.431a.5.5,0,0,0,.292.377,3.74,3.74,0,0,0,.924.228h.015a1.374,1.374,0,0,1-.093.605c-.1,0-.234-.008-.4-.017-.307-.015-.729-.036-1.218-.036-.983,0-1.5.019-1.988.051a1.488,1.488,0,0,1-.005-.6,5.2,5.2,0,0,0,.6-.131c.313-.1.4-.245.423-.661.008-.3.064-2.9-.036-3.515a1.573,1.573,0,0,0-1.631-1.39,2.87,2.87,0,0,0-1.626.62.237.237,0,0,0-.059.153v.013a6.654,6.654,0,0,1,.071,1.311c0,.338,0,.691,0,1.044,0,.718-.008,1.395,0,1.906a.48.48,0,0,0,.381.5l.239.055c.141.035.289.07.508.1a.972.972,0,0,1-.008.45.36.36,0,0,1-.063.153c-.547-.019-1.108-.035-1.917-.035-.245,0-.646.01-1,.019-.287.008-.558.015-.712.016a.7.7,0,0,1-.054-.311.54.54,0,0,1,.057-.291l.217-.04c.19-.034.354-.063.508-.1.267-.085.368-.23.388-.571a26.866,26.866,0,0,0-.019-3.661,1.5,1.5,0,0,0-1.558-1.388,2.931,2.931,0,0,0-1.626.619.5.5,0,0,0-.15.368v.947c0,1.151-.008,2.583.02,3.2a.507.507,0,0,0,.443.5c.079.023.214.045.371.071.091.015.19.031.292.05a1.283,1.283,0,0,1-.048.605c-.157,0-.351-.01-.573-.019-.338-.015-.762-.034-1.24-.034-.565,0-.959.019-1.274.034-.212.01-.4.019-.58.019" transform="translate(-158.753 -128.831)" fill="#21313c"/>
        <path id="Path_375" data-name="Path 375" d="M359.466,146.27a1.542,1.542,0,0,0-.863.243,2.449,2.449,0,0,0-.948,2.264c0,2.1,1.05,3.562,2.554,3.562a1.608,1.608,0,0,0,1.1-.39,2.831,2.831,0,0,0,.707-2.225c0-2.065-1.026-3.454-2.554-3.454m.289,6.846c-2.716,0-3.683-1.993-3.683-3.857a3.449,3.449,0,0,1,1.582-3.027,4.832,4.832,0,0,1,2.445-.723,3.419,3.419,0,0,1,3.52,3.625,3.75,3.75,0,0,1-1.672,3.312,4.742,4.742,0,0,1-2.192.669" transform="translate(-320.155 -128.904)" fill="#21313c"/>
        <path id="Path_376" data-name="Path 376" d="M686.284,146.27a1.537,1.537,0,0,0-.865.243,2.449,2.449,0,0,0-.948,2.264c0,2.1,1.05,3.562,2.554,3.562a1.608,1.608,0,0,0,1.105-.39,2.831,2.831,0,0,0,.707-2.225c0-2.065-1.026-3.454-2.553-3.454m.289,6.846c-2.716,0-3.683-1.993-3.683-3.856a3.447,3.447,0,0,1,1.583-3.028,4.823,4.823,0,0,1,2.444-.723,3.419,3.419,0,0,1,3.52,3.624,3.747,3.747,0,0,1-1.672,3.312,4.733,4.733,0,0,1-2.192.67" transform="translate(-619.32 -128.904)" fill="#21313c"/>
        <path id="Path_377" data-name="Path 377" d="M581.206,146.126c-.837,0-1.378.661-1.378,1.684s.466,2.239,1.777,2.239a1.275,1.275,0,0,0,.835-.322,2.09,2.09,0,0,0,.508-1.47c0-1.334-.65-2.131-1.737-2.131m-.108,7.06a1.378,1.378,0,0,0-.677.169c-.663.423-.97.846-.97,1.338a1.428,1.428,0,0,0,.563,1.152,2.853,2.853,0,0,0,1.918.586c1.624,0,2.352-.873,2.352-1.738a1.232,1.232,0,0,0-.924-1.235,7.25,7.25,0,0,0-2.259-.272m.108,4.146a3.506,3.506,0,0,1-2.277-.668,2.134,2.134,0,0,1-.846-1.581,1.236,1.236,0,0,1,.32-.8,8.412,8.412,0,0,1,1.472-1.18.078.078,0,0,0,.047-.072.075.075,0,0,0-.058-.074,1.555,1.555,0,0,1-1.043-1.015.087.087,0,0,0-.008-.04.235.235,0,0,1,.095-.292c.1-.074.272-.174.452-.28a6.079,6.079,0,0,0,.727-.473.119.119,0,0,0-.03-.186,2.337,2.337,0,0,1-1.667-2.454,2.44,2.44,0,0,1,1.024-2.008,4.67,4.67,0,0,1,2.291-.777h.042a4.723,4.723,0,0,1,1.748.389,2.779,2.779,0,0,0,1.034.164,1.393,1.393,0,0,0,1.119-.423.97.97,0,0,1,.059.32,1.2,1.2,0,0,1-.2.734.913.913,0,0,1-.695.3.577.577,0,0,1-.085,0,2.28,2.28,0,0,1-.423-.07l-.069.025c-.022.032-.008.068.01.113a.142.142,0,0,1,.01.028,4.946,4.946,0,0,1,.1.685,2.56,2.56,0,0,1-1.08,2.313,3.686,3.686,0,0,1-1.862.721h0c-.014,0-.085.006-.217.018-.085.008-.195.018-.211.018h-.016c-.122.034-.44.185-.44.467,0,.234.144.524.832.576l.445.031a13.692,13.692,0,0,1,2.573.322,1.782,1.782,0,0,1,1.191,1.715,3.489,3.489,0,0,1-2.245,2.969,4.879,4.879,0,0,1-2.123.476" transform="translate(-523.388 -128.831)" fill="#21313c"/>
        <path id="Path_378" data-name="Path 378" d="M468.82,151.978a3.229,3.229,0,0,1-1.031-.268.474.474,0,0,1-.127-.254c-.036-.554-.036-2.163-.036-3.215a3.841,3.841,0,0,0-.508-2.145,2.176,2.176,0,0,0-1.844-.965,4.281,4.281,0,0,0-2.422,1.144c-.019.018-.138.131-.135-.045s.03-.533.047-.762a.392.392,0,0,0-.118-.332,10.775,10.775,0,0,1-2.459.644c-.384.074-.481.444-.071.572h.006a3.509,3.509,0,0,1,.931.41.488.488,0,0,1,.145.447c.018,1.2.018,3.039-.036,4.04-.018.393-.127.536-.416.608l.027-.009a5.623,5.623,0,0,1-.669.125.975.975,0,0,0,0,.715c.181,0,1.1-.053,1.862-.053,1.048,0,1.59.053,1.862.053a1,1,0,0,0,.073-.715,3.808,3.808,0,0,1-.742-.107c-.289-.071-.361-.215-.379-.536-.036-.841-.036-2.628-.036-3.844a.716.716,0,0,1,.2-.592,2.382,2.382,0,0,1,1.483-.536,1.618,1.618,0,0,1,1.1.375,1.531,1.531,0,0,1,.518,1.01c.072.677.053,2.038.053,3.215,0,.644-.053.806-.289.877a2.92,2.92,0,0,1-.741.143.975.975,0,0,0,0,.715c.47,0,1.015-.053,1.807-.053.994,0,1.627.053,1.88.053a1,1,0,0,0,.073-.715" transform="translate(-415.153 -128.556)" fill="#21313c"/>
      </g>
      <rect id="Rectangle_152" data-name="Rectangle 152" width="102" height="102" transform="translate(364 7067)" fill="none"/>
    </g>
  </g>
</svg>
