<svg xmlns="http://www.w3.org/2000/svg" width="218" height="160" viewBox="0 0 218 160">
  <g id="_18" data-name="18" transform="translate(-375 -4000)">
    <rect id="Rectangle_186" data-name="Rectangle 186" width="218" height="160" rx="6" transform="translate(375 4000)" fill="#fff"/>
    <g id="Group_76" data-name="Group 76" transform="translate(68 -2884)">
      <rect id="Rectangle_142" data-name="Rectangle 142" width="102" height="102" transform="translate(364 6914)" fill="none"/>
      <g id="Amazon_Web_Services_Logo" transform="translate(367.082 6935.9)">
        <path id="Path_299" data-name="Path 299" d="M36.486,21.319a9.368,9.368,0,0,0,.341,2.756,16.573,16.573,0,0,0,.991,2.229,1.347,1.347,0,0,1,.217.712,1.226,1.226,0,0,1-.588.929l-1.951,1.3a1.485,1.485,0,0,1-.805.279,1.425,1.425,0,0,1-.929-.433,9.579,9.579,0,0,1-1.115-1.455c-.31-.526-.619-1.115-.96-1.827a11.438,11.438,0,0,1-9.1,4.273,8.484,8.484,0,0,1-6.193-2.229A7.954,7.954,0,0,1,14.1,21.907a7.971,7.971,0,0,1,2.818-6.378A11.264,11.264,0,0,1,24.5,13.113a24.515,24.515,0,0,1,3.282.248c1.146.155,2.322.4,3.561.681v-2.26c0-2.353-.5-3.994-1.455-4.954C28.9,5.868,27.228,5.4,24.844,5.4a14.087,14.087,0,0,0-3.344.4,24.671,24.671,0,0,0-3.344,1.053,8.884,8.884,0,0,1-1.084.4,1.9,1.9,0,0,1-.5.093c-.433,0-.65-.31-.65-.96V4.877a1.959,1.959,0,0,1,.217-1.084,2.318,2.318,0,0,1,.867-.65,17.826,17.826,0,0,1,3.9-1.393,18.772,18.772,0,0,1,4.83-.588c3.685,0,6.378.836,8.112,2.508,1.7,1.672,2.57,4.211,2.57,7.617V21.319ZM23.915,26.025a10.035,10.035,0,0,0,3.189-.557,6.9,6.9,0,0,0,2.941-1.982A4.915,4.915,0,0,0,31.1,21.5a11.116,11.116,0,0,0,.31-2.694v-1.3a25.858,25.858,0,0,0-2.849-.526,23.331,23.331,0,0,0-2.91-.186,7.138,7.138,0,0,0-4.613,1.239A4.316,4.316,0,0,0,19.518,21.6a4,4,0,0,0,4.4,4.428Zm24.863,3.344a1.729,1.729,0,0,1-1.177-.31,2.524,2.524,0,0,1-.65-1.208L39.675,3.918A5.424,5.424,0,0,1,39.4,2.679a.679.679,0,0,1,.743-.774h3.034a1.716,1.716,0,0,1,1.208.31A2.533,2.533,0,0,1,45,3.422l5.2,20.5,4.83-20.5a2.172,2.172,0,0,1,.588-1.208,2.13,2.13,0,0,1,1.238-.31h2.477a1.863,1.863,0,0,1,1.239.31,2.086,2.086,0,0,1,.588,1.208l4.892,20.745L71.412,3.422a2.655,2.655,0,0,1,.619-1.208,2.02,2.02,0,0,1,1.208-.31h2.88a.688.688,0,0,1,.774.774,3.088,3.088,0,0,1-.062.5,4.4,4.4,0,0,1-.217.774L69.151,27.883a2.374,2.374,0,0,1-.65,1.208,1.981,1.981,0,0,1-1.177.31H64.662a1.863,1.863,0,0,1-1.238-.31,2.2,2.2,0,0,1-.588-1.239l-4.8-19.971-4.768,19.94a2.417,2.417,0,0,1-.588,1.239,1.919,1.919,0,0,1-1.238.31Zm39.787.836a20.489,20.489,0,0,1-4.768-.557,14.086,14.086,0,0,1-3.561-1.238,2.231,2.231,0,0,1-.96-.867,2.186,2.186,0,0,1-.186-.867V25.1c0-.65.248-.96.712-.96a1.753,1.753,0,0,1,.557.093c.186.062.464.186.774.31a16.842,16.842,0,0,0,3.406,1.084,18.594,18.594,0,0,0,3.685.372,8.354,8.354,0,0,0,4.521-1.022,3.334,3.334,0,0,0,1.61-2.941,3.015,3.015,0,0,0-.836-2.167,7.769,7.769,0,0,0-3.127-1.61L85.9,16.86A9.444,9.444,0,0,1,80.948,13.7,7.377,7.377,0,0,1,79.4,9.212a6.891,6.891,0,0,1,.836-3.437,7.961,7.961,0,0,1,2.229-2.539,9.827,9.827,0,0,1,3.22-1.61,13.5,13.5,0,0,1,3.9-.526,15.543,15.543,0,0,1,2.074.124c.712.093,1.362.217,2.013.341.619.155,1.208.31,1.765.5a6.758,6.758,0,0,1,1.3.557,2.677,2.677,0,0,1,.929.774,1.669,1.669,0,0,1,.279,1.022V5.868c0,.65-.248.991-.712.991a3.221,3.221,0,0,1-1.177-.372A14.165,14.165,0,0,0,90.113,5.28a7.992,7.992,0,0,0-4.118.867A2.99,2.99,0,0,0,84.54,8.9a2.924,2.924,0,0,0,.929,2.2,9.249,9.249,0,0,0,3.406,1.7l4.4,1.393a9.417,9.417,0,0,1,4.8,2.972A7.006,7.006,0,0,1,99.495,21.5,7.96,7.96,0,0,1,98.69,25.1a8.327,8.327,0,0,1-2.26,2.725,9.981,9.981,0,0,1-3.437,1.734A14.723,14.723,0,0,1,88.565,30.2Z" transform="translate(-8.583)" fill="#252f3e"/>
        <g id="Group_50" data-name="Group 50" transform="translate(1.668 35.807)">
          <path id="Path_300" data-name="Path 300" d="M85.834,126.746c-10.187,7.524-24.987,11.518-37.712,11.518A68.226,68.226,0,0,1,2.08,120.709c-.96-.867-.093-2.044,1.053-1.362a92.853,92.853,0,0,0,46.072,12.23,91.939,91.939,0,0,0,35.142-7.183C86.051,123.619,87.506,125.508,85.834,126.746Z" transform="translate(-1.668 -117.3)" fill="#f90" fill-rule="evenodd"/>
          <path id="Path_301" data-name="Path 301" d="M258.747,117.808c-1.3-1.672-8.608-.805-11.921-.4-.991.124-1.146-.743-.248-1.393,5.821-4.087,15.388-2.91,16.5-1.548,1.115,1.393-.31,10.961-5.759,15.543-.836.712-1.641.341-1.269-.588C257.292,126.354,260.048,119.449,258.747,117.808Z" transform="translate(-170.339 -113.192)" fill="#f90" fill-rule="evenodd"/>
        </g>
      </g>
    </g>
  </g>
</svg>
