<svg xmlns="http://www.w3.org/2000/svg" width="218" height="160" viewBox="0 0 218 160">
  <g id="_19" data-name="19" transform="translate(-375 -4000)">
    <rect id="Rectangle_186" data-name="Rectangle 186" width="218" height="160" rx="6" transform="translate(375 4000)" fill="#fff"/>
    <g id="wowza-media-systems-vector-logo" transform="translate(410.766 3832.139)">
      <path id="Path_399" data-name="Path 399" d="M22.5,247.3a14.179,14.179,0,1,1,14.179,14.3A14.25,14.25,0,0,1,22.5,247.3" transform="translate(-0.22 -0.091)" fill="#fff"/>
      <path id="Path_400" data-name="Path 400" d="M214.4,358.473v-7.786h.986v.714a2.379,2.379,0,0,1,1.8-.9,1.555,1.555,0,0,1,1.36.884,2.577,2.577,0,0,1,1.734-.884,1.524,1.524,0,0,1,1.547,1.462v6.511h-.986v-6.307a.819.819,0,0,0-.85-.935,2.009,2.009,0,0,0-1.292.629v6.613h-.969v-6.307a.827.827,0,0,0-.884-.935,2.171,2.171,0,0,0-1.445.782v6.477h-1Z" transform="translate(-159.496 -97.615)" fill="#898b8b"/>
      <path id="Path_401" data-name="Path 401" d="M267.7,353.917h2.193V353.9c-.017-1.19.136-2.737-.969-2.737-1.224,0-1.224.952-1.224,2.72Zm-1,.969V353.8c.017-2.771.918-3.3,2.176-3.3,1.428,0,1.989.986,1.989,3.077,0,.323,0,.493-.017.8h-3.162v1.19c0,2.108.442,2.414,1.173,2.414.51,0,1.037-.357,1.054-1.853v-.051h.918v.034c-.119,1.343-.476,2.516-1.955,2.516-1.6.034-2.193-.8-2.176-3.74" transform="translate(-202.902 -97.615)" fill="#898b8b"/>
      <path id="Path_402" data-name="Path 402" d="M300.564,341.627v-5.134a1.969,1.969,0,0,0-1.326-.782c-.476,0-.952.136-.952,3.077v.612c0,2.924.476,2.992.986,2.992a1.887,1.887,0,0,0,1.292-.765m0,1.326v-.731a1.872,1.872,0,0,1-1.6.918c-.731,0-1.666-.357-1.666-3.723V338.8c0-3.485.935-3.791,1.734-3.791a1.858,1.858,0,0,1,1.513.918V331.8h.986v11.187h-.969Z" transform="translate(-228.302 -82.094)" fill="#898b8b"/>
      <path id="Path_403" data-name="Path 403" d="M334.6,337.241h.986v7.786H334.6Zm0-2.941h.986v1.156H334.6Z" transform="translate(-259.26 -84.169)" fill="#898b8b"/>
      <path id="Path_404" data-name="Path 404" d="M351.828,356.892v-2.737c-1.343.935-2.142,1.53-2.142,2.6,0,.816.425,1.105.782,1.105a1.755,1.755,0,0,0,1.36-.969m.187,1.581-.119-.935a2.069,2.069,0,0,1-1.649,1.122,1.623,1.623,0,0,1-1.547-1.734c0-1,.051-1.955,3.128-3.213v-.068c0-2.278-.476-2.482-.952-2.482-.391,0-.918.153-1,1.479v.051h-1.02c.1-1.36.833-2.193,1.989-2.193,1.649,0,1.989,1.36,1.989,2.431v3.74a15.386,15.386,0,0,0,.119,1.8Z" transform="translate(-270.963 -97.615)" fill="#898b8b"/>
      <path id="Path_405" data-name="Path 405" d="M395.4,356.6l.765-.255c.221.68.748,1.683,1.547,1.683.714,0,1.037-.476,1.037-1.156,0-.629-.7-1.343-1.343-1.921l-.578-.493c-.7-.612-1.309-1.19-1.309-2.006a1.78,1.78,0,0,1,1.989-1.853c1.173,0,1.768.969,2.023,1.972l-.884.272c-.1-.646-.459-1.547-1.19-1.547a.961.961,0,0,0-.969,1.054c0,.561.442,1.02.986,1.5l.629.527a3.423,3.423,0,0,1,1.581,2.465,1.835,1.835,0,0,1-2.006,1.887A2.444,2.444,0,0,1,395.4,356.6" transform="translate(-309.724 -97.698)" fill="#898b8b"/>
      <path id="Path_406" data-name="Path 406" d="M424.772,361.424v-.8c1.071-.068,1.513-.357,1.513-.85a6.476,6.476,0,0,0-.068-.918L424.5,351.7h1.071l1.309,6.7,1.275-6.7h1.071l-1.972,8.33c-.272,1.054-1.105,1.36-2.465,1.411h-.017Z" transform="translate(-333.877 -98.611)" fill="#898b8b"/>
      <path id="Path_407" data-name="Path 407" d="M455.3,356.6l.765-.255c.221.68.748,1.683,1.547,1.683.714,0,1.037-.476,1.037-1.156,0-.629-.7-1.343-1.343-1.921l-.578-.493c-.7-.612-1.309-1.19-1.309-2.006a1.78,1.78,0,0,1,1.989-1.853c1.173,0,1.768.969,2.023,1.972l-.884.272c-.1-.646-.459-1.547-1.19-1.547a.961.961,0,0,0-.969,1.054c0,.561.442,1.02.986,1.5l.629.527a3.423,3.423,0,0,1,1.581,2.465,1.835,1.835,0,0,1-2.006,1.887A2.444,2.444,0,0,1,455.3,356.6" transform="translate(-359.44 -97.698)" fill="#898b8b"/>
      <path id="Path_408" data-name="Path 408" d="M485.088,344.022v-5.406H484v-.544h1.071V335.3h.986v2.771h1.258v.544h-1.258v5.355c0,.782.034,1.275.68,1.275a3.321,3.321,0,0,0,.578-.051v.663a3.485,3.485,0,0,1-.85.119c-1.275,0-1.377-.952-1.377-1.955" transform="translate(-383.261 -84.999)" fill="#898b8b"/>
      <path id="Path_409" data-name="Path 409" d="M509.979,353.917h2.142V353.9c-.017-1.19.136-2.737-.935-2.737-1.19,0-1.207.952-1.207,2.72Zm-.986.969V353.8c.017-2.771.9-3.3,2.125-3.3,1.394,0,1.955.986,1.955,3.077,0,.323,0,.493-.017.8h-3.094v1.19c0,2.108.425,2.414,1.156,2.414.493,0,1.02-.357,1.02-1.853v-.051h.9v.034c-.119,1.343-.476,2.516-1.921,2.516-1.564.034-2.159-.8-2.125-3.74" transform="translate(-404.004 -97.615)" fill="#898b8b"/>
      <path id="Path_410" data-name="Path 410" d="M542.8,358.473v-7.786h.969v.714a2.316,2.316,0,0,1,1.768-.9,1.53,1.53,0,0,1,1.343.884,2.48,2.48,0,0,1,1.7-.884,1.52,1.52,0,0,1,1.53,1.462v6.511h-.986v-6.307c0-.68-.391-.935-.833-.935a1.972,1.972,0,0,0-1.275.629v6.613h-.969v-6.307a.816.816,0,0,0-.867-.935,2.137,2.137,0,0,0-1.428.782v6.477H542.8Z" transform="translate(-432.065 -97.615)" fill="#898b8b"/>
      <path id="Path_411" data-name="Path 411" d="M593.7,356.6l.765-.255c.221.68.748,1.683,1.547,1.683.714,0,1.037-.476,1.037-1.156,0-.629-.7-1.343-1.343-1.921l-.578-.493c-.7-.612-1.309-1.19-1.309-2.006a1.78,1.78,0,0,1,1.989-1.853c1.173,0,1.768.969,2.023,1.972l-.884.272c-.1-.646-.459-1.547-1.19-1.547a.961.961,0,0,0-.969,1.054c0,.561.442,1.02.986,1.5l.629.527a3.422,3.422,0,0,1,1.581,2.465,1.835,1.835,0,0,1-2.006,1.887A2.444,2.444,0,0,1,593.7,356.6" transform="translate(-474.311 -97.698)" fill="#898b8b"/>
      <path id="Path_412" data-name="Path 412" d="M221.364,245.585a10,10,0,0,1,.221,1.309h.034a11.182,11.182,0,0,1,.2-1.309L223.812,237h2.261l-3.111,12.428h-2.533l-1.853-7.344a14.888,14.888,0,0,1-.306-1.632h-.034a15.715,15.715,0,0,1-.306,1.632l-1.853,7.344h-2.533L210.5,237h2.261l1.9,8.585a11.186,11.186,0,0,1,.2,1.309h.034a10,10,0,0,1,.221-1.309L217.3,237h1.9Z" transform="translate(-156.259 -3.411)" fill="#ff8400"/>
      <path id="Path_413" data-name="Path 413" d="M316.739,246.579a4.157,4.157,0,0,0,3.978-4.437,3.988,3.988,0,1,0-7.956,0,4.146,4.146,0,0,0,3.978,4.437m0-10.779a6.192,6.192,0,0,1,6.239,6.341,6.245,6.245,0,1,1-12.479,0,6.172,6.172,0,0,1,6.239-6.341" transform="translate(-239.257 -2.415)" fill="#ff8400"/>
      <path id="Path_414" data-name="Path 414" d="M403.164,245.585a10,10,0,0,1,.221,1.309h.034a11.176,11.176,0,0,1,.2-1.309L405.612,237h2.261l-3.111,12.428h-2.533l-1.853-7.344a14.882,14.882,0,0,1-.306-1.632h-.034a15.713,15.713,0,0,1-.306,1.632l-1.87,7.344h-2.533L392.3,237h2.261l1.9,8.585a11.184,11.184,0,0,1,.2,1.309h.034a10,10,0,0,1,.221-1.309L399.1,237H401Z" transform="translate(-307.151 -3.411)" fill="#ff8400"/>
      <path id="Path_415" data-name="Path 415" d="M492.2,247.966l5.355-7.905a8,8,0,0,1,.884-1.122V238.9s-.34.034-.9.034h-5.066V237h8.738v1.428l-5.355,7.922a8.008,8.008,0,0,1-.884,1.122v.034s.34-.034.9-.034h5.406v1.938H492.2Z" transform="translate(-390.067 -3.411)" fill="#ff8400"/>
      <path id="Path_416" data-name="Path 416" d="M557.389,239.076s-.272,1.224-.51,1.921l-1.071,3.332h3.162L557.9,241c-.221-.7-.476-1.921-.476-1.921Zm2.125,7.072h-4.233l-1.02,3.179H552l4.25-12.428h2.3l4.25,12.428h-2.261Z" transform="translate(-439.7 -3.328)" fill="#ff8400"/>
      <path id="Path_417" data-name="Path 417" d="M602.7,237.072h-.6V236.8h1.513v.272h-.6v1.547H602.7Z" transform="translate(-481.283 -3.245)" fill="#ff8400"/>
      <path id="Path_418" data-name="Path 418" d="M611.336,236.8h.357l.357.9c.034.1.085.272.085.272h0s.051-.153.085-.272l.357-.9h.357l.136,1.819h-.323l-.085-1.02v-.289h0s-.051.17-.1.289l-.289.7h-.289l-.289-.7a2.042,2.042,0,0,1-.1-.289h0v.289l-.068,1.02H611.2Z" transform="translate(-488.836 -3.245)" fill="#ff8400"/>
      <path id="Path_419" data-name="Path 419" d="M32.616,260.378c-.646.255-1.394.85-2.074.272s-.085-1.768-.085-1.768,5.1-12.037,5.389-13.346c.238-1.105-.374-1.02-1.071-.391-.408.357-5.78,5.066-6.579,5.474-.544.272-1.224.544-1.683.085s.068-1.564.068-1.564L32.174,236.9c-.357.119-.7.238-1.054.374a14.358,14.358,0,0,0-7.837,18.667,14.18,14.18,0,0,0,18.531,7.905,14.364,14.364,0,0,0,8.891-13.261c-6.324,3.451-17.7,9.64-18.089,9.793" transform="translate(0 -3.328)" fill="#ff8400"/>
      <path id="Path_420" data-name="Path 420" d="M86.163,232.926c-1.258,2.686-2.941,6.358-2.873,6.8.119.7.884.068.884.068s5.066-4.335,6.018-4.913c.952-.561,1.241.238,1.105.731-.1.374-3.094,8.092-2.975,8.959.153.969,1.207.153,1.581-.136.289-.221,7.633-7.021,7.633-7.021a14.261,14.261,0,0,0-11.374-4.488" transform="translate(-50.674)" fill="#ff8400"/>
    </g>
  </g>
</svg>
