<svg xmlns="http://www.w3.org/2000/svg" width="218" height="160" viewBox="0 0 218 160">
  <g id="_2" data-name="2" transform="translate(-375 -4000)">
    <rect id="Rectangle_186" data-name="Rectangle 186" width="218" height="160" rx="6" transform="translate(375 4000)" fill="#fff"/>
    <g id="Group_3756" data-name="Group 3756" transform="translate(444.476 4037.334)">
      <path id="Path_294" data-name="Path 294" d="M0,14.16,39.711,0,80.468,13.914,73.88,66.431l-34.17,18.9L6.1,66.677,0,14.16Z" fill="#e23237" fill-rule="evenodd"/>
      <path id="Path_295" data-name="Path 295" d="M105.257,13.914,64.5,0V85.332l34.17-18.9,6.588-52.517Z" transform="translate(-24.789)" fill="#b52e31" fill-rule="evenodd"/>
      <path id="Path_296" data-name="Path 296" d="M49.15,16.2h0L24.4,71.241l9.235-.185L38.622,58.62h22.1l5.418,12.56,8.8.185L49.15,16.2Zm.062,17.67,8.373,17.485h-15.7L49.211,33.87Z" transform="translate(-9.378 -6.226)" fill="#fff" fill-rule="evenodd"/>
    </g>
  </g>
</svg>
