<svg xmlns="http://www.w3.org/2000/svg" xmlns:xlink="http://www.w3.org/1999/xlink" width="218" height="160" viewBox="0 0 218 160">
  <defs>
    <linearGradient id="linear-gradient" x1="-1.684" y1="-1.818" x2="-1.683" y2="-1.818" gradientUnits="objectBoundingBox">
      <stop offset="0" stop-color="#909ca9"/>
      <stop offset="1" stop-color="#ededee"/>
    </linearGradient>
    <linearGradient id="linear-gradient-2" x1="-3.591" y1="-2.94" x2="-3.589" y2="-2.94" gradientUnits="objectBoundingBox">
      <stop offset="0" stop-color="#939fab"/>
      <stop offset="1" stop-color="#dcdee1"/>
    </linearGradient>
    <radialGradient id="radial-gradient" cx="0.443" cy="0.439" r="0.128" gradientTransform="matrix(-0.69, -0.149, -0.208, 1.978, -2.333, 0.818)" gradientUnits="objectBoundingBox">
      <stop offset="0" stop-color="#ee352c"/>
      <stop offset="1" stop-color="#a91d22"/>
    </radialGradient>
  </defs>
  <g id="_20" data-name="20" transform="translate(-375 -4000)">
    <rect id="Rectangle_186" data-name="Rectangle 186" width="218" height="160" rx="6" transform="translate(375 4000)" fill="#fff"/>
    <g id="Group_70" data-name="Group 70" transform="translate(-399 -3038)">
      <rect id="Rectangle_156" data-name="Rectangle 156" width="102" height="102" transform="translate(831 7066)" fill="none"/>
      <g id="Microsoft_SQL_Server" data-name="Microsoft SQL Server" transform="translate(766.403 6975.266)">
        <path id="Path_425" data-name="Path 425" d="M229.587,196.4l-10.669,3.495-9.292,4.1-2.594.688c-.662.635-1.35,1.271-2.118,1.906-.821.715-1.588,1.35-2.171,1.827a17.6,17.6,0,0,0-2.118,2.091,9.258,9.258,0,0,0-1.562,2.647,4.384,4.384,0,0,0,.635,4,13.979,13.979,0,0,0,5.824,4.368,37.616,37.616,0,0,0,5.136,1.721,67.572,67.572,0,0,0,10.934,1.562,11.318,11.318,0,0,0,1.4,0,18.614,18.614,0,0,0,1.032-1.986,50.533,50.533,0,0,0,3.786-10.007,49.383,49.383,0,0,0,.98-6.936c.053-.794.079-3.415.026-4.289a35.508,35.508,0,0,0-.4-3.786c-.026-.159-.053-.318-.026-.318a13.473,13.473,0,0,1,1.456-.424l-.265-.662Zm-2.436,1.43a26.936,26.936,0,0,1,.424,4.051,3.182,3.182,0,0,1,0,.556c-.053,0-1.35-.768-2.3-1.35-.794-.5-2.33-1.535-2.568-1.721-.079-.053-.079-.053.582-.291C224.4,198.677,227.046,197.83,227.152,197.83Zm-5.454,1.8a2.781,2.781,0,0,1,.715.371,52.391,52.391,0,0,0,4.9,2.727c.291.132.318.079-.344.556a33.9,33.9,0,0,1-5.533,2.965,7.6,7.6,0,0,1-.741.318,1.227,1.227,0,0,1,.106-.45,25.076,25.076,0,0,0,.874-5.665c-.053-.821-.053-.821.026-.821Zm-1.112.424a14.858,14.858,0,0,1-.053,2.356,19.936,19.936,0,0,1-.741,3.521,2.362,2.362,0,0,1-.185.556,13.518,13.518,0,0,1-1.509-1.456,10.559,10.559,0,0,1-1.483-2.171,7.962,7.962,0,0,1-.45-1.085C216.3,201.668,220.559,200.027,220.586,200.053Zm-5.268,2.065h0a.5.5,0,0,1,.132.291,10.188,10.188,0,0,0,1.35,2.383,15.313,15.313,0,0,0,1.853,2.012c.185.159.371.318.4.344.053.053.053.053-1.244.529-1.535.582-3.177,1.165-5.083,1.774-.45.159-.9.291-1.35.45-.079.026-.053-.026.159-.344a42.843,42.843,0,0,0,3.177-6.433c.132-.344.265-.715.291-.794a.3.3,0,0,1,.185-.212C215.238,202.145,215.291,202.118,215.318,202.118Zm-1.615.662c.026.026-.4.874-.794,1.668-.794,1.535-1.641,3.018-2.78,4.845-.185.318-.371.609-.4.635-.053.053-.053.053-.185-.212a7.113,7.113,0,0,1-.609-1.88,6.727,6.727,0,0,1,.053-2.409c.106-.5.106-.5.344-.609C210.314,204.316,213.65,202.754,213.7,202.78Zm13.9.582v.344a42.517,42.517,0,0,1-.477,6.063,3.192,3.192,0,0,1-.106.582s-.238-.053-.5-.132a19.537,19.537,0,0,1-3.706-1.588,13.531,13.531,0,0,1-1.88-1.165l.741-.4a48.753,48.753,0,0,0,4.421-2.594c.5-.318,1.244-.874,1.4-1.006Zm-19.988,2.383c.026,0,.026.053-.026.344a8.224,8.224,0,0,0-.079.874,6.042,6.042,0,0,0,.715,3.23c.159.318.291.609.291.609-.053.053-5.4,1.615-7.069,2.065-.5.132-.927.265-.98.265-.053.026-.053,0-.053-.132a8.47,8.47,0,0,1,2.356-4.051,10.831,10.831,0,0,1,2.647-2.039c.821-.424,2.065-1.138,2.2-1.165ZM220.189,208s.212.106.424.238a24.123,24.123,0,0,0,6.168,2.409l.185.053-.265.132c-1.085.609-4.606,2.065-8.207,3.415-.53.185-1.033.4-1.138.424a.457.457,0,0,1-.185.053s.132-.291.318-.635a41.525,41.525,0,0,0,2.542-5.771,2.84,2.84,0,0,0,.159-.318Zm-1.271.424a3.534,3.534,0,0,1-.132.371,52.772,52.772,0,0,1-2.806,5.639c-.291.529-.556.953-.556.953s-.238-.132-.529-.318a15.979,15.979,0,0,1-4.209-3.6l-.132-.185.741-.212a52.961,52.961,0,0,0,7.1-2.436A4.983,4.983,0,0,1,218.918,208.419Zm7.969,2.78h0c0,.185-.4,1.853-.741,3.045-.291,1.006-.529,1.8-.98,3.2-.185.609-.371,1.112-.371,1.112a.264.264,0,0,1-.106-.026,32.192,32.192,0,0,1-6.566-1.853c-.556-.238-1.377-.582-1.43-.635a7.691,7.691,0,0,1,1.085-.5c3.68-1.615,7.466-3.415,8.789-4.209A1.573,1.573,0,0,1,226.887,211.2Zm-18.4.635c.026.026-1.006,1.483-2.436,3.495-.5.715-1.085,1.535-1.3,1.827-.212.318-.556.794-.741,1.085l-.344.53-.371-.318a13.778,13.778,0,0,1-1.509-1.535,6.806,6.806,0,0,1-1.35-2.594c-.079-.4-.079-.582,0-.609.132-.026,2.277-.529,4.289-1.006,1.112-.265,2.409-.556,2.886-.688C208.09,211.914,208.461,211.834,208.487,211.834Zm1.033.4.265.291a15.552,15.552,0,0,0,3.786,3.1c.265.132.45.265.424.291-.053.053-4.977,1.8-7.28,2.568-1.271.45-2.33.821-2.356.821l-.159-.106-.132-.106.238-.344c.768-1.085,1.721-2.3,3.786-4.792l1.43-1.721Zm6.433,4.606s.371.132.794.291a28.006,28.006,0,0,0,2.992.927,35.528,35.528,0,0,0,4.527.794c.185.026.265.026.238.053-.053.026-1.244.424-2.118.715-1.377.424-5.612,1.694-9.081,2.674-.635.185-1.191.344-1.218.344a.6.6,0,0,1-.344-.079,3.562,3.562,0,0,1,.424-.529,51.2,51.2,0,0,0,3.283-4.395A7.647,7.647,0,0,1,215.953,216.838Zm-1.43.026s-.556.927-1.562,2.515c-.424.662-.9,1.43-1.085,1.694-.159.265-.4.662-.529.9l-.238.424-.132-.026c-.291-.079-2.33-.794-2.859-1.006a17.934,17.934,0,0,1-1.88-.874,8.35,8.35,0,0,1-1.377-.874c.026,0,1.112-.318,2.462-.662,3.521-.953,5.48-1.509,6.777-1.933A2.339,2.339,0,0,1,214.523,216.864Zm10.034,2.356h0c.053.079-1.271,3.706-1.747,4.845-.106.265-.132.318-.212.318-.132,0-2.038-.265-3.177-.45-2.012-.318-5.374-.9-6.221-1.085l-.185-.053,1.191-.265c2.594-.582,3.812-.9,5.083-1.271a34.842,34.842,0,0,0,4.739-1.827A4.988,4.988,0,0,1,224.557,219.221Z" transform="translate(-96.493 -69.042)" fill="url(#linear-gradient)"/>
        <path id="Path_426" data-name="Path 426" d="M241.049,102.5a51.584,51.584,0,0,0-4.9,1.747,29.207,29.207,0,0,0-5.613,2.833,4.119,4.119,0,0,0-1.085,1.085.94.94,0,0,0-.053.265l1.085,1.032,2.568.821,6.115,1.085,6.989,1.191.079-.609h-.053l-.927-.132-.185-.318c-.953-1.668-2.012-3.759-2.621-5.162a24.574,24.574,0,0,1-1.165-3.256c-.132-.556-.159-.582-.238-.582Zm-.132.4h0a1.793,1.793,0,0,1,.079.5,16.086,16.086,0,0,0,.794,3.389c.291.9.291.847-.053.741-.821-.238-4.5-.874-7.174-1.244a4.207,4.207,0,0,1-.794-.132c-.026-.026,1.933-1.059,2.78-1.456C237.66,104.193,240.7,102.949,240.916,102.9Zm-7.783,3.627.318.106a47.355,47.355,0,0,0,8.392,1.588c.265.026.5.053.5.053a4.8,4.8,0,0,1-.5.265c-1.138.582-2.409,1.271-3.283,1.827a4.377,4.377,0,0,1-.529.291c-.026,0-.212-.026-.371-.053l-.318-.053-.794-.794c-1.43-1.377-2.542-2.436-2.965-2.859Zm-.318.238,1.138,1.43c.609.794,1.244,1.535,1.377,1.721.132.159.238.318.238.318-.026.026-1.641-.291-2.489-.477a17.319,17.319,0,0,1-1.774-.477l-.45-.132v-.106c0-.529.688-1.35,1.853-2.171Zm9.663,1.933c.026,0,.079.079.159.291.265.609,1.138,2.224,1.35,2.542.053.106.185.106-.953-.079-2.727-.45-3.6-.582-3.6-.609,0,0,.079-.053.185-.132a16.961,16.961,0,0,0,2.462-1.694,3.856,3.856,0,0,1,.4-.318Z" transform="translate(-118.967 0)" fill="url(#linear-gradient-2)"/>
        <path id="Path_427" data-name="Path 427" d="M218.109,123.4a.788.788,0,0,0,0,.715,3.156,3.156,0,0,0,.768.9s3.6,3.495,4.024,4a11.234,11.234,0,0,1,2.939,7.651,12.192,12.192,0,0,1-1.271,5.8q-2.5,5.48-10.669,12.178l.794-.265a23.032,23.032,0,0,1,2.859-1.694,100.4,100.4,0,0,1,13.316-5.957,167.12,167.12,0,0,1,27.03-7.254l.741-.106-.106-.185a22.868,22.868,0,0,0-1.615-2.277,19.031,19.031,0,0,0-5.718-4.765,42.338,42.338,0,0,0-12.443-4.183c-.98-.185-3.124-.556-4.871-.821-3.706-.582-6.089-.98-8.71-1.43-.953-.159-2.356-.4-3.283-.609a19.439,19.439,0,0,1-2.144-.582C219.115,124.327,218.295,124.088,218.109,123.4Zm2.091,2.038s.132.053.318.106c.318.106.715.238,1.165.344.344.106.715.185,1.059.291.477.132.9.238.9.238.053.053.874,2.674,1.138,3.653.106.371.185.715.185.715a2.731,2.731,0,0,1-.212-.318,17.252,17.252,0,0,0-4.156-4.712C220.36,125.571,220.2,125.438,220.2,125.438Zm3.971,1.085a2.5,2.5,0,0,1,.424.079c1.377.318,3.839.768,5.4,1.033a2.109,2.109,0,0,1,.477.106c0,.026-.106.079-.212.132-.265.132-1.35.768-1.694,1.006a15.9,15.9,0,0,0-2.277,1.827l-.424.424a1.523,1.523,0,0,1-.079-.318,25.651,25.651,0,0,0-1.456-3.945c-.106-.159-.185-.344-.159-.344Zm6.963,1.324a3,3,0,0,1,.291.9,14.465,14.465,0,0,1,.4,3.706,5.745,5.745,0,0,1-.053.688l-.026.079-.424-.132c-.874-.265-2.277-.688-3.468-1.032a10.6,10.6,0,0,1-1.244-.371,17.52,17.52,0,0,1,1.43-1.43C228.858,129.542,231.082,127.821,231.135,127.848Zm.556.079c.026-.026,3.336.556,4.845.847,1.112.212,2.753.556,2.859.609.053.026-.132.106-.662.344a37.5,37.5,0,0,0-5.295,2.859c-.424.265-.768.5-.768.5s-.026-.238-.026-.5a11.516,11.516,0,0,0-.874-4.395C231.743,128.059,231.691,127.954,231.691,127.927Zm8.578,1.694a5.09,5.09,0,0,1-.185,1.059,20.616,20.616,0,0,1-2.038,4.659,4.716,4.716,0,0,1-.344.556,2.4,2.4,0,0,1-.477-.265,24.94,24.94,0,0,0-3.15-1.535,4.276,4.276,0,0,1-.609-.265,46.1,46.1,0,0,1,3.918-2.594C238.468,130.574,240.242,129.595,240.268,129.621Zm.609.106c.079,0,1.535.4,2.3.635a41.571,41.571,0,0,1,5.48,2.012l.582.265-.424.106a59.063,59.063,0,0,0-9.292,2.886c-.238.106-.45.185-.45.185a1.366,1.366,0,0,1,.159-.424,15.9,15.9,0,0,0,1.562-5.374,2.714,2.714,0,0,0,.079-.291Zm-14.614,3.362a14.682,14.682,0,0,1,1.747.424c.927.265,2.859.9,2.859.953,0,0-.212.185-.477.424-1.059.874-2.065,1.8-3.283,2.992-.371.344-.662.635-.688.635s-.026-.053-.026-.106a19.094,19.094,0,0,0-.106-4.871A3.522,3.522,0,0,0,226.263,133.09Zm23.562.026c.026.026-.529.847-.847,1.324-.477.688-1.191,1.615-2.806,3.627-.847,1.059-1.8,2.277-2.118,2.674s-.582.741-.609.741c0,0-.106-.132-.238-.318a16.8,16.8,0,0,0-3.256-3.6,4.411,4.411,0,0,0-.609-.477,1.237,1.237,0,0,1-.159-.132c0-.026,1.377-.609,2.409-1.032,1.827-.741,4.315-1.641,6.168-2.2A18.761,18.761,0,0,1,249.825,133.116Zm.635.159a1.426,1.426,0,0,1,.45.238,26.915,26.915,0,0,1,5.4,4.051c.424.424,1.483,1.509,1.456,1.535,0,0-.371.026-.794.053a80.812,80.812,0,0,0-11.913,1.986c-.291.053-.529.132-.556.132a6.866,6.866,0,0,1,.688-.688,20.572,20.572,0,0,0,4.9-6.513,6.2,6.2,0,0,1,.371-.794ZM232.485,135.1c.106.026,1.165.529,1.959.9.715.371,1.827.953,1.88.98,0,0-.371.212-.847.45-1.509.768-2.806,1.483-4.183,2.3-.4.238-.715.424-.715.424-.026,0-.026-.026.185-.424a17.872,17.872,0,0,0,1.641-4.448C232.432,135.181,232.458,135.1,232.485,135.1Zm-1.033.212a12.36,12.36,0,0,1-.424,1.562,19.887,19.887,0,0,1-1.43,3.283c-.132.238-.318.556-.424.741l-.212.318-.45-.424A6.313,6.313,0,0,0,227,139.682a1.533,1.533,0,0,1-.4-.238c0-.053,1.377-1.324,2.436-2.224C229.811,136.558,231.426,135.287,231.452,135.313Zm6.407,2.621.4.265a30.219,30.219,0,0,1,2.78,2.065c.45.371,1.35,1.165,1.535,1.377l.106.106-.662.185c-3.706,1.032-6.539,1.933-9.875,3.15-.371.132-.688.238-.715.238-.053,0-.079.053.741-.715a36.388,36.388,0,0,0,5.427-6.221Zm-1.694.424c.026.026-1.085,1.562-1.747,2.462-.794,1.059-2.2,2.806-3.15,3.945a10.593,10.593,0,0,1-.768.874c-.026,0-.026-.106-.026-.291a6.627,6.627,0,0,0-.688-2.912c-.185-.371-.212-.45-.185-.5.159-.132,2.489-1.483,4-2.277.98-.529,2.542-1.324,2.568-1.3Zm-10.193,2.489c.026,0,.212.106.424.212a11.328,11.328,0,0,1,1.377.927c.026.026-.185.185-.477.4-.768.556-1.933,1.43-2.594,1.959-.715.556-.741.582-.662.45a17.837,17.837,0,0,0,1.085-1.853c.238-.529.5-1.138.688-1.694A.994.994,0,0,1,225.972,140.846Zm2.727,2.144c.053,0,.079.053.318.4a5.873,5.873,0,0,1,.9,2.356l.026.159-1.112.424c-1.986.768-3.812,1.535-5.03,2.091-.344.159-.953.45-1.35.635-.4.212-.715.344-.715.344s.238-.185.556-.424a32.847,32.847,0,0,0,6.063-5.586,2.094,2.094,0,0,1,.344-.4Zm-1.244.291A21.03,21.03,0,0,1,225.946,145a27.47,27.47,0,0,1-5,4.051c-.238.159-.45.291-.477.318-.053.026.026-.053.847-.953.529-.582.927-1.059,1.4-1.641a3.137,3.137,0,0,1,.794-.768C224.675,145.109,227.4,143.256,227.455,143.282Z" transform="translate(-107.571 -15.368)" fill="url(#radial-gradient)"/>
        <path id="Path_428" data-name="Path 428" d="M84.938,304.627c-.159,0-.291.026-.45.026a6.638,6.638,0,0,0-6.221,4.077,10.808,10.808,0,0,0,0,7.73c1.059,2.3,2.78,3.521,5.639,3.971.609.106,1.006.424,2.2,1.8l1.456,1.694H90.18l-1.747-1.747a18.273,18.273,0,0,1-1.747-1.88c0-.079.371-.238.821-.371a5.963,5.963,0,0,0,3.548-3.336,7.09,7.09,0,0,0,.9-3.574c.265-5.189-2.462-8.419-7.016-8.392Zm2.3,13.555a6.189,6.189,0,0,1-4.342.291,5.608,5.608,0,0,1-3.018-3.23,8.971,8.971,0,0,1,.185-5.9,5,5,0,0,1,4.739-3.1c3.177,0,5,1.959,5.242,5.613.185,3.071-.847,5.374-2.806,6.327Zm45.3-9.134a2.831,2.831,0,0,0-2.515,1.324l-.45.688v-1.8h-1.906v10.828h1.906V316.62c0-3.177.026-3.548.477-4.395a2.408,2.408,0,0,1,2.674-1.509l.688.185v-1.88l-.874.026Zm-11.172-.106a6.047,6.047,0,0,0-1.165.132,6.348,6.348,0,0,0-2.462,9.875c2.065,1.694,3.945,1.827,6.486.927.424-.185.9-.4.9-.4v-1.694l-.9.477c-2.039.9-3.6.9-4.845-.159a4.832,4.832,0,0,1-1.3-2.859h7.677v-1.456c0-2.992-1.8-4.871-4.395-4.845Zm-3.1,4.765a4.57,4.57,0,0,1,1.324-2.594,2.965,2.965,0,0,1,1.668-.529,2.6,2.6,0,0,1,1.615.556,4.361,4.361,0,0,1,1.138,2.568Zm-45.906-1.959c-2.065-1.244-2.992-2.144-2.859-3.2.318-2.939,3.945-2.542,5.957-1.43l.026-1.986a7.83,7.83,0,0,0-2.7-.5c-2.436-.026-4.024.768-4.765,2.409-1.085,2.409-.132,4.236,3.362,6.248,1.959,1.138,2.833,2.118,2.833,3.2,0,2.224-2.674,2.992-5.454,1.615-.582-.291-1.059-.529-1.085-.529a16.18,16.18,0,0,0-.053,2.144,13.523,13.523,0,0,0,2.118.609c3.177.635,6.036-.847,6.327-3.256.212-2.277-.609-3.468-3.706-5.321Zm77.04-2.806a6.046,6.046,0,0,0-1.165.132,5.446,5.446,0,0,0-3.892,5.613c0,2.091.4,3.15,1.43,4.236,2.065,1.694,3.945,1.853,6.513.927.424-.185.9-.4.9-.4v-1.694l-.9.477c-2.065.9-3.6.9-4.845-.159a4.762,4.762,0,0,1-1.3-2.859H153.8v-1.456c0-2.992-1.8-4.871-4.395-4.818Zm-3.124,4.739a4.571,4.571,0,0,1,1.324-2.594,2.754,2.754,0,0,1,1.641-.53,2.654,2.654,0,0,1,1.615.556A4.361,4.361,0,0,1,152,313.682Zm-34.893-1.906c-2.065-1.244-2.965-2.144-2.859-3.2.318-2.939,3.945-2.542,5.957-1.43l.026-1.986a7.831,7.831,0,0,0-2.7-.5c-2.436-.026-4.024.768-4.765,2.409-1.085,2.409-.106,4.236,3.362,6.248,1.959,1.138,2.806,2.118,2.806,3.177,0,2.224-2.674,3.018-5.454,1.615-.556-.291-1.059-.529-1.085-.529a16.182,16.182,0,0,0-.053,2.144,13.524,13.524,0,0,0,2.118.609c3.177.635,6.036-.847,6.327-3.256.238-2.25-.582-3.442-3.68-5.295Zm49.189-2.753a2.8,2.8,0,0,0-2.515,1.324l-.45.688v-1.8H155.7v10.828h1.906V316.62c0-3.177.026-3.548.477-4.395a2.358,2.358,0,0,1,2.674-1.483l.688.185v-1.88l-.874-.026Zm-64.332,2.7v-6.91H94.337v15.276h8.075v-1.8H96.269l-.026-6.566Zm44.4,2.144-1.588,4.1-1.509-4.13-1.536-4.58h-1.959c1.271,3.6,2.647,7.28,4.051,10.828.609.026,1.218,0,1.827,0l2.144-5.374,2.171-5.48h-1.88c-.026.026-.847,2.2-1.721,4.633ZM100.69,300.656a1.086,1.086,0,0,0,.768-1.853,1.1,1.1,0,0,0-.768-.291.979.979,0,0,0-.768.318,1.06,1.06,0,0,0-.318.768.979.979,0,0,0,.318.768,1.059,1.059,0,0,0,.768.291ZM100,298.882a.9.9,0,0,1,.688-.265.938.938,0,0,1,.688.265.918.918,0,0,1,.291.688.961.961,0,0,1-.291.688,1.027,1.027,0,0,1-1.377,0,.961.961,0,0,1-.291-.688A1.084,1.084,0,0,1,100,298.882Zm.45.794h.132c.079,0,.185.079.238.238l.159.344h.238l-.185-.371a.475.475,0,0,0-.238-.265.5.5,0,0,0,.265-.132.37.37,0,0,0,.079-.238.34.34,0,0,0-.106-.265.549.549,0,0,0-.4-.106h-.4v1.377h.185l.026-.582Zm0-.635h.185a.57.57,0,0,1,.265.053c.053.026.053.079.053.185,0,.159-.106.238-.291.238h-.212v-.477Zm-31.689.5c0-.477-.026-.847-.026-1.059h0a3.771,3.771,0,0,0,.159.556l1.853,4.1h.318l1.853-4.156a2.606,2.606,0,0,0,.159-.529H73.1c-.026.424-.053.768-.053,1.059v3.627h.635v-5.4h-.794l-1.721,3.786c-.053.159-.159.371-.265.662H70.88a4.055,4.055,0,0,0-.238-.635l-1.668-3.786h-.847v5.4h.609l.026-3.627Zm6.274.026h.556v3.362h-.556Zm.265-1.244a.4.4,0,0,0,.291-.106.379.379,0,0,0,.132-.291.337.337,0,0,0-.132-.291.453.453,0,0,0-.582,0,.425.425,0,0,0-.132.291.31.31,0,0,0,.132.291.4.4,0,0,0,.291.106Zm4.156,4.659V302.4a1.616,1.616,0,0,1-.953.344,1.22,1.22,0,0,1-.953-.4,1.515,1.515,0,0,1-.371-1.059,1.608,1.608,0,0,1,.371-1.112,1.259,1.259,0,0,1,.953-.4,1.736,1.736,0,0,1,.927.291v-.662a1.956,1.956,0,0,0-.9-.185,1.84,1.84,0,0,0-1.456.582,2.205,2.205,0,0,0-.529,1.536,1.88,1.88,0,0,0,.5,1.377,1.739,1.739,0,0,0,1.324.556A2.188,2.188,0,0,0,79.458,302.986Zm1.562-1.774a1.794,1.794,0,0,1,.291-1.059.818.818,0,0,1,.635-.344.643.643,0,0,1,.477.132v-.635a1.227,1.227,0,0,0-.371-.053.925.925,0,0,0-.582.212,1.309,1.309,0,0,0-.424.662H81.02v-.794h-.609V303.2h.609v-1.986Zm3.548,2.039a1.834,1.834,0,0,0,1.4-.556,2.114,2.114,0,0,0,.529-1.483,2.169,2.169,0,0,0-.477-1.483,1.665,1.665,0,0,0-1.35-.529,2.017,2.017,0,0,0-1.4.5,2.126,2.126,0,0,0-.556,1.562,2.009,2.009,0,0,0,.5,1.43,1.681,1.681,0,0,0,1.35.556Zm-.874-3.124a1.278,1.278,0,0,1,.927-.371,1.235,1.235,0,0,1,.927.371,1.741,1.741,0,0,1,.344,1.112,1.61,1.61,0,0,1-.318,1.085,1.128,1.128,0,0,1-.927.4,1.219,1.219,0,0,1-.953-.4,1.529,1.529,0,0,1-.344-1.085A1.382,1.382,0,0,1,83.694,300.127Zm5.48,2.806a1.031,1.031,0,0,0,.371-.794.978.978,0,0,0-.291-.715,1.951,1.951,0,0,0-.715-.424,3.322,3.322,0,0,1-.582-.318.5.5,0,0,1-.159-.4.4.4,0,0,1,.185-.371.763.763,0,0,1,.5-.159,1.423,1.423,0,0,1,.874.265v-.609a1.7,1.7,0,0,0-.821-.185,1.453,1.453,0,0,0-.98.318,1.069,1.069,0,0,0-.132,1.483,1.81,1.81,0,0,0,.688.424,2.081,2.081,0,0,1,.635.371.481.481,0,0,1,.159.371c0,.371-.238.556-.741.556a1.573,1.573,0,0,1-1.006-.371v.662a1.819,1.819,0,0,0,.953.238,1.74,1.74,0,0,0,1.059-.344Zm2.939-3.706a2.017,2.017,0,0,0-1.4.5,2.126,2.126,0,0,0-.556,1.562,2.009,2.009,0,0,0,.5,1.43,1.776,1.776,0,0,0,1.377.556,1.835,1.835,0,0,0,1.4-.556,2.114,2.114,0,0,0,.529-1.483,2.169,2.169,0,0,0-.477-1.483,1.758,1.758,0,0,0-1.377-.529Zm1.218,2.012a1.61,1.61,0,0,1-.318,1.085,1.128,1.128,0,0,1-.927.4,1.219,1.219,0,0,1-.953-.4,1.529,1.529,0,0,1-.344-1.085,1.634,1.634,0,0,1,.371-1.138,1.278,1.278,0,0,1,.927-.371,1.176,1.176,0,0,1,.9.371,1.628,1.628,0,0,1,.344,1.138ZM95,303.171h.609v-3.336h.9v-.529h-.9v-.582c0-.529.212-.821.635-.821a.638.638,0,0,1,.4.106v-.556a1.388,1.388,0,0,0-1.271.265,1.259,1.259,0,0,0-.4,1.006v.635H94.31v.529h.662L95,303.171Zm2.542-1.059c0,.741.344,1.138,1.006,1.138a1,1,0,0,0,.582-.132v-.529a.65.65,0,0,1-.4.132.582.582,0,0,1-.45-.159.947.947,0,0,1-.132-.556v-2.171h.98v-.529h-.98v-1.138c-.212.079-.424.132-.609.185v.927h-.662v.529h.662v2.3Zm66.318,7.122a1.1,1.1,0,0,0-.768-.291.979.979,0,0,0-.768.318,1.06,1.06,0,0,0-.318.768,1.018,1.018,0,0,0,.318.768,1.153,1.153,0,0,0,.768.291A1.085,1.085,0,0,0,164.175,310a.9.9,0,0,0-.318-.768Zm-.079,1.456a.9.9,0,0,1-.688.265.937.937,0,0,1-.688-.265.961.961,0,0,1-.291-.688.937.937,0,0,1,.265-.688.9.9,0,0,1,.688-.265.937.937,0,0,1,.688.265.961.961,0,0,1,.291.688A.938.938,0,0,1,163.778,310.69Zm-.556-.635a.828.828,0,0,0,.265-.132.37.37,0,0,0,.079-.238.34.34,0,0,0-.106-.265.55.55,0,0,0-.4-.106h-.4v1.377h.185v-.582h.132q.119,0,.238.238l.159.344h.238l-.185-.371a.588.588,0,0,0-.212-.265Zm-.132-.132h-.212v-.45h.185a.57.57,0,0,1,.265.053c.053.026.053.079.053.185-.026.159-.106.212-.291.212Zm-34.5-10.775h.185v-1.377h.45v-.185h-1.085v.185h.45v1.377Zm1.033-1.033V297.8a.224.224,0,0,0,.053.159l.529,1.191h.079l.53-1.191c.026-.026.026-.079.053-.159v1.35h.185v-1.562h-.212l-.477,1.085c0,.026-.053.106-.079.212h-.026a.352.352,0,0,0-.079-.185l-.477-1.085h-.238v1.562h.185l-.026-1.059Z" transform="translate(0 -143.303)" fill="#231f1f"/>
      </g>
    </g>
  </g>
</svg>
