<svg xmlns="http://www.w3.org/2000/svg" width="218" height="160" viewBox="0 0 218 160">
  <g id="_21" data-name="21" transform="translate(-375 -4000)">
    <rect id="Rectangle_186" data-name="Rectangle 186" width="218" height="160" rx="6" transform="translate(375 4000)" fill="#fff"/>
    <g id="Group_72" data-name="Group 72" transform="translate(-554 -2885)">
      <g id="g10" transform="translate(991 7261.855)">
        <g id="g3393" transform="translate(0 -311.855)">
          <path id="path22" d="M24.494-262.667a10.671,10.671,0,0,1-10.548,10.789A10.671,10.671,0,0,1,3.4-262.667a10.671,10.671,0,0,1,10.548-10.789,10.671,10.671,0,0,1,10.548,10.789" transform="translate(-3.071 277.159)" fill="#d33833" fill-rule="evenodd"/>
          <path id="path24" d="M2.584-253.594s-.764-11.251,9.6-11.573l-.723-1.206-5.626,1.889-1.607,1.848-1.406,2.692-.8,3.134.241,2.09" transform="translate(-1.827 270.759)" fill="#ef3d3a"/>
          <path id="path26" d="M3.651-272.719a10.552,10.552,0,0,0-3,7.4h0a10.552,10.552,0,0,0,3,7.4h0a10.069,10.069,0,0,0,7.224,3.061h0a10.069,10.069,0,0,0,7.224-3.061h0a10.552,10.552,0,0,0,3-7.4h0a10.553,10.553,0,0,0-3-7.4h0a10.071,10.071,0,0,0-7.224-3.061h0a10.071,10.071,0,0,0-7.224,3.061ZM3.183-257.46A11.208,11.208,0,0,1,0-265.318H0a11.209,11.209,0,0,1,3.183-7.858h0a10.726,10.726,0,0,1,7.693-3.259h0a10.725,10.725,0,0,1,7.693,3.259h0a11.207,11.207,0,0,1,3.183,7.858h0a11.207,11.207,0,0,1-3.183,7.858h0a10.727,10.727,0,0,1-7.693,3.259h0a10.728,10.728,0,0,1-7.693-3.259h0" transform="translate(0 279.851)" fill="#231f20"/>
          <path id="path28" d="M52.644-293.106l-1.607.241-2.17.241-1.406.04-1.366-.04-1.045-.321-.924-1L43.4-296l-.161-.442-.964-.321-.563-.924-.4-1.326.442-1.165,1.045-.362.844.4.4.884.482-.08.161-.2-.161-.924-.04-1.165.241-1.607-.009-.918.733-1.171,1.286-.924,2.25-.964,2.491.362,2.17,1.567,1,1.607.643,1.165.161,2.893-.482,2.491-.884,2.21-.844,1.165" transform="translate(-37.328 307.658)" fill="#f0d6b7" fill-rule="evenodd"/>
          <path id="path30" d="M38.478-159.28l-5.746.241v.964l.482,3.375-.241.281-4.018-1.366-.281-.482-.4-4.541-.924-2.732-.2-.643,3.215-2.21,1-.4.884,1.085.763.683.884.281.4.121.482,2.089.362.442.924-.321-.643,1.246,3.5,1.647-.442.241" transform="translate(-24.528 180.783)" fill="#335061" fill-rule="evenodd"/>
          <path id="path32" d="M44.389-296.79l1.045-.362.844.4.4.884.482-.08.121-.482-.241-.924.241-2.21-.2-1.206.723-.844,1.567-1.246-.442-.6-2.21,1.085-.924.723-.522,1.125-.8,1.085-.241,1.286.161,1.366" transform="translate(-39.963 304.27)" fill="#6d6b6d" fill-rule="evenodd"/>
          <path id="path34" d="M54.32-299.3a4.52,4.52,0,0,1,3.014-2.21c2.411-.723.121-.522.121-.522l-2.612,1-1,1-.442.8.924-.08" transform="translate(-48.247 303.004)" fill="#dcd9d8" fill-rule="evenodd"/>
          <path id="path36" d="M44.831-271.847a2.454,2.454,0,0,1,2.371-3.215l-.121-.482-2.21.522-.643,2.089.161,1.366.442-.281" transform="translate(-39.963 279.046)" fill="#dcd9d8" fill-rule="evenodd"/>
          <path id="path38" d="M63.812-203.236l.526-.51a.339.339,0,0,1,.278.309c.04.281.161,2.813,1.889,4.179.158.125-1.286-.2-1.286-.2l-1.286-2.009" transform="translate(-57.658 214.172)" fill="#f7e4cd" fill-rule="evenodd"/>
          <path id="path40" d="M140.463-216.959s.094-1.218.422-1.124a.452.452,0,0,1,.328.422s-.8.515-.75.7" transform="translate(-126.915 227.131)" fill="#f7e4cd" fill-rule="evenodd"/>
          <path id="path42" d="M168.254-252.626s-.662.14-.723.723.723.121.844.08" transform="translate(-151.371 258.338)" fill="#f7e4cd"/>
          <path id="path44" d="M116.363-252.209s-.884.121-.884.683,1,.522,1.286.281" transform="translate(-104.342 257.961)" fill="#f7e4cd"/>
          <path id="path46" d="M43.508-236.045s-1.527-.924-1.688-.04-.522,1.527.241,2.451l-.522-.161-.482-1.246-.161-1.206.924-.965,1.045.08.6.482.04.6" transform="translate(-36.952 244.409)" fill="#f7e4cd" fill-rule="evenodd"/>
          <path id="path48" d="M75.1-304.981a5.54,5.54,0,0,1,4.139-4.219c2.845-.562,4.34.121,4.9.763,0,0-2.532-3.014-4.943-2.09s-4.179,2.612-4.139,3.7a17.658,17.658,0,0,1,.04,1.849" transform="translate(-67.817 310.814)" fill="#f7e4cd" fill-rule="evenodd"/>
          <path id="path50" d="M160.852-283.046s-1.165-.04-1.205,1a.8.8,0,0,0,.08.321s.924-1.045,1.487-.482" transform="translate(-144.25 285.824)" fill="#f7e4cd" fill-rule="evenodd"/>
          <path id="path52" d="M97.573-277.184s-.2-1.6-1.568-.671c-.884.6-.8,1.447-.643,1.607s.117.484.239.262.082-.945.524-1.146,1.167-.425,1.447-.052" transform="translate(-86.074 281.398)" fill="#f7e4cd" fill-rule="evenodd"/>
          <path id="path54" d="M32.249-166.084,28.472-164.4s1.567,6.228.763,8.157l-.563-.2-.04-2.371-1.045-4.5-.442-1.246,3.938-2.652,1.165,1.125" transform="translate(-24.528 181.158)" fill="#49728b" fill-rule="evenodd"/>
          <path id="path56" d="M82.333-119.822l.536.654v2.411h-.643s-.08-1.688-.08-1.889.08-.924.08-.924" transform="translate(-74.224 138.342)" fill="#49728b" fill-rule="evenodd"/>
          <path id="path58" d="M67.287-84.292l-1.808.08.522.362,1.286.2" transform="translate(-59.164 106.238)" fill="#49728b" fill-rule="evenodd"/>
          <path id="path60" d="M148.4-88.836l1.487-.04.362,3.7-1.527.2-.321-3.858" transform="translate(-134.085 110.38)" fill="#335061" fill-rule="evenodd"/>
          <path id="path62" d="M152.563-164.885l2.25-.121s.924-2.331.924-2.451.8-3.375.8-3.375l-1.808-1.889-.362-.322-.964.964v3.737l-.844,3.456" transform="translate(-137.85 186.429)" fill="#335061" fill-rule="evenodd"/>
          <path id="path64" d="M149.8-91.376,148.4-91.1l.2,1.125c.522.241,1.406-.4,1.406-.4" transform="translate(-134.085 112.639)" fill="#49728b" fill-rule="evenodd"/>
          <path id="path66" d="M163.4-172.2l2.813,2.089.08-.964-2.13-1.969-.763.844" transform="translate(-147.638 186.429)" fill="#49728b" fill-rule="evenodd"/>
          <path id="path68" d="M86.376-80.544l-.832-3.376L85.13-86.41l-.068-1.849,3.765-.2H91.17l-.213,4.22.362,3.255-.04.6-3.054.241-1.848-.4" transform="translate(-76.859 110.004)" fill="#fff" fill-rule="evenodd"/>
          <path id="path70" d="M118.884-91.136a35.541,35.541,0,0,0,.4,7.153,7.677,7.677,0,0,1-2.974.964l3.375-.121.4-.241-.482-6.59-.121-1.407" transform="translate(-105.095 112.64)" fill="#dcd9d8" fill-rule="evenodd"/>
          <path id="path72" d="M164.243-95.662l1.567-.442,2.973-.161.442-1.366-.8-2.371-.924-.121-1.286.4-1.234.6-.655-.12-.51.2" transform="translate(-148.015 120.542)" fill="#fff" fill-rule="evenodd"/>
          <path id="path74" d="M167.979-88.94a5.885,5.885,0,0,1,1.205-.442l-.442-2.21.522-.2s.362,2.089.362,2.331c0,0,2.25.121,2.451.121a3.65,3.65,0,0,0,.362-1.889l.442,1.286.04.723-.643.964-.723.161-1.205-.04-.4-.522-1.406.2-.442.161" transform="translate(-151.779 113.015)" fill="#dcd9d8" fill-rule="evenodd"/>
          <path id="path76" d="M134.663-130.567l-.884-2.25-.924-1.326s.2-.563.482-.563h.924l.884.322-.08,1.487-.4,2.331" transform="translate(-120.043 151.79)" fill="#fff"/>
          <path id="path78" d="M134.2-132.088a18.727,18.727,0,0,1-1.125-2.491s.2-.482.482-.362.884.442.884.442v-.763l-1.366-.281-.924.121,1.567,3.7.321.04" transform="translate(-119.402 152.547)" fill="#dcd9d8" fill-rule="evenodd"/>
          <path id="path80" d="M82.22-158.851l-1.113-.121-1.045-.322v.362l.51.563,1.607.723" transform="translate(-72.341 174.007)" fill="#fff"/>
          <path id="path82" d="M82.684-153.456a4.441,4.441,0,0,0,1.648.4l.04.482-1.125-.241-.683-.482.121-.161" transform="translate(-74.601 168.732)" fill="#dcd9d8" fill-rule="evenodd"/>
          <path id="path84" d="M149.492-154.151a7.634,7.634,0,0,1-1.837-.253,5.689,5.689,0,0,1,.023-.6,1.436,1.436,0,0,1,.63-.132,1.1,1.1,0,0,0-.7-.079,1.119,1.119,0,0,0-.116-.369c.383-.137,1.288-1.034,1.8-.737.243.141.346.948.364,1.341a1.368,1.368,0,0,1-.162.826" transform="translate(-133.268 171.372)" fill="#d33833" fill-rule="evenodd"/>
          <path id="path86" d="M150.094-152.882l-.638-.019a8.9,8.9,0,0,1-2.14-.3l-1.077-.3.147-.887-.022-.644c-.016-.038-.034-.083-.052-.135l-.407-1.171,1.12-.4c.054-.032.157-.1.235-.155a3.31,3.31,0,0,1,1.794-.731,1.718,1.718,0,0,1,.865.23c.212.123.84.489.969,2.14l1.812.89-1.868.209a1.989,1.989,0,0,1-.35.769Z" transform="translate(-133.268 171.372)" fill="#d33833"/>
          <path id="path88" d="M106.509-153.611c0,.052,0,.1-.006.156-.213.14-.557.138-.79.256a2.053,2.053,0,0,1,.85.215q-.008.195-.015.39a13.879,13.879,0,0,1-1.206.915,3.193,3.193,0,0,1-1.211.369c-.131-.03-.143-.193-.195-.346a4.944,4.944,0,0,1-.39-1.342c-.028-.623-.091-1.666.58-1.538a6,6,0,0,1,1.59.582,1.64,1.64,0,0,0,.793.343" transform="translate(-93.545 169.718)" fill="#d33833" fill-rule="evenodd"/>
          <path id="path90" d="M104.018-155.8a1.83,1.83,0,0,1,.342.033,7.237,7.237,0,0,1,1.955.713c.108.059.194.115.264.16l.055.036,1.162.089-.031.984.079.039-.072,1.824-.518.355c-.1.071-.23.178-.363.291a5.545,5.545,0,0,1-.951.691,5.538,5.538,0,0,1-.721.309,2.977,2.977,0,0,1-1.023.219,1.539,1.539,0,0,1-.349-.039,1.453,1.453,0,0,1-1.085-1.126c0-.012-.007-.024-.011-.037-.017-.049-.047-.127-.079-.209-.07-.18-.153-.392-.223-.627l-1.584-.069,1.435-.722q0-.029,0-.059l0-.039a3.028,3.028,0,0,1,.544-2.316A1.613,1.613,0,0,1,104.018-155.8Z" transform="translate(-93.545 169.718)" fill="#d33833"/>
          <path id="path92" d="M137.429-145.258a2.3,2.3,0,0,1-.1-.732c.9-.6,1.075,1.036.1.732" transform="translate(-124.078 162.107)" fill="#d33833" fill-rule="evenodd"/>
          <path id="path94" d="M137.655-143.97v-.906h.043v-.8h0v-1.7a1.653,1.653,0,0,1,1.637,1.7,1.734,1.734,0,0,1-.4,1.113A1.665,1.665,0,0,1,137.655-143.97Z" transform="translate(-124.078 162.107)" fill="#d33833"/>
          <path id="path96" d="M146.75-156.878s-.281-.4-.08-.522.4,0,.522-.2,0-.321.04-.563.241-.281.442-.322.764-.121.844.08l-.241-.723-.482-.161-1.527.884-.08.442v.884" transform="translate(-132.089 174.002)" fill="#ef3d3a" fill-rule="evenodd"/>
          <path id="path98" d="M101.148-153.287q-.072-.941-.156-1.88c-.085-.935.225-.772,1.036-.772a2.137,2.137,0,0,1,.808.241c.219.448-.366.348.252.686.522.285,1.445-.173,1.234-.806-.118-.141-.616-.044-.794-.136l-.942-.488c-.4-.207-1.323-.509-1.748-.22-1.079.734.068,2.567.453,3.333" transform="translate(-90.706 171.737)" fill="#ef3d3a" fill-rule="evenodd"/>
          <path id="path100" d="M98.975-274.26c-1.1-.255-1.639.458-1.971,1.2-.3-.072-.178-.475-.1-.68a1.86,1.86,0,0,1,1.632-1.159c.278.042.654.3.443.642" transform="translate(-87.476 278.473)" fill="#231f20" fill-rule="evenodd"/>
          <path id="path102" d="M167.664-255.233l.052,0a11.325,11.325,0,0,0,.774,1.513c-.209.487-1.584.918-1.563.044.3-.13.81-.027,1.074-.193a2.982,2.982,0,0,1-.337-1.366" transform="translate(-150.829 260.693)" fill="#231f20" fill-rule="evenodd"/>
          <path id="path104" d="M116.7-255.094a4.593,4.593,0,0,0,.645,1.208c.15.146.443.325.3.732a.929.929,0,0,1-.424.352c-.522.154-1.738.032-1.326-.619.432.02,1.012.28,1.334-.033-.248-.4-.689-1.179-.527-1.641" transform="translate(-104.642 260.568)" fill="#231f20" fill-rule="evenodd"/>
          <path id="path106" d="M142.4-246.741a4.35,4.35,0,0,1-2.949.926.873.873,0,0,1-.113-1.123c.139.239.052.679.439.745.731.125,1.581-.447,2.106-.647.326-.549-.028-.751-.322-1.1a4.377,4.377,0,0,1-1.378-2.707c.243-.176.264.269.3.35a9.911,9.911,0,0,0,1.68,2.3c.142.155.375.3.4.406.075.3-.194.654-.163.852" transform="translate(-125.757 256.59)" fill="#231f20" fill-rule="evenodd"/>
          <path id="path108" d="M50.771-228.256c-.246-.141-.3-.76-.594-.777-.413-.025-.338.8-.336,1.288a1.513,1.513,0,0,1-.125-1.462c-.238-.117-.344.129-.477.216.17-1.233,1.8-.572,1.532.736" transform="translate(-44.49 237.574)" fill="#231f20" fill-rule="evenodd"/>
          <path id="path110" d="M159.181-204.4a2.262,2.262,0,0,1-1.956,1.485,2.649,2.649,0,0,1,0-.7,5.639,5.639,0,0,0,1.955-.783" transform="translate(-142.041 214.764)" fill="#231f20" fill-rule="evenodd"/>
          <path id="path112" d="M124.408-199.721a6.793,6.793,0,0,0,2.873.371,3.258,3.258,0,0,1,.051.7c-1.2.06-2.61-.236-2.924-1.076" transform="translate(-112.41 210.535)" fill="#231f20" fill-rule="evenodd"/>
          <path id="path114" d="M120.336-192.761c.473,1.188,2.1,1.052,3.472,1.019a.734.734,0,0,1-.354.4,3.481,3.481,0,0,1-2.263-.01,3.1,3.1,0,0,1-.848-.943c-.1-.132-.612-.468-.008-.469" transform="translate(-108.468 204.247)" fill="#231f20" fill-rule="evenodd"/>
          <path id="path116" d="M155.586-129.839a24.233,24.233,0,0,1-1.746,2.768,13.33,13.33,0,0,0,.436-3.209,1.011,1.011,0,0,1,1.31.441" transform="translate(-139.004 147.88)" fill="#81b0c4" fill-rule="evenodd"/>
          <path id="path118" d="M187.334-89.326c-.622.124-1.059.729-1.666.69a1.987,1.987,0,0,1,1.666-.69" transform="translate(-167.763 110.787)" fill="#231f20" fill-rule="evenodd"/>
          <path id="path120" d="M190.64-80.633a9.113,9.113,0,0,1-1.616.093c.243-.372,1.181-.243,1.616-.093" transform="translate(-170.794 103.066)" fill="#231f20" fill-rule="evenodd"/>
          <path id="path122" d="M190.561-72.661c-.57.012-1.278,0-1.819-.044.32-.344,1.45-.128,1.819.044" transform="translate(-170.539 95.934)" fill="#231f20" fill-rule="evenodd"/>
          <path id="path124" d="M154.409-46.794a13.391,13.391,0,0,1,.33,2.224,2.329,2.329,0,0,1-.918.2c-.03-.666-.119-1.684-.092-2.319.208.014.514-.148.68-.1" transform="translate(-138.899 72.363)" fill="#dcd9d8" fill-rule="evenodd"/>
          <path id="path126" d="M130.752-156.061c-.286.187-.53.42-.8.619a1.772,1.772,0,0,1-1.389-.392c.007-.028.052-.016.054-.05.652.291,1.481-.118,2.14-.177" transform="translate(-116.161 171.086)" fill="#f0d6b7" fill-rule="evenodd"/>
          <path id="path128" d="M115.806-125.013c.179-.776.881-1.179,1.519-1.606a12.826,12.826,0,0,1,1.5,2.946,15.362,15.362,0,0,1-3.018-1.34" transform="translate(-104.637 144.483)" fill="#81b0c4" fill-rule="evenodd"/>
          <path id="path130" d="M36.04-286.182c-.027.635.062,1.653.092,2.319a2.33,2.33,0,0,0,.918-.2,13.392,13.392,0,0,0-.33-2.224c-.167-.044-.473.118-.68.1Zm-6.572-3.61a33.183,33.183,0,0,0,1.421,6.975,9.244,9.244,0,0,0,5.069.092c-.266-1.279-.15-2.835-.306-4.2-.117-1.026-.057-2.058-.218-3.1a17.376,17.376,0,0,0-5.966.237Zm6.382-.221c-.015,1.1.049,2.183.133,3.283.422-.063.708-.106,1.1-.192a23.651,23.651,0,0,0-.371-3.188A2.614,2.614,0,0,0,35.85-290.014Zm2.14-.177a2.629,2.629,0,0,0-.625,0c.09.9.308,1.884.385,2.824a2.617,2.617,0,0,0,.709-.18,5.686,5.686,0,0,0-.47-2.646Zm3.241,2.961a1.393,1.393,0,0,0,.846-1.71,8.089,8.089,0,0,0-.552-1.868c-.166-.251-.616-.58-.975-.35-.584.374-1.613.483-2.039.935a15.1,15.1,0,0,1,.368,2.589,7.632,7.632,0,0,1,2.235.061,8.5,8.5,0,0,0-1.34.338,2.794,2.794,0,0,0,1.456,0ZM35.4-291.045a12.827,12.827,0,0,0-1.5-2.946c-.638.428-1.34.83-1.519,1.606A15.362,15.362,0,0,0,35.4-291.045Zm1.086-3.21a13.331,13.331,0,0,1-.436,3.209,24.235,24.235,0,0,0,1.746-2.768A1.011,1.011,0,0,0,36.483-294.255Zm-1.232-.438c-.25-.027-.462.287-.786.151-.074.082-.142.171-.218.252a19,19,0,0,1,1.6,3.106,13.627,13.627,0,0,0,.328-3.109C35.764-294.267,35.537-294.662,35.251-294.693Zm-.792-1.045a2.3,2.3,0,0,0,.1.732C35.534-294.7,35.364-296.341,34.459-295.738Zm-1.079-.354a5.994,5.994,0,0,0-1.59-.582c-.671-.128-.608.915-.58,1.538a4.944,4.944,0,0,0,.39,1.342c.052.153.064.315.195.346a3.192,3.192,0,0,0,1.211-.369,13.874,13.874,0,0,0,1.206-.915q.008-.195.015-.39a2.054,2.054,0,0,0-.85-.215c.234-.118.577-.116.79-.256,0-.052,0-.1.006-.156A1.64,1.64,0,0,1,33.38-296.092Zm-4-.727c-.348.353.976.835,1.4.861,0-.224.127-.434.1-.595A4.449,4.449,0,0,1,29.377-296.819Zm4.286.166c0,.034-.047.022-.054.05a1.772,1.772,0,0,0,1.389.392c.275-.2.518-.433.8-.619C35.143-296.772,34.314-296.363,33.662-296.653Zm3.934,1.193c-.019-.392-.122-1.2-.364-1.341-.509-.3-1.414.6-1.8.737a1.118,1.118,0,0,1,.116.369,1.1,1.1,0,0,1,.7.079,1.437,1.437,0,0,0-.63.132,5.69,5.69,0,0,0-.023.6,7.634,7.634,0,0,0,1.837.253A1.368,1.368,0,0,0,37.6-295.461Zm-8.805-1.017c-.109-.078-.848-1.039-.95-1a15.9,15.9,0,0,0-3.705,2.3,20.189,20.189,0,0,1,1.571,7.786c1.22.571,2.292,1.394,3.949,1.48-.192-1.356-.367-2.566-.475-3.842-.416-.175-1.013.008-1.4-.054,0-.469.595-.205.645-.521.038-.239-.329-.257-.21-.633.3.111.464.355.789.447.3-.649,0-1.8.039-2.34.008-.1.051-.564.279-.483.2.072-.012,1.23.011,1.743a2.694,2.694,0,0,0,.134,1.228,45.732,45.732,0,0,1,4.958-.406,12,12,0,0,1-1.33-.6c-.269-.152-1.117-.467-1.194-.723-.124-.407.325-.624.4-.973-.808.441-.965-.422-1.157-1.034a8.033,8.033,0,0,1-.314-1.287,13.926,13.926,0,0,1-2.039-1.093Zm8.1-.883c1.114-.54,1.315,2.019.878,2.844.068.246.3.34.394.561-.622,1.114-1.312,2.154-1.947,3.254.472-.294,1.146-.053,1.7-.272.2-.08.35-.545.5-.917a19.938,19.938,0,0,0,1.064-3.288,4.161,4.161,0,0,0,.139-.9c-.049-.354-.529-.617-.774-.836-.451-.4-.734-.761-1.2-1.14-.191.281-.6.47-.755.7Zm-10.647-9.881a3.444,3.444,0,0,0-.356,2.457,1.427,1.427,0,0,1,2.221,1.075c.458-.012.171-.572.088-.933-.271-1.178.456-2.459.033-3.537A2.912,2.912,0,0,0,26.243-307.242Zm3.8-3.391a5.367,5.367,0,0,0-3.236,2.294c.382-.056.648-.248,1.025-.272a2.524,2.524,0,0,0,.493.019c.327-.081.6-.813.849-1.086s.529-.38.726-.622c.127-.061.315-.057.322-.248C30.165-310.606,30.108-310.651,30.042-310.633Zm6.257.32c-1.248-.7-3.359-1.233-4.686-.572a6.458,6.458,0,0,0-3.012,2.537c.461,1.08-.137,2.07-.175,3.167-.02.584.275,1.093.3,1.728-.158.26-.64.292-.973.274-.112-.562-.309-1.194-.888-1.257a1.343,1.343,0,0,0-1.455,1.3c-.044.833.64,2.213,1.609,2.117.374-.037.466-.412.874-.408.221.441-.341.58-.4.9a2.534,2.534,0,0,0,.082.549,7.5,7.5,0,0,0,.955,2.222c.49.7,1.453.808,2.489.877.185-.4.867-.366,1.311-.262a4.391,4.391,0,0,1-1.437-1.174,2.95,2.95,0,0,1-.972-1.754,6.412,6.412,0,0,0,3.245,2.857,4.316,4.316,0,0,0,3.6-.849,4.133,4.133,0,0,0,.9-1.11,9.406,9.406,0,0,0,1.417-5.694,6.319,6.319,0,0,0-.328-2.276c-.3-.6-1.31-1.136-1.9-.594-.11-.583.492-.944,1.2-.734A6.687,6.687,0,0,0,36.3-310.312Zm2.324,19.236c.975-.485,2.8-1.3,3.408,0a11.076,11.076,0,0,1,.607,1.792c.165.7-.179,2.175-.9,2.41a4.277,4.277,0,0,1-2.146.041,1.169,1.169,0,0,1-.261-.342,2.962,2.962,0,0,0-1.493.254c.041.4-.233.47-.49.553-.19.755.381,1.74.244,2.429-.1.49-.7.566-1.144.658a3.767,3.767,0,0,0,.05.73,1.107,1.107,0,0,1-.987.638,12.4,12.4,0,0,1-4.933-.243c-.38-.933-.68-2.068-1-3.134a6.419,6.419,0,0,1-3.419-1.043c-.351-.163-.837-.252-.968-.532a4.785,4.785,0,0,1-.107-1.279,19.431,19.431,0,0,0-.479-3.738c-.148-.575-.407-1.082-.587-1.636a11.8,11.8,0,0,1-.534-1.659c-.113-.759.6-.8,1.058-1.13.706-.508,1.26-.789,2.025-1.248a4.614,4.614,0,0,0,.987-.638c.154-.314-.265-.757-.377-1a3.017,3.017,0,0,1-.3-1.1,2.13,2.13,0,0,1-1.422-.914,3.5,3.5,0,0,1-.4-3.033c.033-.079.2-.234.222-.355a4.109,4.109,0,0,0-.1-.81c-.044-1.3.22-2.426,1.1-2.819.356-1.419,1.631-1.89,2.832-2.6a8.906,8.906,0,0,1,1.455-.62,7.275,7.275,0,0,1,6.168.6,8.283,8.283,0,0,1,2.045,2.264c.974,1.969.905,5.261.224,7.656a7.708,7.708,0,0,1-.41,1.181c-.129.27-.531.81-.483,1.048s.917.9,1.1,1.083c.335.323.97.751,1.022,1.158a4.1,4.1,0,0,1-.316,1.444c-.417,1.4-.824,2.686-1.3,3.93" transform="translate(-21.21 311.855)" fill="#231f20" fill-rule="evenodd"/>
          <path id="path132" d="M112.858-197.442c.053-.07.344-.177.751.019,0,0-.482.08-.442.884l-.2-.04s-.208-.729-.108-.863" transform="translate(-101.949 208.56)" fill="#f7e4cd" fill-rule="evenodd"/>
          <path id="path134" d="M145.5-126.989a.221.221,0,0,1-.221.221.221.221,0,0,1-.221-.221.221.221,0,0,1,.221-.221.221.221,0,0,1,.221.221" transform="translate(-131.073 145.017)" fill="#1d1919" fill-rule="evenodd"/>
          <path id="path136" d="M147.8-116.364a.221.221,0,0,1-.221.221.221.221,0,0,1-.221-.221.221.221,0,0,1,.221-.221.221.221,0,0,1,.221.221" transform="translate(-133.143 135.417)" fill="#1d1919" fill-rule="evenodd"/>
        </g>
        <text id="text5675" transform="translate(27.932 -293.749)" font-size="16" font-family="Georgia-Bold, Georgia" font-weight="700"><tspan x="0" y="0">Jenkins</tspan></text>
      </g>
      <rect id="Rectangle_146" data-name="Rectangle 146" width="102" height="102" transform="translate(986 6914)" fill="none"/>
    </g>
  </g>
</svg>
