<svg xmlns="http://www.w3.org/2000/svg" width="218" height="160" viewBox="0 0 218 160">
  <g id="_23" data-name="23" transform="translate(-375 -4000)">
    <rect id="Rectangle_186" data-name="Rectangle 186" width="218" height="160" rx="6" transform="translate(375 4000)" fill="#fff"/>
    <g id="Group_69" data-name="Group 69" transform="translate(-242 -3038)">
      <rect id="Rectangle_155" data-name="Rectangle 155" width="102" height="102" transform="translate(675 7067)" fill="none"/>
      <g id="Foreground" transform="translate(674.89 7099.502)">
        <g id="Group_66" data-name="Group 66" transform="translate(0.11 0.498)">
          <path id="Path_429" data-name="Path 429" d="M94.28,28.335S142.388-19.733.11,10.459c0,0,127.179-25.1,94.17,17.875Z" transform="translate(-0.11 -0.498)" fill="#d57e1c"/>
          <path id="Path_430" data-name="Path 430" d="M326.242,216.392H321.25V211.4h4.992Z" transform="translate(-274.297 -180.564)" fill="#d57e1c"/>
          <path id="Path_431" data-name="Path 431" d="M602.762,216.392H597.77V211.4h4.992Z" transform="translate(-510.387 -180.564)" fill="#d57e1c"/>
          <path id="Path_432" data-name="Path 432" d="M556.672,216.392H551.68V211.4h4.992Z" transform="translate(-471.036 -180.564)" fill="#d57e1c"/>
          <path id="Path_433" data-name="Path 433" d="M510.592,216.392H505.6V211.4h4.992Z" transform="translate(-431.693 -180.564)" fill="#d57e1c"/>
          <path id="Path_434" data-name="Path 434" d="M464.492,216.392H459.5V211.4h4.992Z" transform="translate(-392.333 -180.564)" fill="#d57e1c"/>
          <path id="Path_435" data-name="Path 435" d="M418.412,216.392H413.42V211.4h4.992Z" transform="translate(-352.991 -180.564)" fill="#d57e1c"/>
          <path id="Path_436" data-name="Path 436" d="M372.322,216.392H367.33V211.4h4.992Z" transform="translate(-313.639 -180.564)" fill="#d57e1c"/>
          <path id="Path_437" data-name="Path 437" d="M114.59,70.826a5.61,5.61,0,0,0-.506,1.341h8.639a6.75,6.75,0,0,0-.5-1.338,4.516,4.516,0,0,0-1.1-1.415,4.227,4.227,0,0,0-2.825-.945,3.916,3.916,0,0,0-2.643,1.019A4.748,4.748,0,0,0,114.59,70.826Zm11.624,0c.045.148.089.3.127.453a13.516,13.516,0,0,1,.368,3.32l-.015.452-.015.452H113.952a5.616,5.616,0,0,0,.439,1.757,4.089,4.089,0,0,0,.926,1.323,4.222,4.222,0,0,0,3.041,1.127,4.193,4.193,0,0,0,3.8-2.252h3.987a9.835,9.835,0,0,1-3.028,4.594,7.177,7.177,0,0,1-4.658,1.636,7.488,7.488,0,0,1-3.272-.715,8.057,8.057,0,0,1-2.68-2.113,9.783,9.783,0,0,1-1.747-3.081c-.061-.174-.118-.348-.171-.523a10.6,10.6,0,0,1-.45-3.07,10.957,10.957,0,0,1,.506-3.361l.066-.2a9.367,9.367,0,0,1,1.683-3,8.793,8.793,0,0,1,2.746-2.252,6.814,6.814,0,0,1,3.162-.79,7.394,7.394,0,0,1,3.858,1.069,9.327,9.327,0,0,1,3.048,3.007A8.392,8.392,0,0,1,126.213,70.826Zm-20.039,0a9.031,9.031,0,0,0-.44,3.165v9.22h-3.7V65.132H105.5v2.086a5.731,5.731,0,0,1,1.835-1.782,4.475,4.475,0,0,1,2.255-.567V68.8a4.121,4.121,0,0,0-3,1.282A2.925,2.925,0,0,0,106.174,70.826Zm-7.246,0V83.211H95.259V81.256A5.585,5.585,0,0,1,93.4,83.088a4.734,4.734,0,0,1-2.391.6A5.446,5.446,0,0,1,86.418,81.6a8.4,8.4,0,0,1-1.523-4.342,16.011,16.011,0,0,1-.08-1.655V65.132h3.741v8.119a17.115,17.115,0,0,0,.364,4.009,4.335,4.335,0,0,0,.371,1,2.653,2.653,0,0,0,2.543,1.348A2.768,2.768,0,0,0,94.484,78.1a4.639,4.639,0,0,0,.338-.847,15.577,15.577,0,0,0,.463-4.281v-7.84h3.641v5.693ZM51.9,77.253a5.4,5.4,0,0,0,.886-3.032,5.732,5.732,0,0,0-1.037-3.395,4.646,4.646,0,0,0-.3-.393,3.99,3.99,0,0,0-3.126-1.586,4.131,4.131,0,0,0-3.208,1.5,5.351,5.351,0,0,0-.371.471,5.418,5.418,0,0,0-.958,3.2,5.8,5.8,0,0,0,.89,3.233,5.654,5.654,0,0,0,.444.589,4.164,4.164,0,0,0,3.258,1.535,3.97,3.97,0,0,0,3.078-1.544A5.728,5.728,0,0,0,51.9,77.253Zm4.872-6.427V83.211H53.2V80.993a4.352,4.352,0,0,1-1.87,1.99,6.553,6.553,0,0,1-3.085.64,7.456,7.456,0,0,1-5.886-2.737,9.413,9.413,0,0,1-1.947-3.629A11.588,11.588,0,0,1,40,74.089a11.04,11.04,0,0,1,.478-3.266c.037-.12.075-.234.114-.349a9.37,9.37,0,0,1,1.689-3.009,7.7,7.7,0,0,1,2.63-2.111,7.523,7.523,0,0,1,3.25-.681,6.338,6.338,0,0,1,2.983.656,4.988,4.988,0,0,1,2.015,1.988V65.132h3.613v5.693Zm24.814,0-4.461,6.432L75.8,79.168h7.036v4.043h-11.5V79.334l1.431-2.076L77.2,70.826l1.228-1.782h-6.5V65.132H82.4v4.519Zm-12.453,0-4.462,6.432-1.326,1.911h7.037v4.043h-11.5V79.334l1.431-2.076,4.434-6.432,1.228-1.782h-6.5V65.132H69.949v4.519Z" transform="translate(-34.168 -55.219)" fill="#007abe"/>
        </g>
      </g>
    </g>
  </g>
</svg>
