<svg xmlns="http://www.w3.org/2000/svg" xmlns:xlink="http://www.w3.org/1999/xlink" width="218" height="160" viewBox="0 0 218 160">
  <defs>
    <radialGradient id="radial-gradient" cx="0.199" cy="0.189" r="0.506" gradientTransform="matrix(0.965, 0, 0, -1, -0.07, 15.161)" gradientUnits="objectBoundingBox">
      <stop offset="0" stop-color="#fff"/>
      <stop offset="1" stop-color="#007808"/>
    </radialGradient>
  </defs>
  <g id="_24" data-name="24" transform="translate(-375 -4000)">
    <rect id="Rectangle_186" data-name="Rectangle 186" width="218" height="160" rx="6" transform="translate(375 4000)" fill="#fff"/>
    <g id="Group_73" data-name="Group 73" transform="translate(-397 -2885)">
      <g id="FFmpeg_Logo_new" transform="translate(834 6952)">
        <path id="Path_320" data-name="Path 320" d="M.511,8.225V5.078l2.113.728V8.734Z" transform="translate(-0.29 -2.884)" fill="#0b4819"/>
        <path id="Path_321" data-name="Path 321" d="M4.455,26.929v-11.7l2.019.427V26.529Z" transform="translate(-2.531 -8.649)" fill="#0b4819"/>
        <path id="Path_322" data-name="Path 322" d="M14.6,3.57,9.406,9.522v2.533l7.7-8.68L29.3,2.432,11.362,21.125l2.388.126L26.776,7.928V20.52l-1.447,1.36,3.67.2v3.485l-11.512-.892,5.868-5.693V16.174l-8.39,8.3L4.919,23.7,21.033,6.371l-2.652.143L6.738,19.262V8.386l1.1-1.3-2.713.147V4.3Z" transform="translate(-2.794 -1.381)" fill="#105c80"/>
        <path id="Path_323" data-name="Path 323" d="M4.455,13.377l1.168-1.406,1.954.531-1.1,1.3Z" transform="translate(-2.531 -6.8)" fill="#0b4819"/>
        <path id="Path_324" data-name="Path 324" d="M11,18.039l1.858.349v2.533L11,20.769Z" transform="translate(-6.251 -10.247)" fill="#084010"/>
        <path id="Path_325" data-name="Path 325" d="M15.82,46.268l1.734-.562,2.388.126-1.575.583Z" transform="translate(-8.986 -25.962)" fill="#0c541e"/>
        <path id="Path_326" data-name="Path 326" d="M16.535,3.106l1.518.847-5.19,5.953L11,9.557Z" transform="translate(-6.251 -1.764)" fill="#1a5c34"/>
        <path id="Path_327" data-name="Path 327" d="M11,11.988,19.219,2.58l1.341.88-7.7,8.68Z" transform="translate(-6.251 -1.466)" fill="#0b4819"/>
        <path id="Path_328" data-name="Path 328" d="M16.87,10.432l1.248.626L6.474,23.806l-2.019.4Z" transform="translate(-2.531 -5.926)" fill="#1a5c34"/>
        <path id="Path_329" data-name="Path 329" d="M0,28.747,17.192,10.042l1.047.651L2.125,28.023Z" transform="translate(0 -5.704)" fill="#0b4819"/>
        <path id="Path_330" data-name="Path 330" d="M33.739,34.43l.864-.187-8.39,8.3-1.492.852Z" transform="translate(-14.042 -19.451)" fill="#1a5c34"/>
        <path id="Path_331" data-name="Path 331" d="M45.6,37.48V34.43l.864-.187v2.806Z" transform="translate(-25.9 -19.451)" fill="#0b4819"/>
        <path id="Path_332" data-name="Path 332" d="M30.973,47.316,37.29,41.17l.864-.432-5.868,5.693Z" transform="translate(-17.593 -23.14)" fill="#0b4819"/>
        <path id="Path_333" data-name="Path 333" d="M52.106,44.885l-1.568,1.473.7-.693,1.447-1.36Z" transform="translate(-28.707 -25.166)" fill="#13802d"/>
        <path id="Path_334" data-name="Path 334" d="M21.714,28.348,35.733,13.9l.582.542L23.289,27.765Z" transform="translate(-12.334 -7.896)" fill="#0b4819"/>
        <path id="Path_335" data-name="Path 335" d="M54.168,13.9l.582.542V27.034l-.582.58Z" transform="translate(-30.769 -7.896)" fill="#084010"/>
        <path id="Path_336" data-name="Path 336" d="M59.759,48.643l.39-.73V51.4l-.39,1.046Z" transform="translate(-33.945 -27.216)" fill="#084010"/>
        <path id="Path_337" data-name="Path 337" d="M35.124,0l.365,1.051L17.554,19.744l-1.734.562Z" transform="translate(-8.986)" fill="#1a5c34"/>
        <path id="Path_338" data-name="Path 338" d="M10.284,1.342,4.753,7.792v2.73l8.215-9.408L26.138,0,6.834,20.305l2.546.147L23.4,6V19.719l-1.568,1.473,3.983.235v3.8L13.38,24.175,19.7,18.029V14.98l-9.018,8.968L0,23.043,17.192,4.338l-2.852.168L1.924,18.28V6.577L3.093,5.171l-2.872.17V2.194Z" fill="url(#radial-gradient)"/>
        <g id="Group_51" data-name="Group 51" transform="translate(31.139 6.867)">
          <path id="Path_339" data-name="Path 339" d="M4.469,166.856H8.9v2.771H4.469v6.168H2.085V160.9h8.386v2.781h-6Z" transform="translate(-2.085 -160.897)"/>
          <path id="Path_340" data-name="Path 340" d="M25.983,166.856h4.429v2.771H25.983v6.168H23.6V160.9h8.386v2.781h-6Z" transform="translate(-14.306 -160.897)"/>
          <path id="Path_341" data-name="Path 341" d="M47.853,175.957v6.357H45.072v-9.644l2.781-.3v.884a3.342,3.342,0,0,1,2.383-.874,3.611,3.611,0,0,1,2.881,1.143,4.333,4.333,0,0,1,3.277-1.143,3.611,3.611,0,0,1,2.881,1.143,3.9,3.9,0,0,1,.993,2.632v6.158H57.487V176.85a2.366,2.366,0,0,0-.448-1.539,1.854,1.854,0,0,0-1.45-.576,1.88,1.88,0,0,0-1.431,1.093,3.98,3.98,0,0,0-.05.627v5.861H51.328v-5.463a2.366,2.366,0,0,0-.448-1.539,1.85,1.85,0,0,0-1.448-.577,2.046,2.046,0,0,0-1.58,1.22Z" transform="translate(-26.503 -167.414)"/>
          <path id="Path_342" data-name="Path 342" d="M83.486,186.484V172.669l2.781-.3v.794a3.753,3.753,0,0,1,2.186-.794,4.632,4.632,0,0,1,3.625,1.488,5.175,5.175,0,0,1,0,6.952,4.633,4.633,0,0,1-3.625,1.489,3.292,3.292,0,0,1-2.186-.8v5Zm2.781-10.041v1.61a2.156,2.156,0,0,0,2.086,1.955,2.621,2.621,0,0,0,2.682-2.473q-.1-2.783-2.682-2.882Q86.465,174.953,86.267,176.444Z" transform="translate(-48.323 -167.414)"/>
          <path id="Path_343" data-name="Path 343" d="M107.5,177.36a4.761,4.761,0,0,1,4.965-4.966,4.515,4.515,0,0,1,3.476,1.39,5.043,5.043,0,0,1,1.292,3.576v.993h-6.853a1.758,1.758,0,0,0,.695,1.242,2.25,2.25,0,0,0,1.39.448,4.111,4.111,0,0,0,2.483-.793l1.589,1.588q-1.093,1.49-4.073,1.489a4.76,4.76,0,0,1-4.964-4.967Zm6.357-2.234a2.382,2.382,0,0,0-2.78,0,1.467,1.467,0,0,0-.6,1.242h3.973A1.474,1.474,0,0,0,113.86,175.126Z" transform="translate(-61.965 -167.428)"/>
          <path id="Path_344" data-name="Path 344" d="M141.383,172.7v8.839a5.061,5.061,0,0,1-1.242,3.486,4.265,4.265,0,0,1-3.129,1.482l-.6.06a6.233,6.233,0,0,1-4.469-1.649l1.292-1.489a4.935,4.935,0,0,0,2.652.894,2.559,2.559,0,0,0,2.149-.745,2.652,2.652,0,0,0,.562-1.637v-.5a4,4,0,0,1-2.582.894A4.252,4.252,0,0,1,132.593,181a5.4,5.4,0,0,1-1.142-3.625,5.161,5.161,0,0,1,1.242-3.576,4.482,4.482,0,0,1,3.526-1.39,3.29,3.29,0,0,1,2.383.9v-.9ZM138.6,178.26v-1.609a2.156,2.156,0,0,0-2.086-1.955,2.46,2.46,0,0,0-2.682,2.473q.1,2.783,2.682,2.882Q138.4,179.75,138.6,178.26Z" transform="translate(-75.568 -167.434)"/>
        </g>
      </g>
      <rect id="Rectangle_145" data-name="Rectangle 145" width="102" height="102" transform="translate(831 6914)" fill="none"/>
    </g>
  </g>
</svg>
