<svg xmlns="http://www.w3.org/2000/svg" width="218" height="160" viewBox="0 0 218 160">
  <g id="_25" data-name="25" transform="translate(-375 -4000)">
    <g id="Group_3757" data-name="Group 3757">
      <rect id="Rectangle_186" data-name="Rectangle 186" width="218" height="160" rx="6" transform="translate(375 4000)" fill="#fff"/>
      <g id="Group_68" data-name="Group 68" transform="translate(-87 -3038)">
        <path id="expressjs-ar21" d="M38.554,40.712V18.688h1.195v3.465a4.531,4.531,0,0,0,.39-.488,5.921,5.921,0,0,1,5.4-3.351,6.343,6.343,0,0,1,6.238,3.351,10.771,10.771,0,0,1,.26,9.874c-1.212,2.716-4.205,4.067-7.41,3.571a5.992,5.992,0,0,1-4.782-3.156v8.759Zm1.195-14.234.268,2.586c.472,2.944,2.213,4.683,4.945,5.01A5.62,5.62,0,0,0,51.134,30.5a9.58,9.58,0,0,0-.21-7.873,5.505,5.505,0,0,0-5.8-3.2,5.362,5.362,0,0,0-4.79,3.961,27.353,27.353,0,0,0-.586,3.091ZM77.5,29.472a6.442,6.442,0,0,1-6.3,5.693c-5.01.252-7.361-3.075-7.735-6.914a11.077,11.077,0,0,1,.976-6.1,6.8,6.8,0,0,1,7.084-3.8A6.509,6.509,0,0,1,77.3,23.307a33.422,33.422,0,0,1,.561,3.66H64.705c-.244,3.481,1.627,6.279,4.278,6.954,3.3.812,6.124-.618,7.149-3.758.227-.806.642-.919,1.374-.691ZM64.7,25.853H76.465c-.074-3.708-2.383-6.4-5.515-6.434-3.536-.057-6.1,2.53-6.254,6.434Zm15.234,3.7h1.154A4.626,4.626,0,0,0,83.8,33.539a7.1,7.1,0,0,0,6.165-.162,2.772,2.772,0,0,0,1.627-2.725A2.514,2.514,0,0,0,89.9,28.138c-1.269-.472-2.619-.732-3.912-1.147a28.673,28.673,0,0,1-3.937-1.439c-2.084-1.017-2.213-4.977.146-6.231a8.305,8.305,0,0,1,7.938-.122,4.181,4.181,0,0,1,2.115,4.263h-.989c0-.048-.09-.09-.09-.139-.122-3.154-2.774-4.14-5.62-3.863a7.186,7.186,0,0,0-2.44.74,2.6,2.6,0,0,0,.212,4.734c1.242.456,2.561.748,3.847,1.106l3.106.812A3.67,3.67,0,0,1,92.8,30.161a3.912,3.912,0,0,1-2.106,4.067c-2.716,1.537-7.19,1.131-9.183-.812a5.421,5.421,0,0,1-1.577-3.863Zm27.506-6.092h-1.082a2.458,2.458,0,0,0-.074-.4,3.536,3.536,0,0,0-2.88-3.4,7.1,7.1,0,0,0-4.563.22,2.772,2.772,0,0,0-2.009,2.644,2.552,2.552,0,0,0,1.952,2.57l4.945,1.269a13.753,13.753,0,0,1,1.577.48,4.064,4.064,0,0,1,.21,7.572,9.051,9.051,0,0,1-7.32.074,5.075,5.075,0,0,1-3.058-4.929h1.057a5.929,5.929,0,0,0,9.028,3.774,2.905,2.905,0,0,0,1.562-2.716,2.514,2.514,0,0,0-1.716-2.5c-1.269-.472-2.619-.723-3.912-1.147a28.815,28.815,0,0,1-3.961-1.423c-2.034-1-2.2-4.929.122-6.182a8.191,8.191,0,0,1,8.068-.09,4.253,4.253,0,0,1,2.041,4.173ZM36.588,34.768a1.864,1.864,0,0,1-2.31-.878l-4.205-5.816-.61-.812L24.583,33.9a1.787,1.787,0,0,1-2.2.862l6.287-8.434L22.824,18.7a1.945,1.945,0,0,1,2.318.812L29.5,25.4l4.384-5.864a1.749,1.749,0,0,1,2.18-.813l-2.27,3.012-3.075,4a.812.812,0,0,0,0,1.212l5.856,7.816ZM63.281,18.624V19.77A5.9,5.9,0,0,0,57,25.862v8.947H55.839V18.7h1.147V22c1.407-2.408,3.578-3.3,6.3-3.367Zm-55.949,7.6.512-2.53c1.407-5,7.141-7.084,11.086-3.985,2.31,1.814,2.886,4.384,2.774,7.28H8.691c-.21,5.172,3.522,8.3,8.3,6.7a4.971,4.971,0,0,0,3.147-3.506c.252-.812.669-.952,1.432-.717a6.6,6.6,0,0,1-3.156,4.824A7.646,7.646,0,0,1,9.5,33.15a8.015,8.015,0,0,1-2-4.7,3.225,3.225,0,0,0-.162-.812q-.01-.723-.01-1.414Zm1.374-.35H20.476c-.074-3.749-2.44-6.409-5.6-6.434-3.513-.048-6.027,2.554-6.182,6.418Z" transform="translate(513.669 7088.752)"/>
        <rect id="Rectangle_153" data-name="Rectangle 153" width="102" height="102" transform="translate(520 7067)" fill="none"/>
      </g>
    </g>
  </g>
</svg>
