<svg xmlns="http://www.w3.org/2000/svg" xmlns:xlink="http://www.w3.org/1999/xlink" width="218" height="160" viewBox="0 0 218 160">
  <defs>
    <clipPath id="clip-path">
      <rect id="Rectangle_84" data-name="Rectangle 84" width="102" height="102" transform="translate(1453 6739)" fill="#fff" stroke="#707070" stroke-width="1"/>
    </clipPath>
  </defs>
  <g id="_3" data-name="3" transform="translate(-375 -4000)">
    <rect id="Rectangle_186" data-name="Rectangle 186" width="218" height="160" rx="6" transform="translate(375 4000)" fill="#fff"/>
    <g id="Mask_Group_11" data-name="Mask Group 11" transform="translate(-1020 -2710)" clip-path="url(#clip-path)">
      <g id="ISO_C__Logo" data-name="ISO_C++_Logo" transform="translate(1464.119 6745.121)">
        <path id="Path_62" data-name="Path 62" d="M84.187,70.38a7.069,7.069,0,0,0,1.015-3.4V28.9a7.065,7.065,0,0,0-1.014-3.4L45.32,47.94Z" transform="translate(-5.439 -3.06)" fill="#00599c"/>
        <path id="Path_63" data-name="Path 63" d="M43.474,95.057,76.447,76.02a7.065,7.065,0,0,0,2.439-2.58L40.02,51,1.153,73.44a7.066,7.066,0,0,0,2.439,2.58L36.566,95.057A7.661,7.661,0,0,0,43.474,95.057Z" transform="translate(-0.138 -6.121)" fill="#004482"/>
        <path id="Path_64" data-name="Path 64" d="M78.748,22.44a7.07,7.07,0,0,0-2.439-2.58L43.335.823a7.661,7.661,0,0,0-6.908,0L3.454,19.86A7.662,7.662,0,0,0,0,25.842V63.917a7.066,7.066,0,0,0,1.015,3.4L39.881,44.88Z" fill="#659ad2"/>
        <g id="Group_14" data-name="Group 14" transform="translate(13.294 18.292)">
          <path id="Path_65" data-name="Path 65" d="M41.694,73.962a26.588,26.588,0,1,1,23.025-39.89L53.212,40.73a13.293,13.293,0,1,0,0,13.287L64.72,60.675A26.683,26.683,0,0,1,41.694,73.962Z" transform="translate(-15.107 -20.787)" fill="#fff"/>
        </g>
        <g id="Group_15" data-name="Group 15" transform="translate(57.606 40.448)">
          <path id="Path_66" data-name="Path 66" d="M74.325,48.919H71.371V45.965H68.417v2.954H65.463v2.954h2.954v2.954h2.954V51.873h2.954Z" transform="translate(-65.463 -45.965)" fill="#fff"/>
        </g>
        <g id="Group_16" data-name="Group 16" transform="translate(68.685 40.448)">
          <path id="Path_67" data-name="Path 67" d="M86.914,48.919H83.96V45.965H81.006v2.954H78.052v2.954h2.954v2.954H83.96V51.873h2.954Z" transform="translate(-78.052 -45.965)" fill="#fff"/>
        </g>
      </g>
    </g>
  </g>
</svg>
