<svg xmlns="http://www.w3.org/2000/svg" xmlns:xlink="http://www.w3.org/1999/xlink" width="218" height="160" viewBox="0 0 218 160">
  <defs>
    <clipPath id="clip-path">
      <rect id="Rectangle_79" data-name="Rectangle 79" width="102" height="102" transform="translate(727 6739)" fill="#fff" stroke="#707070" stroke-width="1"/>
    </clipPath>
    <clipPath id="clip-path-2">
      <path id="Path_37" data-name="Path 37" d="M54.3,52.237,45.354,57.4a1.08,1.08,0,0,0-.541.936V68.678a1.08,1.08,0,0,0,.541.936l8.951,5.17a1.084,1.084,0,0,0,1.081,0l8.949-5.17a1.083,1.083,0,0,0,.54-.936V58.339a1.08,1.08,0,0,0-.542-.936l-8.948-5.166a1.088,1.088,0,0,0-1.083,0" transform="translate(-44.813 -52.093)"/>
    </clipPath>
    <linearGradient id="linear-gradient" x1="-0.847" y1="-1.034" x2="-0.838" y2="-1.034" gradientUnits="objectBoundingBox">
      <stop offset="0.3" stop-color="#3e863d"/>
      <stop offset="0.5" stop-color="#55934f"/>
      <stop offset="0.8" stop-color="#5aad45"/>
    </linearGradient>
    <clipPath id="clip-path-3">
      <path id="Path_39" data-name="Path 39" d="M45.054,69.337a1.083,1.083,0,0,0,.319.28l7.677,4.435,1.279.735a1.085,1.085,0,0,0,.623.141,1.105,1.105,0,0,0,.212-.039L64.6,57.6a1.071,1.071,0,0,0-.252-.2l-5.86-3.384-3.1-1.782a1.13,1.13,0,0,0-.28-.113Zm0,0" transform="translate(-45.054 -52.126)"/>
    </clipPath>
    <linearGradient id="linear-gradient-2" x1="-0.742" y1="-0.932" x2="-0.737" y2="-0.932" gradientUnits="objectBoundingBox">
      <stop offset="0.57" stop-color="#3e863d"/>
      <stop offset="0.72" stop-color="#619857"/>
      <stop offset="1" stop-color="#76ac64"/>
    </linearGradient>
    <clipPath id="clip-path-4">
      <path id="Path_41" data-name="Path 41" d="M54.785,52.1a1.092,1.092,0,0,0-.432.139l-8.924,5.151,9.623,17.528a1.073,1.073,0,0,0,.385-.133l8.95-5.17a1.085,1.085,0,0,0,.523-.738L55.1,52.117a1.124,1.124,0,0,0-.219-.022c-.03,0-.059,0-.089,0" transform="translate(-45.428 -52.095)"/>
    </clipPath>
    <linearGradient id="linear-gradient-3" x1="-2.148" y1="-2.103" x2="-2.138" y2="-2.103" gradientUnits="objectBoundingBox">
      <stop offset="0.16" stop-color="#6bbf47"/>
      <stop offset="0.38" stop-color="#79b461"/>
      <stop offset="0.47" stop-color="#75ac64"/>
      <stop offset="0.7" stop-color="#659e5a"/>
      <stop offset="0.9" stop-color="#3e863d"/>
    </linearGradient>
  </defs>
  <g id="_5" data-name="5" transform="translate(-1330 -2469)">
    <g id="_5-2" data-name="5" transform="translate(952 -1534)">
      <rect id="Rectangle_186" data-name="Rectangle 186" width="218" height="160" rx="6" transform="translate(378 4003)" fill="#fff"/>
    </g>
    <g id="Mask_Group_5" data-name="Mask Group 5" transform="translate(658 -4241)" clip-path="url(#clip-path)">
      <g id="Node.js_logo" transform="translate(731.013 6761.223)">
        <path id="Path_32" data-name="Path 32" d="M49.537,60.492a1.786,1.786,0,0,1-.89-.238l-2.833-1.677c-.423-.237-.217-.32-.077-.369a5.72,5.72,0,0,0,1.281-.584.215.215,0,0,1,.211.015l2.177,1.292a.287.287,0,0,0,.263,0l8.487-4.9a.268.268,0,0,0,.13-.229V44.009a.273.273,0,0,0-.131-.234L49.67,38.881a.261.261,0,0,0-.261,0l-8.482,4.894a.27.27,0,0,0-.134.232V53.8a.262.262,0,0,0,.132.227l2.324,1.343c1.262.631,2.033-.113,2.033-.86V44.844a.242.242,0,0,1,.246-.244H46.6a.243.243,0,0,1,.244.244v9.67a2.353,2.353,0,0,1-2.513,2.649,3.638,3.638,0,0,1-1.957-.531l-2.226-1.283a1.8,1.8,0,0,1-.89-1.549V44.007a1.783,1.783,0,0,1,.89-1.547l8.5-4.9a1.861,1.861,0,0,1,1.784,0l8.485,4.9a1.79,1.79,0,0,1,.89,1.547V53.8a1.8,1.8,0,0,1-.89,1.547l-8.485,4.9a1.784,1.784,0,0,1-.894.238" transform="translate(-3.089 -2.937)" fill="#689f63"/>
        <path id="Path_33" data-name="Path 33" d="M52.876,54.13c-3.713,0-4.492-1.7-4.492-3.134a.244.244,0,0,1,.246-.244h1.1a.245.245,0,0,1,.242.208c.166,1.117.659,1.68,2.9,1.68,1.789,0,2.549-.4,2.549-1.353,0-.546-.217-.952-3-1.224-2.324-.229-3.76-.741-3.76-2.6,0-1.712,1.445-2.732,3.864-2.732,2.717,0,4.064.943,4.234,2.97a.247.247,0,0,1-.066.189.253.253,0,0,1-.181.079h-1.1a.244.244,0,0,1-.238-.191c-.266-1.175-.907-1.551-2.651-1.551-1.952,0-2.18.68-2.18,1.19,0,.618.268.8,2.9,1.147,2.609.346,3.847.835,3.847,2.668s-1.542,2.908-4.232,2.908M63.2,43.754h.285a.247.247,0,0,0,.278-.259c0-.251-.172-.251-.268-.251H63.2Zm-.346-.8h.631c.217,0,.642,0,.642.484a.422.422,0,0,1-.346.45c.253.017.27.183.3.416a1.791,1.791,0,0,0,.1.484h-.389c-.011-.085-.07-.552-.07-.578-.025-.1-.062-.155-.191-.155H63.21v.735h-.355Zm-.758.913A1.371,1.371,0,1,0,63.463,42.5,1.373,1.373,0,0,0,62.1,43.864m3.008.006a1.636,1.636,0,1,1-1.636-1.636A1.641,1.641,0,0,1,65.1,43.868" transform="translate(-3.807 -3.323)" fill="#689f63"/>
        <path id="Path_34" data-name="Path 34" d="M20.168,19.236a1.087,1.087,0,0,0-.543-.944l-9-5.177a1.051,1.051,0,0,0-.495-.142h-.093a1.069,1.069,0,0,0-.5.142l-9,5.177A1.1,1.1,0,0,0,0,19.237L.02,33.181a.535.535,0,0,0,.27.469.514.514,0,0,0,.54,0l5.349-3.063a1.1,1.1,0,0,0,.544-.943V23.13a1.084,1.084,0,0,1,.543-.941l2.277-1.312a1.08,1.08,0,0,1,.544-.146,1.061,1.061,0,0,1,.54.146L12.9,22.188a1.084,1.084,0,0,1,.544.941v6.514a1.1,1.1,0,0,0,.545.943l5.346,3.061a.531.531,0,0,0,.544,0,.546.546,0,0,0,.269-.469ZM62.627,26.5a.27.27,0,0,1-.136.235L59.4,28.513a.272.272,0,0,1-.271,0l-3.091-1.781A.269.269,0,0,1,55.9,26.5V22.928a.273.273,0,0,1,.134-.236l3.089-1.784a.274.274,0,0,1,.274,0l3.091,1.784a.271.271,0,0,1,.136.236ZM63.461.069a.543.543,0,0,0-.809.475V14.352a.38.38,0,0,1-.57.329l-2.254-1.3a1.085,1.085,0,0,0-1.086,0l-9,5.195a1.085,1.085,0,0,0-.544.939V29.909a1.088,1.088,0,0,0,.544.941l9,5.2a1.091,1.091,0,0,0,1.087,0l9-5.2a1.089,1.089,0,0,0,.544-.941V4.007a1.089,1.089,0,0,0-.559-.95ZM93.434,22.834a1.087,1.087,0,0,0,.54-.939V19.376a1.087,1.087,0,0,0-.541-.94L84.49,13.244a1.086,1.086,0,0,0-1.09,0l-9,5.194a1.085,1.085,0,0,0-.544.941V29.767a1.091,1.091,0,0,0,.548.945l8.941,5.1a1.084,1.084,0,0,0,1.066.006l5.409-3.006a.543.543,0,0,0,0-.945l-9.054-5.2A.539.539,0,0,1,80.5,26.2V22.94a.539.539,0,0,1,.272-.471l2.817-1.625a.537.537,0,0,1,.542,0l2.819,1.625a.542.542,0,0,1,.272.469V25.5a.542.542,0,0,0,.816.469Zm0,0" fill="#333" fill-rule="evenodd"/>
        <path id="Path_35" data-name="Path 35" d="M90.815,24.254a.206.206,0,0,1,.208,0l1.727,1a.209.209,0,0,1,.1.181v1.995a.209.209,0,0,1-.1.181l-1.727,1a.206.206,0,0,1-.208,0l-1.726-1a.208.208,0,0,1-.106-.181V25.431a.206.206,0,0,1,.1-.181Zm0,0" transform="translate(-7.001 -1.906)" fill="#689f63" fill-rule="evenodd"/>
        <g id="Group_9" data-name="Group 9" transform="translate(24.653 13.152)" clip-path="url(#clip-path-2)">
          <path id="Path_36" data-name="Path 36" d="M73.146,55.849,47.927,43.487,35,69.866,60.215,82.228Zm0,0" transform="translate(-44.041 -51.416)" fill="url(#linear-gradient)"/>
        </g>
        <g id="Group_10" data-name="Group 10" transform="translate(24.874 13.182)" clip-path="url(#clip-path-3)">
          <path id="Path_38" data-name="Path 38" d="M33.219,59.387l17.807,24.1,23.55-17.4-17.808-24.1Zm0,0" transform="translate(-44.123 -51.328)" fill="url(#linear-gradient-2)"/>
        </g>
        <g id="Group_11" data-name="Group 11" transform="translate(25.219 13.154)" clip-path="url(#clip-path-4)">
          <path id="Path_40" data-name="Path 40" d="M45.428,52.1V74.917H64.9V52.1Zm0,0" transform="translate(-45.428 -52.095)" fill="url(#linear-gradient-3)"/>
        </g>
      </g>
    </g>
  </g>
</svg>
