<svg xmlns="http://www.w3.org/2000/svg" width="218" height="160" viewBox="0 0 218 160">
  <g id="_8" data-name="8" transform="translate(-375 -4000)">
    <rect id="Rectangle_186" data-name="Rectangle 186" width="218" height="160" rx="6" transform="translate(375 4000)" fill="#fff"/>
    <g id="Group_79" data-name="Group 79" transform="translate(-709 -2885)">
      <g id="Google_Cloud_logo" transform="translate(1155.956 6935.856)">
        <path id="Path_345" data-name="Path 345" d="M41.5,15.882h2.166l6.173-6.173.3-2.621A27.745,27.745,0,0,0,5,20.625a3.357,3.357,0,0,1,2.166-.13l12.346-2.036s.628-1.04.953-.975a15.4,15.4,0,0,1,21.074-1.6Z" transform="translate(4.611 0)" fill="#ea4335"/>
        <path id="Path_346" data-name="Path 346" d="M45.022,16.875A27.81,27.81,0,0,0,36.64,3.36l-8.664,8.664a15.4,15.4,0,0,1,5.653,12.216v1.538a7.711,7.711,0,1,1,0,15.421H18.208L16.67,42.758v9.248l1.538,1.538H33.629A20.056,20.056,0,0,0,45.022,16.875Z" transform="translate(18.218 3.75)" fill="#4285f4"/>
        <path id="Path_347" data-name="Path 347" d="M16.767,33.508H32.189V21.163H16.767a7.666,7.666,0,0,1-3.182-.692l-2.167.671L5.2,27.314,4.66,29.48a19.948,19.948,0,0,0,12.107,4.029Z" transform="translate(4.215 23.699)" fill="#34a853"/>
        <path id="Path_348" data-name="Path 348" d="M20.983,8A20.056,20.056,0,0,0,8.875,43.954l8.945-8.945a7.711,7.711,0,1,1,10.2-10.2l8.945-8.945A20.035,20.035,0,0,0,20.983,8Z" transform="translate(0 9.16)" fill="#fbbc05"/>
      </g>
      <rect id="Rectangle_147" data-name="Rectangle 147" width="102" height="102" transform="translate(1142 6914)" fill="none"/>
    </g>
  </g>
</svg>
