<svg xmlns="http://www.w3.org/2000/svg" xmlns:xlink="http://www.w3.org/1999/xlink" width="218" height="160" viewBox="0 0 218 160">
  <defs>
    <clipPath id="clip-path">
      <rect id="Rectangle_81" data-name="Rectangle 81" width="102" height="102" transform="translate(969 6739)" fill="#fff" stroke="#707070" stroke-width="1"/>
    </clipPath>
  </defs>
  <g id="_9" data-name="9" transform="translate(-375 -4000)">
    <rect id="Rectangle_186" data-name="Rectangle 186" width="218" height="160" rx="6" transform="translate(375 4000)" fill="#fff"/>
    <g id="Mask_Group_7" data-name="Mask Group 7" transform="translate(-536 -2711)" clip-path="url(#clip-path)">
      <g id="React-icon" transform="translate(937.47 6732.818)">
        <path id="Path_42" data-name="Path 42" d="M128.53,57.191c0-6.095-7.632-11.87-19.334-15.452,2.7-11.927,1.5-21.416-3.788-24.453a8.222,8.222,0,0,0-4.2-1.05v4.182a4.342,4.342,0,0,1,2.138.488c2.55,1.463,3.657,7.032,2.794,14.2-.206,1.763-.544,3.619-.956,5.513A90.879,90.879,0,0,0,93.275,38.57a91.476,91.476,0,0,0-7.8-9.376c6.113-5.682,11.852-8.795,15.752-8.795V16.217h0c-5.157,0-11.908,3.676-18.734,10.051-6.826-6.338-13.577-9.976-18.734-9.976v4.182c3.882,0,9.639,3.094,15.752,8.739a88.57,88.57,0,0,0-7.745,9.358,87.57,87.57,0,0,0-11.927,2.063c-.431-1.875-.75-3.694-.975-5.438-.881-7.164.206-12.733,2.738-14.214a4.173,4.173,0,0,1,2.157-.488V16.311h0a8.362,8.362,0,0,0-4.238,1.05c-5.269,3.038-6.451,12.508-3.732,24.4-11.664,3.6-19.259,9.358-19.259,15.433,0,6.095,7.632,11.87,19.334,15.452-2.7,11.927-1.5,21.416,3.788,24.453a8.244,8.244,0,0,0,4.219,1.05c5.157,0,11.908-3.676,18.734-10.051,6.826,6.338,13.577,9.976,18.734,9.976a8.361,8.361,0,0,0,4.238-1.05c5.269-3.038,6.451-12.508,3.732-24.4C120.935,69.043,128.53,63.267,128.53,57.191ZM104.114,44.683c-.694,2.419-1.556,4.913-2.532,7.407-.769-1.5-1.575-3-2.457-4.5-.863-1.5-1.782-2.963-2.7-4.388C99.088,43.6,101.657,44.083,104.114,44.683ZM95.525,64.655c-1.463,2.532-2.963,4.932-4.519,7.164-2.794.244-5.626.375-8.476.375-2.832,0-5.663-.131-8.439-.356q-2.335-3.347-4.538-7.126-2.138-3.685-3.9-7.464c1.163-2.513,2.475-5.026,3.882-7.482C71,47.234,72.5,44.833,74.054,42.6c2.794-.244,5.626-.375,8.476-.375,2.832,0,5.663.131,8.439.356q2.335,3.347,4.538,7.126,2.138,3.685,3.9,7.464C98.226,59.685,96.932,62.2,95.525,64.655Zm6.057-2.438c1.013,2.513,1.875,5.026,2.588,7.464-2.457.6-5.044,1.106-7.726,1.5.919-1.444,1.838-2.925,2.7-4.444C100.007,65.236,100.814,63.717,101.582,62.217ZM82.567,82.226a77.309,77.309,0,0,1-5.213-6c1.688.075,3.413.131,5.157.131,1.763,0,3.507-.038,5.213-.131A73.2,73.2,0,0,1,82.567,82.226ZM68.615,71.181c-2.663-.394-5.232-.881-7.689-1.481.694-2.419,1.556-4.913,2.532-7.407.769,1.5,1.575,3,2.457,4.5S67.7,69.756,68.615,71.181ZM82.474,32.157a77.31,77.31,0,0,1,5.213,6c-1.688-.075-3.413-.131-5.157-.131-1.763,0-3.507.038-5.213.131A73.2,73.2,0,0,1,82.474,32.157ZM68.6,43.2c-.919,1.444-1.838,2.925-2.7,4.444-.863,1.5-1.669,3-2.438,4.5-1.013-2.513-1.875-5.026-2.588-7.464C63.327,44.1,65.915,43.6,68.6,43.2ZM51.625,66.68c-6.638-2.832-10.933-6.545-10.933-9.489s4.294-6.676,10.933-9.489c1.613-.694,3.375-1.313,5.194-1.894a90.066,90.066,0,0,0,4.219,11.42,88.794,88.794,0,0,0-4.163,11.364C55.02,68.012,53.257,67.374,51.625,66.68Zm10.089,26.8c-2.55-1.463-3.657-7.032-2.794-14.2.206-1.763.544-3.619.956-5.513a90.879,90.879,0,0,0,11.908,2.044,91.476,91.476,0,0,0,7.8,9.376c-6.113,5.682-11.852,8.795-15.752,8.795A4.475,4.475,0,0,1,61.714,93.478ZM106.2,79.188c.881,7.164-.206,12.733-2.738,14.215a4.174,4.174,0,0,1-2.157.488c-3.882,0-9.639-3.094-15.752-8.739a88.572,88.572,0,0,0,7.745-9.358,87.569,87.569,0,0,0,11.927-2.063A52.5,52.5,0,0,1,106.2,79.188Zm7.22-12.508c-1.613.694-3.375,1.313-5.194,1.894A90.068,90.068,0,0,0,104,57.154a88.8,88.8,0,0,0,4.163-11.364c1.857.581,3.619,1.219,5.269,1.913,6.638,2.832,10.933,6.545,10.933,9.489C124.348,60.136,120.054,63.867,113.415,66.68Z" fill="#61dafb"/>
        <path id="Path_43" data-name="Path 43" d="M66.7,16.3Z" transform="translate(-2.957 -0.008)" fill="#61dafb"/>
        <circle id="Ellipse_9" data-name="Ellipse 9" cx="8.57" cy="8.57" r="8.57" transform="translate(73.941 48.621)" fill="#61dafb"/>
        <path id="Path_44" data-name="Path 44" d="M108.216,16.238Z" transform="translate(-7.028 -0.002)" fill="#61dafb"/>
      </g>
    </g>
  </g>
</svg>
