<svg xmlns="http://www.w3.org/2000/svg" xmlns:xlink="http://www.w3.org/1999/xlink" width="71.018" height="50.525" viewBox="0 0 71.018 50.525">
  <defs>
    <clipPath id="clip-path">
      <rect id="Rectangle_170" data-name="Rectangle 170" width="71.018" height="50.525" fill="#17171b"/>
    </clipPath>
  </defs>
  <g id="Mask_Group_16" data-name="Mask Group 16" clip-path="url(#clip-path)">
    <g id="marketing-advertising-svgrepo-com" transform="translate(9.428 -33.738)">
      <g id="Group_3701" data-name="Group 3701" transform="translate(0 36.653)">
        <g id="Group_3700" data-name="Group 3700" transform="translate(0 0)">
          <path id="Path_258" data-name="Path 258" d="M49.421,36.653H2.742A2.745,2.745,0,0,0,0,39.4v39.21a2.745,2.745,0,0,0,2.742,2.742H49.421a2.745,2.745,0,0,0,2.742-2.742V39.4A2.745,2.745,0,0,0,49.421,36.653ZM12.953,38.4H46.679v1.984H12.953Zm-3.734,0H11.2v1.984H9.219Zm-3.734,0H7.469v1.984H5.485ZM1.75,39.4a.993.993,0,0,1,.992-.992h.992v1.984H1.75Zm48.663,39.21a.993.993,0,0,1-.992.992H2.742a.993.993,0,0,1-.992-.992V42.138H50.413Zm0-38.218H48.429V38.4h.992a.993.993,0,0,1,.992.992v.992Z" transform="translate(0 -36.653)"/>
        </g>
      </g>
      <g id="Group_3703" data-name="Group 3703" transform="translate(3.734 44.122)">
        <g id="Group_3702" data-name="Group 3702">
          <path id="Path_259" data-name="Path 259" d="M80.473,109.96H37.528a.875.875,0,1,0,0,1.751H80.473a.875.875,0,1,0,0-1.751Z" transform="translate(-36.653 -109.96)"/>
        </g>
      </g>
      <g id="Group_3705" data-name="Group 3705" transform="translate(10.269 49.723)">
        <g id="Group_3704" data-name="Group 3704">
          <path id="Path_260" data-name="Path 260" d="M124.078,164.94h-1.867a1.811,1.811,0,0,0-1.723,1.259,42.154,42.154,0,0,1-17.983,5.248,1.806,1.806,0,0,0-1.709,1.806v3.8a1.805,1.805,0,0,0,1.709,1.806c.467.025,1.164.074,2.04.172l2.63,9.669a1.813,1.813,0,0,0,1.745,1.334h3.954a.875.875,0,1,0,0-1.751h-.265l-2.237-8.2a38.74,38.74,0,0,1,10.115,4.026,1.811,1.811,0,0,0,1.723,1.259h1.867a1.811,1.811,0,0,0,1.809-1.809v-16.8A1.811,1.811,0,0,0,124.078,164.94Zm-19.547,12.325c-.823-.088-1.482-.134-1.934-.158a.054.054,0,0,1-.05-.058v-3.8a.054.054,0,0,1,.05-.058c.452-.024,1.111-.07,1.934-.158Zm6.264,11.014h-1.875a.058.058,0,0,1-.056-.043l-2.436-8.957c.625.1,1.3.216,2.011.361Zm13.341-4.726a.058.058,0,0,1-.058.058h-1.867a.058.058,0,0,1-.058-.058V173.284a.875.875,0,0,0-1.751,0v8.763a43.445,43.445,0,0,0-14.12-4.559v-4.674a43.444,43.444,0,0,0,14.12-4.559v1.3a.875.875,0,0,0,1.751,0v-2.8a.058.058,0,0,1,.058-.058h1.867a.058.058,0,0,1,.058.058v16.8Z" transform="translate(-100.797 -164.94)"/>
        </g>
      </g>
      <g id="Group_3707" data-name="Group 3707" transform="translate(37.343 59.059)">
        <g id="Group_3706" data-name="Group 3706" transform="translate(0 0)">
          <path id="Path_261" data-name="Path 261" d="M373.009,256.573h-5.6a.875.875,0,1,0,0,1.751h5.6a.875.875,0,1,0,0-1.751Z" transform="translate(-366.532 -256.573)"/>
        </g>
      </g>
      <g id="Group_3709" data-name="Group 3709" transform="translate(37.343 53.457)">
        <g id="Group_3708" data-name="Group 3708">
          <path id="Path_262" data-name="Path 262" d="M371.924,202.076a.875.875,0,0,0-1.174-.391l-3.734,1.867a.875.875,0,1,0,.783,1.566l3.734-1.867A.875.875,0,0,0,371.924,202.076Z" transform="translate(-366.531 -201.592)"/>
        </g>
      </g>
      <g id="Group_3711" data-name="Group 3711" transform="translate(37.343 62.793)">
        <g id="Group_3710" data-name="Group 3710" transform="translate(0 0)">
          <path id="Path_263" data-name="Path 263" d="M371.532,295.184l-3.734-1.867a.875.875,0,0,0-.783,1.566l3.734,1.867a.875.875,0,0,0,.783-1.566Z" transform="translate(-366.531 -293.224)"/>
        </g>
      </g>
    </g>
  </g>
</svg>
