<svg xmlns="http://www.w3.org/2000/svg" width="78" height="78" viewBox="0 0 78 78">
  <g id="Group_3733" data-name="Group 3733" transform="translate(-416 -1584)">
    <rect id="Rectangle_192" data-name="Rectangle 192" width="78" height="78" rx="39" transform="translate(416 1584)" fill="#fff"/>
    <g id="user-experience_1_" data-name="user-experience (1)" transform="translate(391.59 1573.312)">
      <path id="Path_271" data-name="Path 271" d="M57.828,71.536H53.387c-.241-.055-.48-.122-.724-.162a11.824,11.824,0,0,1-9.83-9.151c-.178-.769-.284-1.554-.423-2.332V57.041a1.011,1.011,0,0,0,.076-.234,23.082,23.082,0,0,1,1.473-6.262.982.982,0,0,0,0-.75,23.083,23.083,0,0,1-1.311-4.937c-.073-.52-.16-1.038-.24-1.557V40.453c.113-.67.194-1.347.343-2.009A11.617,11.617,0,0,1,49.568,29.9a15.4,15.4,0,0,1,9.422-.852c1.562.3,3.077.839,4.616,1.261a.822.822,0,0,0,.47.008,24.732,24.732,0,0,1,6.517-1.53,14.723,14.723,0,0,1,7.713,1.182c4.633,2.206,6.706,6.084,6.992,11.04a21.411,21.411,0,0,1-1.518,8.743,1.1,1.1,0,0,0,0,.828,20.159,20.159,0,0,1,1.275,10.855,11.649,11.649,0,0,1-8.492,9.587c-.725.225-1.483.344-2.224.512H69.894a.5.5,0,0,0-.145-.071,24.6,24.6,0,0,1-5.594-1.415,1.087,1.087,0,0,0-.627.014c-1.2.341-2.385.728-3.588,1.052C59.249,71.3,58.533,71.4,57.828,71.536ZM68.4,67.763c.037.032.055.061.077.066a15.1,15.1,0,0,0,6.18.191A8.377,8.377,0,0,0,81.4,62.166a12.414,12.414,0,0,0,.457-5.329c-.078-.711-.221-1.415-.347-2.2l-2.6,3.818a5.341,5.341,0,0,0-2.5-2.339c.093-.134.159-.235.231-.334a31.39,31.39,0,0,0,3.187-5.29.682.682,0,0,0-.01-.657,31.62,31.62,0,0,0-5.434-7.992,32.9,32.9,0,0,0-10.186-7.623.68.68,0,0,0-.657,0,30.166,30.166,0,0,0-4.715,2.768c-.312.222-.622.447-.957.688a5.312,5.312,0,0,0-2.208-2.561c.648-.467,1.239-.908,1.847-1.324s1.218-.791,1.865-1.21a14.213,14.213,0,0,0-6.348-.254,8.375,8.375,0,0,0-6.7,5.847,12.391,12.391,0,0,0-.457,5.33c.079.711.222,1.415.348,2.2l2.592-3.8a5.262,5.262,0,0,0,2.568,2.265c-.111.151-.193.263-.276.374a30.739,30.739,0,0,0-3.189,5.289.68.68,0,0,0-.006.657,31.617,31.617,0,0,0,5.4,7.963,32.366,32.366,0,0,0,10.256,7.658.762.762,0,0,0,.6,0q2.272-1.282,4.514-2.615c.389-.23.743-.519,1.14-.8a5.286,5.286,0,0,0,2.337,2.505C70.856,66.093,69.637,66.923,68.4,67.763Zm13.031-22.1c.049-.06.077-.078.082-.1a14.936,14.936,0,0,0,.193-6.221,8.373,8.373,0,0,0-5.722-6.669,12.754,12.754,0,0,0-6.236-.389c-.453.071-.9.169-1.456.273A38.411,38.411,0,0,1,81.434,45.665ZM59.421,67.779A38.47,38.47,0,0,1,46.248,54.614a15.035,15.035,0,0,0-.231,6.4,8.432,8.432,0,0,0,4.572,6.18,10.814,10.814,0,0,0,4.555,1.06A16.6,16.6,0,0,0,59.421,67.779Z" fill="#2272ec"/>
      <path id="Path_272" data-name="Path 272" d="M210.17,171.129a4.989,4.989,0,0,0-1.256-3.942,10.357,10.357,0,0,1-2.047-4.022,7.735,7.735,0,0,1,6.055-9.579,7.459,7.459,0,0,1,8.795,5.775,8.729,8.729,0,0,1-1.293,6.83q-.5.773-1.028,1.526a4.553,4.553,0,0,0-.844,2.745,12.671,12.671,0,0,1-.11,2.5,3.116,3.116,0,0,1-3.093,2.442,16.374,16.374,0,0,1-2.668-.1,3.136,3.136,0,0,1-2.51-3.086C210.168,171.855,210.17,171.492,210.17,171.129Zm4.186-4.107v.007c.432,0,.865.012,1.3-.008a.47.47,0,0,0,.327-.172c.516-.776,1.013-1.566,1.52-2.348a5.619,5.619,0,0,0,.975-4.079A3.975,3.975,0,0,0,215.513,157a4.058,4.058,0,0,0-4.474,1.391,4.468,4.468,0,0,0-.472,5.094,20.068,20.068,0,0,0,1.542,2.378c.258.389.44.937.8,1.118A3.549,3.549,0,0,0,214.356,167.022Zm-.8,5.011h1.616V170.4h-1.616Z" transform="translate(-150.414 -114.26)" fill="#2272ec"/>
      <path id="Path_273" data-name="Path 273" d="M406.487,391.41a1.679,1.679,0,1,1-1.668-1.66A1.644,1.644,0,0,1,406.487,391.41Z" transform="translate(-330.384 -330.698)" fill="#2272ec"/>
      <path id="Path_274" data-name="Path 274" d="M153.4,139.414a1.643,1.643,0,0,1-1.717,1.655,1.676,1.676,0,1,1,1.717-1.655Z" transform="translate(-98.578 -99.862)" fill="#2272ec"/>
    </g>
  </g>
</svg>
