<svg xmlns="http://www.w3.org/2000/svg" width="78" height="78" viewBox="0 0 78 78">
  <g id="Group_3732" data-name="Group 3732" transform="translate(-816 -1584)">
    <g id="Group_3715" data-name="Group 3715" transform="translate(-400)">
      <rect id="Rectangle_192" data-name="Rectangle 192" width="78" height="78" rx="39" transform="translate(1216 1584)" fill="#fff"/>
    </g>
    <g id="browser-website-svgrepo-com_1_" data-name="browser-website-svgrepo-com (1)" transform="translate(823.386 1592.733)">
      <g id="Group_3720" data-name="Group 3720" transform="translate(10.614 13.267)">
        <g id="Group_3719" data-name="Group 3719">
          <path id="Path_265" data-name="Path 265" d="M140.56,128H105.865a3.469,3.469,0,0,0-3.469,3.469v27.756a3.469,3.469,0,0,0,3.469,3.469H140.56a3.469,3.469,0,0,0,3.47-3.469V131.469A3.469,3.469,0,0,0,140.56,128Zm0,31.225H105.865V138.408H140.56Zm0-24.286H105.865v-3.469H140.56Z" transform="translate(-102.396 -128)" fill="#2272ec"/>
        </g>
      </g>
      <g id="Group_3722" data-name="Group 3722" transform="translate(41.84 16.736)">
        <g id="Group_3721" data-name="Group 3721">
          <circle id="Ellipse_33" data-name="Ellipse 33" cx="1.735" cy="1.735" r="1.735" fill="#2272ec"/>
        </g>
      </g>
      <g id="Group_3724" data-name="Group 3724" transform="translate(34.901 16.736)">
        <g id="Group_3723" data-name="Group 3723">
          <circle id="Ellipse_34" data-name="Ellipse 34" cx="1.735" cy="1.735" r="1.735" fill="#2272ec"/>
        </g>
      </g>
      <g id="Group_3726" data-name="Group 3726" transform="translate(27.962 16.736)">
        <g id="Group_3725" data-name="Group 3725">
          <circle id="Ellipse_35" data-name="Ellipse 35" cx="1.735" cy="1.735" r="1.735" fill="#2272ec"/>
        </g>
      </g>
      <g id="Group_3728" data-name="Group 3728" transform="translate(22.757 27.147)">
        <g id="Group_3727" data-name="Group 3727">
          <path id="Path_266" data-name="Path 266" d="M208.568,230.707a1.742,1.742,0,0,0-2.405.481l-5.922,8.882-5.473-4.1a1.734,1.734,0,1,0-2.081,2.774l6.939,5.205a1.735,1.735,0,0,0,1.041.347,1.62,1.62,0,0,0,.291-.025,1.731,1.731,0,0,0,1.152-.747l6.939-10.408A1.735,1.735,0,0,0,208.568,230.707Z" transform="translate(-191.993 -230.418)" fill="#2272ec"/>
        </g>
      </g>
    </g>
  </g>
</svg>
