<svg xmlns="http://www.w3.org/2000/svg" width="78" height="78" viewBox="0 0 78 78">
  <g id="Group_3731" data-name="Group 3731" transform="translate(-1216 -1584)">
    <rect id="Rectangle_192" data-name="Rectangle 192" width="78" height="78" rx="39" transform="translate(1216 1584)" fill="#fff"/>
    <g id="team-svgrepo-com" transform="translate(1228 1596.301)">
      <g id="_24x24_user--dark" data-name="24x24/user--dark">
        <rect id="Rectangle" width="55" height="55" transform="translate(0 -0.301)" fill="none"/>
      </g>
      <path id="Combined_Shape" data-name="Combined Shape" d="M13.659,31.6C2.614,31.6-.656,29.568-1.2,29.161l-.8-.6v-1A8.742,8.742,0,0,1,.992,20.592,16.042,16.042,0,0,1,6.14,17.925a11.852,11.852,0,0,0,2.115-.907,3.093,3.093,0,0,0-.481-1.94A9.976,9.976,0,0,1,4.828,7.765,9.335,9.335,0,0,1,13.525-2L13.659-2,13.794-2a9.335,9.335,0,0,1,8.7,9.757,9.819,9.819,0,0,1-2.965,7.3,3.322,3.322,0,0,0-.461,1.953,11.858,11.858,0,0,0,2.115.908,16.046,16.046,0,0,1,5.148,2.668,8.744,8.744,0,0,1,2.992,6.968v1l-.8.6C27.973,29.57,24.7,31.6,13.659,31.6ZM2.1,26.312c1.486.5,4.886,1.285,11.562,1.285s10.075-.785,11.562-1.283c-.448-2.626-2.414-3.54-5.409-4.629a14.665,14.665,0,0,1-2.8-1.235,3.728,3.728,0,0,1-1.934-3.126,7.333,7.333,0,0,1,1.244-4.668l.129-.19.169-.156a5.825,5.825,0,0,0,1.873-4.5l0-.094.005-.094a5.353,5.353,0,0,0-4.833-5.619A5.353,5.353,0,0,0,8.826,7.625l.005.09,0,.09a5.972,5.972,0,0,0,1.859,4.525l.138.131.111.154a7.092,7.092,0,0,1,1.307,4.714,3.728,3.728,0,0,1-1.934,3.119,14.661,14.661,0,0,1-2.8,1.235C4.512,22.773,2.545,23.686,2.1,26.312Z" transform="translate(13.659 18.212)" fill="#2272ec"/>
      <path id="Combined_Shape-2" data-name="Combined Shape" d="M10.121,31.518c-1.255-.057-2.426-.145-3.483-.26A17.663,17.663,0,0,1-.91,29.341L-2,28.784V27.56A8.742,8.742,0,0,1,.992,20.592,16.042,16.042,0,0,1,6.14,17.925a11.852,11.852,0,0,0,2.115-.907,3.092,3.092,0,0,0-.481-1.94A9.976,9.976,0,0,1,4.828,7.765,9.335,9.335,0,0,1,13.525-2L13.659-2,13.794-2a9.335,9.335,0,0,1,8.692,9.851l-3.993-.23a5.353,5.353,0,0,0-4.833-5.619A5.353,5.353,0,0,0,8.826,7.625l.005.09,0,.09a5.972,5.972,0,0,0,1.859,4.525l.138.131.111.154a7.092,7.092,0,0,1,1.307,4.714,3.728,3.728,0,0,1-1.934,3.119,14.66,14.66,0,0,1-2.8,1.235c-3,1.089-4.962,2-5.409,4.63a13.647,13.647,0,0,0,4.713.947l.091,0,.09.01c.994.11,2.109.194,3.313.249Z" transform="translate(2.277 6.83)" fill="#2272ec"/>
      <path id="Combined_Shape-3" data-name="Combined Shape" d="M1.375,31.518l-.183-4c1.2-.055,2.318-.139,3.313-.249l.09-.01.091,0A13.647,13.647,0,0,0,9.4,26.314c-.447-2.628-2.414-3.541-5.409-4.63a14.66,14.66,0,0,1-2.8-1.235A3.728,3.728,0,0,1-.747,17.33,7.092,7.092,0,0,1,.56,12.616l.111-.154.138-.131A5.972,5.972,0,0,0,2.667,7.806l0-.09.005-.09A5.353,5.353,0,0,0-2.163,2.006,5.353,5.353,0,0,0-7,7.625l-3.993.23A9.278,9.278,0,0,1-8.67,1.142,9.278,9.278,0,0,1-2.3-2L-2.163-2-2.029-2A9.278,9.278,0,0,1,4.343,1.142,9.277,9.277,0,0,1,6.668,7.765a9.976,9.976,0,0,1-2.946,7.313,3.092,3.092,0,0,0-.481,1.94,11.852,11.852,0,0,0,2.115.907A16.042,16.042,0,0,1,10.5,20.592,8.742,8.742,0,0,1,13.5,27.56v1.224l-1.09.557a17.663,17.663,0,0,1-7.548,1.917C3.8,31.373,2.629,31.461,1.375,31.518Z" transform="translate(40.865 6.83)" fill="#2272ec"/>
    </g>
  </g>
</svg>
