<svg id="kingdom-logo" xmlns="http://www.w3.org/2000/svg" width="79.059" height="85" viewBox="0 0 79.059 85">
  <g id="Group_473" data-name="Group 473" transform="translate(28.053 36.97)">
    <path id="Path_167" data-name="Path 167" d="M177.859,187.145a2.564,2.564,0,0,1-1.969-.962,2.473,2.473,0,0,1,1.969-3.983,2.564,2.564,0,0,1,1.969.962,2.473,2.473,0,0,1,0,3.022A2.367,2.367,0,0,1,177.859,187.145Z" transform="translate(-129.463 -139.115)" fill="#ffc55f"/>
    <path id="Path_168" data-name="Path 168" d="M87.471,152.895v4.167h6.135V162.1H87.974a8.549,8.549,0,0,1-6.09-2.564,8.748,8.748,0,0,1-1.831-2.747,8.457,8.457,0,0,1-.687-3.388v-5.632H90.9L88.57,143.6H75.2v9.707a12.159,12.159,0,0,0,1.007,4.991,14.106,14.106,0,0,0,2.747,4.121,12.866,12.866,0,0,0,4.121,2.793,12.312,12.312,0,0,0,4.991,1.007h9.661v-6.273l-3.938-7.051Z" transform="translate(-75.154 -118.189)" fill="#fff"/>
    <path id="Path_169" data-name="Path 169" d="M124.183,103.393c-.778-2.839-1.511-5.632-2.289-8.47a9.618,9.618,0,0,0-1.236-2.793,9.012,9.012,0,0,0-2.015-2.152,8.889,8.889,0,0,0-2.61-1.374,8.224,8.224,0,0,0-2.61-.458l-.6-.046H94.88a2.694,2.694,0,0,0-2.61,2.015,9.241,9.241,0,0,1-1.328,2.976A10.229,10.229,0,0,1,88.79,95.38a9.9,9.9,0,0,1-2.747,1.465,9.243,9.243,0,0,1-3.205.549H79.267V94.052L75.1,96.158v14.514h4.167v-9.157H93.46v9.157h4.167V98.127a.8.8,0,0,0-.778-.778H93.46l2.472-4.579a.982.982,0,0,1,.87-.5h7.051l-.046,18.406h4.167V92.221h3.983a5.933,5.933,0,0,1,3.709,1.236,6.115,6.115,0,0,1,2.152,3.251l3.709,13.828h4.579C125.465,108.2,124.824,105.774,124.183,103.393Z" transform="translate(-75.1 -88.1)" fill="#fff"/>
    <path id="Path_170" data-name="Path 170" d="M121.175,166.344V147.938h-5.494L113.3,144h24.084v3.938H125.113v14.469h5.723a8.458,8.458,0,0,0,3.388-.687,9.662,9.662,0,0,0,2.793-1.877,9.082,9.082,0,0,0,1.877-2.793,8.457,8.457,0,0,0,.687-3.388v-3.526h3.938v3.388a12.312,12.312,0,0,1-1.007,4.991,12.862,12.862,0,0,1-6.822,6.822,13.125,13.125,0,0,1-4.991,1.007Z" transform="translate(-95.81 -118.405)" fill="#fff"/>
  </g>
  <g id="Group_474" data-name="Group 474">
    <path id="Path_171" data-name="Path 171" d="M129.246,72.264a3.145,3.145,0,0,1-2.518-1.236,3.228,3.228,0,0,1,0-3.892,3.183,3.183,0,0,1,5.037,0,3.228,3.228,0,0,1,0,3.892h0A3.145,3.145,0,0,1,129.246,72.264Zm0-5.174a2.017,2.017,0,0,0-1.6.778,1.992,1.992,0,0,0,0,2.427,2.029,2.029,0,0,0,3.159,0h0a1.992,1.992,0,0,0,0-2.427A1.811,1.811,0,0,0,129.246,67.09Z" transform="translate(-74.656 -38.932)" fill="#fff"/>
    <path id="Path_172" data-name="Path 172" d="M36.434,58.784c-1.964,0-3.244-.641-3.792-1.923a2.673,2.673,0,0,1-.091-1.969L13.5,34.976l.137-.183L31.5,42.713V32.366l10.416,3.846.594-24.175L60.327,28.382l4.431-10.165,7.4,7.188L78.967,7l.228.046,1.1,27.563a2.783,2.783,0,0,1,1.325,1.465c.594,1.419,0,2.93-1.736,4.579a16.991,16.991,0,0,1-1.508,1.236l-4.249.046.365-.229c4.98-3.113,5.162-4.3,4.98-4.67-.137-.321-.685-.5-1.6-.5a22.235,22.235,0,0,0-4.386.641l-.137.046v-.137a4.531,4.531,0,0,0-.5-2.015L72.8,34.93l.137-.046a25.5,25.5,0,0,1,4.2-.687h.64l-4.523-4.4-1.371,3.8-.137-.137a5.129,5.129,0,0,0-1.827-1.145l-.091-.046,1.553-4.35L65.673,22.43l-3.381,7.738,2.97,2.7-.137.092a6.038,6.038,0,0,0-1.1,1.053,4.026,4.026,0,0,0-.274.458l-.091.137h-.137l-2.239-2.06-3.244,7.143c1.416-.549,2.924-1.145,4.8-1.831l.137-.046v.137a5.227,5.227,0,0,0,.731,1.923l.091.137-.137.046c-2.376.87-4.751,1.786-6.99,2.747l-1.827.778c-4.02,1.74-12.746,6.319-12.838,6.364-5.756,3.342-7.492,5.265-7.173,6,.137.321.685.5,1.6.5a23.3,23.3,0,0,0,5.117-.824l.137-.046v2.427H41.6a19.922,19.922,0,0,1-4.431.733A4.171,4.171,0,0,1,36.434,58.784Zm-2.513-6.044.457-.458a33.544,33.544,0,0,1,4.706-3.388.346.346,0,0,1,.183-.092l-5.345-2.381ZM31.5,50.314V45.369l-8.223-3.617ZM41.6,47.2l.228-8.425-7.9-2.93v7.921Zm2.421-1.1c2.376-1.236,4.934-2.472,7.584-3.663l-7.4-2.747Zm10.873-5.037,4.477-10.348L44.794,17.394l-.5,19.734Zm22.8-10.439-.457-11.859-3.107,8.425Z" transform="translate(-13.5 -7)" fill="#ffc55f"/>
  </g>
</svg>
