<svg xmlns="http://www.w3.org/2000/svg" width="295.701" height="114.344" viewBox="0 0 295.701 114.344">
  <g id="logo3" transform="translate(-5.4 -63.4)">
    <g id="Group_3737" data-name="Group 3737" transform="translate(53.043 121.822)">
      <g id="Group_3736" data-name="Group 3736">
        <path id="Path_275" data-name="Path 275" d="M161.936,144.469l3.28-11.091,11.559-1.718L156,122.6Z" transform="translate(31.605 -88.547)" fill="#fff"/>
        <path id="Path_276" data-name="Path 276" d="M241.5,125.481c-1.25-4.53-2.5-9.06-3.593-13.59a16.8,16.8,0,0,0-2.031-4.53,13.789,13.789,0,0,0-3.28-3.437,13.544,13.544,0,0,0-4.218-2.187,16.539,16.539,0,0,0-4.842-.781H211.509a2.737,2.737,0,0,0-2.656,2.656v13.434c-.469-1.562-.937-3.28-1.406-4.842-.937-3.28-1.874-6.248-4.53-8.435a11.638,11.638,0,0,0-3.905-2.031,15.942,15.942,0,0,0-4.686-.469c-3.437-.156-6.717-.156-10.154-.312-3.593,0-7.029-.156-10.622-.156h-6.092a15.722,15.722,0,0,0-6.092,1.25,18.586,18.586,0,0,0-5.155,3.437,17.78,17.78,0,0,0-2.812,3.905l-1.25,2.343-1.562-2.031c-.781-.937-1.406-1.874-2.187-2.656a20.639,20.639,0,0,0-12.809-6.092H105.6l4.061,6.717h8.748V137.2h28.9l-5.467-11.091h-3.124v4.374h-13.59V109.235c0-1.718,1.718-1.718,2.812-1.718.781,0,6.248.156,6.561.156a9.571,9.571,0,0,1,4.061.625,13.589,13.589,0,0,1,5.155,3.437,27.182,27.182,0,0,1,4.842,7.342c.469.937,4.374,9.529,6.717,12.34l.937.937.156.156c.312.312.625.469.937.781.156.156.469.312.625.469l.312.156a17.571,17.571,0,0,0,3.28,1.874,12.409,12.409,0,0,0,3.437.937c1.406.312,12.965.312,12.965.312v-6.717h-8.591a13.213,13.213,0,0,1-7.654-3.124,14.081,14.081,0,0,1-1.406-1.562h0v-.156a10.5,10.5,0,0,1-.937-1.874,10.093,10.093,0,0,1-.781-4.218v-.937a12.625,12.625,0,0,1,.781-4.218,11.127,11.127,0,0,1,2.343-3.437,13.363,13.363,0,0,1,3.437-2.343,10.093,10.093,0,0,1,4.218-.781h.937a9.3,9.3,0,0,1,4.218.937,13.361,13.361,0,0,1,3.437,2.343,10.345,10.345,0,0,1,2.343,3.437,10.093,10.093,0,0,1,.781,4.218v8.748h6.717v-10.31a15.722,15.722,0,0,0-1.25-6.092c-.156-.156-.156-.469-.312-.625l-1.25-2.5H192.3a9.131,9.131,0,0,1,5.936,2.031,10.418,10.418,0,0,1,3.437,5.155l6.092,22.025h7.967V107.673h6.4a9.131,9.131,0,0,1,5.936,2.031,10.418,10.418,0,0,1,3.437,5.155l5.936,22.181h7.342C243.688,133.291,242.594,129.386,241.5,125.481Z" transform="translate(3.277 -100.8)" fill="#fff"/>
        <path id="Path_277" data-name="Path 277" d="M107.682,115.84v6.717h9.841v8.123h-9.06a11.987,11.987,0,0,1-5.311-1.093,14.425,14.425,0,0,1-4.374-2.968,16.642,16.642,0,0,1-2.968-4.374,12.678,12.678,0,0,1-1.093-5.467v-9.06h18.433L109.4,101H88v15.465a19.6,19.6,0,0,0,1.562,7.967,20.983,20.983,0,0,0,4.374,6.561,18.61,18.61,0,0,0,6.561,4.374,19.6,19.6,0,0,0,7.967,1.562h15.465v-10l-6.4-11.4Z" transform="translate(-6.616 -100.688)" fill="#fff"/>
        <path id="Path_278" data-name="Path 278" d="M114.629,125.581c-1.25-4.53-2.5-9.06-3.593-13.59a16.8,16.8,0,0,0-2.031-4.53,13.788,13.788,0,0,0-3.28-3.437,13.543,13.543,0,0,0-4.218-2.187,16.881,16.881,0,0,0-4.218-.781l-.937-.156H67.766a4.2,4.2,0,0,0-4.218,3.28,19.242,19.242,0,0,1-2.187,4.842,15.087,15.087,0,0,1-3.437,3.593,19.477,19.477,0,0,1-4.374,2.343,13.745,13.745,0,0,1-5.155.781h-5.78v-5.311L35.9,113.865V137.14h6.717V122.457H65.423V137.14H72.14V116.989a1.344,1.344,0,0,0-1.25-1.25H65.423l4.061-7.342a1.64,1.64,0,0,1,1.406-.781H82.137V137.14h6.717V107.773h6.4a9.131,9.131,0,0,1,5.936,2.031,10.418,10.418,0,0,1,3.437,5.155l5.936,22.181h7.342C116.659,133.235,115.566,129.33,114.629,125.581Z" transform="translate(-35.9 -100.744)" fill="#fff"/>
      </g>
    </g>
    <g id="Group_3738" data-name="Group 3738" transform="translate(5.4 63.4)">
      <path id="Path_279" data-name="Path 279" d="M67.112,98.745h0a4.259,4.259,0,0,1-6.717,0h0a4.46,4.46,0,0,1,0-5.155h0a4.259,4.259,0,0,1,6.717,0h0A4.459,4.459,0,0,1,67.112,98.745Z" transform="translate(25.05 -47.353)" fill="#fff"/>
      <path id="Path_280" data-name="Path 280" d="M115.995,110.575a4.593,4.593,0,0,0-2.187-2.343L112.09,63.4,101,93.548,88.971,81.832,81.786,98.39,52.731,71.835l-1.093,39.208L34.767,104.8v16.87L5.4,108.7l31.085,32.491a4.36,4.36,0,0,0,.156,3.124c1.25,2.812,4.53,3.124,7.186,2.968a34.583,34.583,0,0,0,7.186-1.093v-3.749c-6.4,1.562-10.466,1.875-11.091.469-.781-1.718,3.905-5.467,11.716-10h0s14.371-7.5,20.932-10.31l2.968-1.25c3.905-1.718,7.81-3.124,11.4-4.374a7.746,7.746,0,0,1-1.25-3.124c-2.812.937-5.467,2.031-8.123,3.124l5.467-12.5,3.905,3.593a3.268,3.268,0,0,1,.625-.937,6.659,6.659,0,0,1,1.874-1.718l-4.686-4.374,5.623-12.965L99.906,97.3l-2.5,7.029a12.77,12.77,0,0,1,3.124,1.874l2.187-6.248,7.967,7.654h-1.562a56.88,56.88,0,0,0-6.873,1.093,8.4,8.4,0,0,1,.781,3.28c5.623-1.25,9.372-1.406,10-.156.625,1.406-2.5,4.374-8.123,7.81H111a28.523,28.523,0,0,0,2.5-2.031C115.058,115.886,117.088,113.386,115.995,110.575Zm-95.6,8.591,14.371,6.4v8.591Zm26.555,12.34a62.547,62.547,0,0,0-7.654,5.467,7.215,7.215,0,0,0-1.093,1.093V127.133l9.372,4.061A.812.812,0,0,1,46.951,131.507Zm4.218-2.5-12.809-5.78V109.95l13.278,4.842Zm3.593-1.874.312-11.091,12.809,4.686C63.509,122.759,59.135,124.946,54.762,127.133ZM72.725,118.7h0l-17.5-6.4.781-32.647,24.056,22.181ZM103.811,96.2l5.467-14.684.781,20.619Z" transform="translate(-5.4 -63.4)" fill="#ffc55f"/>
    </g>
  </g>
</svg>
