<svg xmlns="http://www.w3.org/2000/svg" xmlns:xlink="http://www.w3.org/1999/xlink" width="74.622" height="57.751" viewBox="0 0 74.622 57.751">
  <defs>
    <clipPath id="clip-path">
      <rect id="Rectangle_170" data-name="Rectangle 170" width="74.622" height="57.751" transform="translate(753 8200)" fill="#17171b"/>
    </clipPath>
    <clipPath id="clip-path-2">
      <rect id="Rectangle_172" data-name="Rectangle 172" width="71.743" height="55.523" transform="translate(0 0)" fill="#17171b"/>
    </clipPath>
  </defs>
  <g id="Mask_Group_16" data-name="Mask Group 16" transform="translate(-753 -8200)" clip-path="url(#clip-path)">
    <g id="ux" transform="translate(764.405 8201.743)">
      <path id="Path_208" data-name="Path 208" d="M562.121,373.719c-1.372,1.631-2.711,3.289-4.115,4.9-3,3.44-6.037,6.847-9.045,10.276a1.694,1.694,0,0,0-.367.783,6.341,6.341,0,0,1-6.41,5.557c-1.982.027-3.964.005-5.945.005-.508,0-.967-.1-1.134-.664a.94.94,0,0,1,.556-1.134,2.458,2.458,0,0,0,1.2-2.322,8.932,8.932,0,0,1,.346-3.359,6.3,6.3,0,0,1,5.276-4.266,1.161,1.161,0,0,0,.567-.221c1.6-1.393,3.191-2.8,4.747-4.174v-9.2h1.75v7.63c.281-.238.454-.373.621-.518,2.29-2.02,4.649-3.98,6.863-6.091,1.577-1.5,3.542-1.9,5.1.162A2.236,2.236,0,0,1,562.121,373.719Zm-14.348,13.813a1.34,1.34,0,0,1,.135-.205l12.069-13.689a1.9,1.9,0,0,0,.346-.529.944.944,0,0,0-.243-1.118.96.96,0,0,0-1.172-.194,2.677,2.677,0,0,0-.551.405q-6.132,5.4-12.253,10.805c-.513.454-1.021.907-1.507,1.339C545.656,385.4,546.677,386.431,547.773,387.532Zm-9.591,5.837c1.577,0,3.046.059,4.5-.016a4.343,4.343,0,0,0,4.05-3.759.861.861,0,0,0-.211-.626c-1.021-1.053-2.106-2.052-3.089-3.137a1.275,1.275,0,0,0-1.582-.351,4.577,4.577,0,0,0-3.181,4.525A6.492,6.492,0,0,1,538.182,393.37Z" transform="translate(-507.873 -351.723)" fill="#17171b"/>
      <path id="Path_209" data-name="Path 209" d="M280.216,823.042a5.26,5.26,0,0,1-2.344-1.156c-.324-.319-.61-.675-.972-1.08.572-.335,1.069-.621,1.588-.929.184.211.34.421.529.6a2.889,2.889,0,0,0,2.036.751q9.793,0,19.581,0a2.676,2.676,0,0,0,2.857-2.651c.054-.9.011-1.8.011-2.765h-16.26V814H303.5v-3.6h1.841v.572c0,2.209-.065,4.423.016,6.631.1,2.867-1.247,4.876-4.018,5.427Q290.781,823.047,280.216,823.042Z" transform="translate(-263.655 -768.661)" fill="#17171b"/>
      <path id="Path_210" data-name="Path 210" d="M120.269,38.625c-.394.448-.767.875-1.193,1.355-.9-.837-2.025-.691-3.11-.691q-9.185,0-18.366,0a2.7,2.7,0,0,0-2.857,2.047,10.094,10.094,0,0,0-.13,1.566H109.09v1.8H94.672v4.838c.5-.07.977-.108,1.436-.216a.556.556,0,0,0,.319-.41c.032-.772.016-1.55.016-2.36h1.793v2.668c6.286,1.015,9.9,4.622,10.908,10.892h2.662v1.814c-.691,0-1.388.038-2.084-.011-.524-.038-.691.135-.734.659a11.679,11.679,0,0,1-7.873,9.6c-.907.281-1.847.443-2.851.68v2.635h-1.82c0-.68-.038-1.35.011-2.014.043-.551-.113-.729-.691-.8a11.664,11.664,0,0,1-10.1-10.336c-.011-.1-.022-.211-.043-.383H82.9V60.123h2.662c.13-.664.216-1.291.373-1.9a11.577,11.577,0,0,1,6.475-7.873.63.63,0,0,0,.41-.686c-.011-2.457-.005-4.919-.005-7.376A4.413,4.413,0,0,1,95.4,37.956a5.176,5.176,0,0,1,2.1-.464c6.545-.032,13.09-.022,19.64-.022A4.686,4.686,0,0,1,120.269,38.625ZM94.381,62.683c-1.955-2.408-2.047-4.752-.292-6.61a4.523,4.523,0,0,1,5.9-.545,4.413,4.413,0,0,1,1.771,2.684,4.59,4.59,0,0,1-1.469,4.466,6.542,6.542,0,0,1,2.565,2.489,7.182,7.182,0,0,1,.859,3.542,9.988,9.988,0,0,0,3.532-6.766h-1.712V60.112H107.2a9.751,9.751,0,0,0-8.932-8.926v1.669H96.454V51.207a9.694,9.694,0,0,0-8.937,8.926h1.636v1.825H87.5c-.038,2.187,1.966,5.972,3.5,6.61A6.478,6.478,0,0,1,94.381,62.683Zm3.888,8.208a8.086,8.086,0,0,0,3.434-.907.525.525,0,0,0,.173-.389,18.681,18.681,0,0,0-.076-1.906,4.5,4.5,0,0,0-3.58-3.845,4.611,4.611,0,0,0-4.8,2.192,6.749,6.749,0,0,0-.589,3.661.385.385,0,0,0,.173.286,8.985,8.985,0,0,0,3.456.95v-1.7h1.8C98.269,69.816,98.269,70.356,98.269,70.891Zm-.945-8.964a2.715,2.715,0,0,0,2.743-2.657,2.755,2.755,0,0,0-2.716-2.759,2.72,2.72,0,0,0-2.7,2.705A2.677,2.677,0,0,0,97.324,61.927Z" transform="translate(-80.131 -37.468)" fill="#17171b"/>
      <path id="Path_211" data-name="Path 211" d="M612.819,104.7h9.553c1,0,1.285.292,1.285,1.307v10.082c0,1.015-.286,1.312-1.28,1.312H603.169c-.961,0-1.269-.313-1.269-1.28V105.985c0-.988.308-1.285,1.312-1.285Zm8.98,10.849v-9H603.752v9Z" transform="translate(-571.105 -101.069)" fill="#17171b"/>
      <path id="Path_212" data-name="Path 212" d="M44.319,714v-4.5h1.787V714h6.043c.929,0,1.237.308,1.237,1.247,0,2.192.005,4.39,0,6.583,0,.913-.3,1.226-1.2,1.226q-9.688.008-19.375,0c-.869,0-1.177-.319-1.183-1.188q-.008-3.345,0-6.691c0-.859.329-1.177,1.2-1.177Zm7.214,7.209V715.84H33.476v5.368Z" transform="translate(-31.625 -673.21)" fill="#17171b"/>
      <path id="Path_213" data-name="Path 213" d="M37.149,113.867c-1.4,0-2.792.005-4.19,0-.967-.005-1.258-.3-1.258-1.274v-6.523c0-.967.308-1.269,1.269-1.269h8.376c.907,0,1.226.308,1.226,1.2q.008,3.337,0,6.68c-.005.875-.308,1.177-1.183,1.183C39.973,113.872,38.558,113.867,37.149,113.867Zm3.569-1.852v-5.373H33.547v5.373Z" transform="translate(-31.696 -101.164)" fill="#17171b"/>
      <path id="Path_214" data-name="Path 214" d="M520.75,946.26H519V944.5h1.75Z" transform="translate(-492.681 -895.52)" fill="#17171b"/>
      <path id="Path_215" data-name="Path 215" d="M669.6,241.444V239.7h14.445v1.744Z" transform="translate(-635.149 -228.779)" fill="#17171b"/>
      <path id="Path_216" data-name="Path 216" d="M779.413,172.6v1.739H770.4V172.6Z" transform="translate(-730.506 -165.303)" fill="#17171b"/>
      <path id="Path_217" data-name="Path 217" d="M670,172.4h3.553v1.744H670Z" transform="translate(-635.527 -165.114)" fill="#17171b"/>
      <path id="Path_218" data-name="Path 218" d="M225.189,860.5v1.739H217.1V860.5Z" transform="translate(-207.084 -816.056)" fill="#17171b"/>
      <path id="Path_219" data-name="Path 219" d="M103.782,862.339H99.3V860.6h4.482Z" transform="translate(-95.646 -816.15)" fill="#17171b"/>
      <path id="Path_220" data-name="Path 220" d="M102.753,174.344H99.2V172.6h3.553Z" transform="translate(-95.551 -165.303)" fill="#17171b"/>
    </g>
  </g>
</svg>
