<svg xmlns="http://www.w3.org/2000/svg" xmlns:xlink="http://www.w3.org/1999/xlink" width="71.018" height="50.525" viewBox="0 0 71.018 50.525">
  <defs>
    <clipPath id="clip-path">
      <rect id="Rectangle_170" data-name="Rectangle 170" width="71.018" height="50.525" fill="#17171b"/>
    </clipPath>
  </defs>
  <g id="Mask_Group_16" data-name="Mask Group 16" clip-path="url(#clip-path)">
    <path id="outsourcing" d="M53.729,20.423h0a2.945,2.945,0,0,0-5.049,1.15H46.118a18.78,18.78,0,0,0-2.9-9.278l1.909-1.909a2.921,2.921,0,0,0,1.438.378q.1,0,.191-.006A2.944,2.944,0,1,0,44,9.258l-1.7,1.7a18.884,18.884,0,0,0-30.127,0l-1.7-1.7A2.949,2.949,0,1,0,4.951,7.627h0a2.953,2.953,0,0,0,2.757,3.13c.064,0,.128.006.191.006a2.917,2.917,0,0,0,1.435-.378l1.909,1.909a18.781,18.781,0,0,0-2.9,9.245H5.785A2.946,2.946,0,0,0,.737,20.39a2.948,2.948,0,0,0,2.209,4.9q.095,0,.19-.006a2.943,2.943,0,0,0,2.651-2.146H8.343a18.791,18.791,0,0,0,3.2,9.776.791.791,0,0,0,.133.191,19.032,19.032,0,0,0,7.405,6.327l-.932.56c-.374.225-.74.433-1.093.634-2.237,1.271-4.169,2.369-4.169,5.677v6.222a1.512,1.512,0,0,0,.386,1.122,1.392,1.392,0,0,0,1.039.349l.147,0,.163,0H17a.8.8,0,1,0,0-1.6H14.624l-.139,0V46.3c0-2.379,1.193-3.058,3.361-4.29.227-.129.459-.261.7-.4l3.72,2.407.031.019c.135.079.25.158.362.234a1.84,1.84,0,0,0,1.013.407,1.261,1.261,0,0,0,.838-.35l.26,1.021-2.1,4.559,0,.008a.831.831,0,0,0,.045.839l.964,1.638H20.685a.8.8,0,1,0,0,1.6H39.838l.163,0,.148,0a1.393,1.393,0,0,0,1.039-.349,1.516,1.516,0,0,0,.386-1.122V46.3c0-3.308-1.932-4.406-4.169-5.677-.353-.2-.719-.408-1.095-.634l-.932-.56A19.028,19.028,0,0,0,42.788,33.1a.786.786,0,0,0,.13-.187,18.791,18.791,0,0,0,3.2-9.742h2.558a2.948,2.948,0,1,0,5.052-2.745Zm-8.174-13.5a1.342,1.342,0,0,1,.928-.456c.029,0,.059,0,.088,0a1.352,1.352,0,1,1-1.016.459ZM9.242,7.9A1.352,1.352,0,1,1,7.979,6.465,1.343,1.343,0,0,1,9.242,7.9ZM3.964,23.233a1.353,1.353,0,1,1-2.029-1.789h0a1.338,1.338,0,0,1,.927-.455l.087,0a1.354,1.354,0,0,1,1.015,2.248Zm40.558-1.66H35.966a38.536,38.536,0,0,0-.785-7.2,44.778,44.778,0,0,0,6.67-1.256,17.2,17.2,0,0,1,2.67,8.458Zm-9.9,10.344v.021a4.7,4.7,0,0,1-.126,1.053A9.4,9.4,0,0,1,29,39.116a4.478,4.478,0,0,1-3.543,0A9.4,9.4,0,0,1,19.965,33a4.915,4.915,0,0,1-.126-1.057v-1.72h.282a3.853,3.853,0,0,0,.75-.069c1.762-.35,2.09-1.95,2.3-2.951.267-1.3.421-1.509,1.1-1.509h1.9c1.732,0,2.714.921,3.754,1.9A5.871,5.871,0,0,0,33.7,29.613c.07,0,.143.005.215.005h.707v2.3ZM33.548,40.19l.845.507-3.045,1.97c-.177.1-.324.2-.442.286l-.034.023q-.021-.026-.044-.051L28.858,40.84c.227-.063.46-.139.7-.229A9.85,9.85,0,0,0,32,39.259Zm-4.895,2.758-.429,1.679h-2L25.8,42.955l1.428-1.513Zm-8.816-16.93a10.608,10.608,0,0,1,.257-2.669c.016-.061.032-.121.049-.181a4.135,4.135,0,0,1,.8-1.6,2.628,2.628,0,0,1,1.838-.923.8.8,0,0,0,.562-.307c1.338-1.737,4.193-1.747,6.43-.985a8.463,8.463,0,0,1,3.483,2.216,5.436,5.436,0,0,1,1.024,1.6c.031.077.061.154.087.233a4.607,4.607,0,0,1,.258,1.53v3.092h-.707c-1.2,0-1.953-.706-2.907-1.6a6.649,6.649,0,0,0-4.845-2.328h-1.9c-2.091,0-2.435,1.675-2.663,2.784s-.385,1.577-1.03,1.707a2.28,2.28,0,0,1-.453.038H19.84V26.167c0-.037,0-.087,0-.149ZM40.871,11.726a44.924,44.924,0,0,1-6.061,1.082A17.725,17.725,0,0,0,31.276,5.54,17.347,17.347,0,0,1,40.871,11.726ZM27.232,5.062c1.754,0,3.534,1.763,4.882,4.836a22.9,22.9,0,0,1,1.078,3.074c-1.415.123-2.883.2-4.383.236a.8.8,0,0,0,.017,1.6h.018c1.62-.035,3.207-.125,4.734-.264a35.83,35.83,0,0,1,.752,5.847,10.338,10.338,0,0,0-8.553-3.021A5.64,5.64,0,0,0,22.3,19.1a4.239,4.239,0,0,0-2.15.989,35.633,35.633,0,0,1,.737-5.555c1.422.13,2.9.217,4.4.256h.022a.8.8,0,0,0,.021-1.6c-1.385-.037-2.743-.114-4.054-.228A22.945,22.945,0,0,1,22.348,9.9c1.35-3.073,3.129-4.836,4.884-4.836Zm-4.044.478a17.722,17.722,0,0,0-3.535,7.267,44.957,44.957,0,0,1-6.061-1.081,17.344,17.344,0,0,1,9.6-6.186ZM12.611,13.115a44.794,44.794,0,0,0,6.67,1.255,38.509,38.509,0,0,0-.785,7.2H9.942A17.2,17.2,0,0,1,12.611,13.115ZM18.5,23.168v0a12.4,12.4,0,0,0-.253,2.873c0,.051,0,.093,0,.123V30.5a42.69,42.69,0,0,0-5.632,1.126,17.2,17.2,0,0,1-2.671-8.457H18.5Zm-4.9,9.847a42.232,42.232,0,0,1,4.654-.9,6.8,6.8,0,0,0,.163,1.23A10.331,10.331,0,0,0,21.2,38.158l-.444.267A17.4,17.4,0,0,1,13.592,33.015Zm10.743,9.171-.011.011-.688.729q-.023.025-.044.051l-.034-.023c-.119-.081-.266-.182-.442-.286L20.07,40.7l.845-.507,1.553-.931A9.854,9.854,0,0,0,24.9,40.611c.243.091.476.166.7.229Zm4.6,10.206H25.522l-1.259-2.14,1.857-4.03h2.214l1.857,4.03ZM35.92,41.61c.238.138.47.271.7.4,2.168,1.232,3.361,1.91,3.361,4.29v6.095l-.14,0H30.783l.964-1.638a.832.832,0,0,0,.035-.861l-2.094-4.545.262-1.027a1.264,1.264,0,0,0,.845.356,1.84,1.84,0,0,0,1.013-.407c.112-.077.227-.156.362-.234l.031-.019Zm-2.214-3.185-.444-.267a10.325,10.325,0,0,0,2.792-4.81,6.37,6.37,0,0,0,.164-1.231,42.253,42.253,0,0,1,4.654.9A17.4,17.4,0,0,1,33.705,38.424Zm8.145-6.8A42.663,42.663,0,0,0,36.219,30.5V24.931a6.146,6.146,0,0,0-.253-1.741.071.071,0,0,0,0-.021h8.556A17.2,17.2,0,0,1,41.85,31.625Zm10.559-8.24a1.351,1.351,0,1,1,.122-1.908A1.356,1.356,0,0,1,52.409,23.385Z" transform="translate(7.413 -3.467)" fill="#17171b"/>
  </g>
</svg>
